0
SECTION
2
HEADER
9
$INSUNITS
70
4
9
$ACADVER
1
AC1014
9
$HANDSEED
5
FFFF
0
ENDSEC
0
SECTION
2
TABLES
0
TABLE
2
VPORT
5
8
100
AcDbSymbolTable
0
ENDTAB
0
TABLE
2
LTYPE
5
5
100
AcDbSymbolTable
0
LTYPE
5
14
100
AcDbSymbolTableRecord
100
AcDbLinetypeTableRecord
2
BYBLOCK
70
0
0
LTYPE
5
15
100
AcDbSymbolTableRecord
100
AcDbLinetypeTableRecord
2
BYLAYER
70
0
0
ENDTAB
0
TABLE
2
LAYER
5
2
100
AcDbSymbolTable
70
2
0
LAYER
5
50
100
AcDbSymbolTableRecord
100
AcDbLayerTableRecord
2
0
70
0
6
CONTINUOUS
0
ENDTAB
0
TABLE
2
STYLE
5
3
100
AcDbSymbolTable
70
1
0
STYLE
5
11
100
AcDbSymbolTableRecord
100
AcDbTextStyleTableRecord
2
STANDARD
70
0
0
ENDTAB
0
TABLE
2
VIEW
5
6
100
AcDbSymbolTable
70
0
0
ENDTAB
0
TABLE
2
UCS
5
7
100
AcDbSymbolTable
70
0
0
ENDTAB
0
TABLE
2
APPID
5
9
100
AcDbSymbolTable
70
2
0
APPID
5
12
100
AcDbSymbolTableRecord
100
AcDbRegAppTableRecord
2
ACAD
70
0
0
ENDTAB
0
TABLE
2
DIMSTYLE
5
A
100
AcDbSymbolTable
70
1
0
ENDTAB
0
TABLE
2
BLOCK_RECORD
5
1
100
AcDbSymbolTable
70
1
0
BLOCK_RECORD
5
1F
100
AcDbSymbolTableRecord
100
AcDbBlockTableRecord
2
*MODEL_SPACE
0
BLOCK_RECORD
5
1B
100
AcDbSymbolTableRecord
100
AcDbBlockTableRecord
2
*PAPER_SPACE
0
ENDTAB
0
ENDSEC
0
SECTION
2
BLOCKS
0
BLOCK
5
20
100
AcDbEntity
100
AcDbBlockBegin
2
*MODEL_SPACE
0
ENDBLK
5
21
100
AcDbEntity
100
AcDbBlockEnd
0
BLOCK
5
1C
100
AcDbEntity
100
AcDbBlockBegin
2
*PAPER_SPACE
0
ENDBLK
5
1D
100
AcDbEntity
100
AcDbBlockEnd
0
ENDSEC
0
SECTION
2
ENTITIES
0
LWPOLYLINE
5
100
100
AcDbEntity
8
0
100
AcDbPolyline
90
8
70
1
43
0.0
10
241.875
20
78.000226754315761
10
241.875
20
65.000226754315861
42
0.41421356237309503
10
242.37500000000011
20
64.500226754315875
10
255.375
20
64.500226754315875
42
0.41421356237316787
10
255.87500000000009
20
65.000226754315861
10
255.87500000000011
20
78.000226754315761
42
0.41421356237315748
10
255.375
20
78.500226754315761
10
242.37500000000011
20
78.500226754315733
42
0.41421356237309503
0
LWPOLYLINE
5
101
100
AcDbEntity
8
0
100
AcDbPolyline
90
8
70
1
43
0.0
10
108.52500000000003
20
65.000226754315889
42
0.41421356237307422
10
109.02500000000003
20
64.500226754315889
10
122.02500000000003
20
64.500226754315889
42
0.41421356237304818
10
122.52500000000005
20
65.000226754315889
10
122.52500000000001
20
78.00022675431579
42
0.41421356237311585
10
122.02500000000002
20
78.500226754315776
10
109.02500000000003
20
78.500226754315776
42
0.4142135623730534
10
108.52500000000005
20
78.00022675431579
0
LWPOLYLINE
5
102
100
AcDbEntity
8
0
100
AcDbPolyline
90
8
70
1
43
0.0
10
141.57500000000005
20
78.00022675431579
42
0.41421356237310542
10
141.07500000000005
20
78.500226754315776
10
128.07500000000005
20
78.500226754315875
42
0.41421356237304818
10
127.57499999999993
20
78.00022675431579
10
127.57500000000005
20
65.000226754315889
42
0.41421356237312623
10
128.07500000000002
20
64.500226754315889
10
141.07500000000005
20
64.500226754315889
42
0.41421356237311585
10
141.57500000000005
20
65.000226754315889
0
LWPOLYLINE
5
103
100
AcDbEntity
8
0
100
AcDbPolyline
90
8
70
1
43
0.0
10
241.58750000000003
20
45.950226754312801
10
241.58750000000001
20
58.950226754312816
42
0.41421356237304818
10
241.08750000000009
20
59.450226754312823
10
228.08750000000003
20
59.450226754312837
42
0.41421356237307944
10
227.58750000000006
20
58.950226754312823
10
227.58750000000009
20
45.950226754312808
42
0.41421356237304818
10
228.08750000000003
20
45.450226754312801
10
241.08750000000003
20
45.450226754312801
42
0.41421356237313145
0
LWPOLYLINE
5
104
100
AcDbEntity
8
0
100
AcDbPolyline
90
8
70
1
43
0.0
10
151.38749999999902
20
58.950226754312823
10
151.38749999999902
20
45.950226754312823
42
0.41421356237311585
10
151.88749999999902
20
45.45022675431283
10
164.8875000000001
20
45.450226754312823
42
0.41421356237307422
10
165.38749999999999
20
45.950226754312823
10
165.38750000000005
20
58.950226754312823
42
0.41421356237309503
10
164.8875000000001
20
59.450226754312823
10
151.88749999999902
20
59.450226754312816
42
0.4142135623730846
0
LWPOLYLINE
5
105
100
AcDbEntity
8
0
100
AcDbPolyline
90
8
70
1
43
0.0
10
218.06250000000009
20
26.900226754315881
42
0.41421356237310802
10
218.56250000000003
20
26.400226754315863
10
231.5625
20
26.400226754315828
42
0.41421356237310542
10
232.06250000000011
20
26.900226754315852
10
232.06250000000014
20
39.900226754315746
42
0.41421356237312623
10
231.5625
20
40.400226754315732
10
218.56250000000003
20
40.400226754315867
42
0.41421356237313667
10
218.06249999999991
20
39.900226754315746
0
LWPOLYLINE
5
106
100
AcDbEntity
8
0
100
AcDbPolyline
90
8
70
1
43
0.0
10
94.737499999999983
20
59.45022675431283
42
0.414213562373069
10
94.237499999999997
20
58.950226754312851
10
94.237499999999997
20
45.950226754312837
42
0.4142135623730378
10
94.737499999999983
20
45.450226754312837
10
107.73750000000007
20
45.450226754312823
42
0.41421356237307944
10
108.23750000000004
20
45.950226754312837
10
108.23750000000004
20
58.950226754312851
42
0.41421356237308982
10
107.7375
20
59.450226754312823
0
LWPOLYLINE
5
107
100
AcDbEntity
8
0
100
AcDbPolyline
90
8
70
1
43
0.0
10
70.137500000000031
20
58.950226754312851
42
0.41421356237311063
10
69.637500000000031
20
59.450226754312837
10
56.637500000000017
20
59.450226754312837
42
0.41421356237311063
10
56.137500000000024
20
58.950226754312851
10
56.137500000000024
20
45.950226754312851
42
0.4142135623730846
10
56.637500000000017
20
45.450226754312837
10
69.637500000000031
20
45.450226754312837
42
0.41421356237310542
10
70.137500000000031
20
45.950226754312851
0
LWPOLYLINE
5
108
100
AcDbEntity
8
0
100
AcDbPolyline
90
8
70
1
43
0.0
10
222.03749999999999
20
45.450226754312801
42
0.41421356237301177
10
222.53749999999999
20
45.950226754312808
10
222.53749999999999
20
58.950226754312823
42
0.41421356237312623
10
222.03749999999999
20
59.450226754312823
10
209.03750000000002
20
59.450226754312851
42
0.4142135623730846
10
208.53750000000005
20
58.950226754312823
10
208.53750000000005
20
45.950226754312808
42
0.4142135623730222
10
209.03750000000002
20
45.450226754312808
0
LWPOLYLINE
5
109
100
AcDbEntity
8
0
100
AcDbPolyline
90
8
70
1
43
0.0
10
132.33750000000001
20
45.950226754312823
42
0.41421356237308982
10
132.83750000000003
20
45.45022675431283
10
145.83749999999901
20
45.450226754312823
42
0.41421356237313667
10
146.3374999999991
20
45.950226754312823
10
146.33749999999904
20
58.950226754312823
42
0.41421356237310025
10
145.83749999999901
20
59.450226754312823
10
132.83750000000003
20
59.450226754312823
42
0.41421356237313145
10
132.33750000000003
20
58.950226754312823
0
LWPOLYLINE
5
110
100
AcDbEntity
8
0
100
AcDbPolyline
90
8
70
1
43
0.0
10
179.17500000000004
20
78.500226754315761
10
166.17500000000004
20
78.500226754315776
42
0.41421356237313667
10
165.67500000000001
20
78.000226754315776
10
165.67500000000001
20
65.000226754315875
42
0.41421356237314705
10
166.17500000000004
20
64.500226754315861
10
179.17500000000004
20
64.500226754315861
42
0.41421356237309503
10
179.67499999999998
20
65.000226754315875
10
179.67500000000001
20
78.000226754315776
42
0.41421356237301177
0
LWPOLYLINE
5
111
100
AcDbEntity
8
0
100
AcDbPolyline
90
8
70
1
43
0.0
10
65.66249999999998
20
26.900226754315891
42
0.4142135623730846
10
66.162499999999994
20
26.400226754315881
10
79.16249999999998
20
26.400226754315895
42
0.41421356237308982
10
79.662500000000023
20
26.900226754315891
10
79.662500000000023
20
39.900226754315774
42
0.41421356237307683
10
79.162500000000023
20
40.400226754315796
10
66.162500000000009
20
40.400226754315788
42
0.41421356237309764
10
65.662499999999994
20
39.900226754315774
0
LWPOLYLINE
5
112
100
AcDbEntity
8
0
100
AcDbPolyline
90
8
70
1
43
0.0
10
161.412499999999
20
26.400226754315877
10
174.41250000000008
20
26.400226754315909
42
0.41421356237309503
10
174.91250000000005
20
26.900226754315881
10
174.91250000000005
20
39.900226754315774
42
0.41421356237307161
10
174.41250000000008
20
40.400226754315781
10
161.41249999999903
20
40.400226754315781
42
0.41421356237313406
10
160.91249999999903
20
39.900226754315774
10
160.91249999999903
20
26.900226754315881
42
0.41421356237307422
0
LWPOLYLINE
5
113
100
AcDbEntity
8
0
100
AcDbPolyline
90
8
70
1
43
0.0
10
246.34999999999997
20
97.050226754315787
42
0.41421356237301177
10
245.85000000000002
20
97.550226754315773
10
232.85000000000002
20
97.550226754315759
42
0.41421356237316787
10
232.34999999999999
20
97.050226754315773
10
232.34999999999999
20
84.050226754315872
42
0.41421356237312623
10
232.84999999999999
20
83.550226754315872
10
245.85000000000002
20
83.550226754315858
42
0.41421356237310542
10
246.35000000000005
20
84.050226754315844
0
LWPOLYLINE
5
114
100
AcDbEntity
8
0
100
AcDbPolyline
90
8
70
1
43
0.0
10
199.01250000000007
20
26.900226754315881
42
0.41421356237305601
10
199.51250000000002
20
26.400226754315863
10
212.51249999999999
20
26.400226754315899
42
0.41421356237312623
10
213.0125000000001
20
26.900226754315852
10
213.0125000000001
20
39.900226754315774
42
0.414213562373069
10
212.51250000000005
20
40.40022675431576
10
199.51250000000002
20
40.400226754315796
42
0.41421356237310025
10
199.01250000000007
20
39.900226754315774
0
LWPOLYLINE
5
115
100
AcDbEntity
8
0
100
AcDbPolyline
90
8
70
1
43
0.0
10
303.00000000000011
20
45.450226754312808
42
0.41421356237314705
10
303.5
20
45.950226754312801
10
303.5
20
58.950226754312808
42
0.4142135623730534
10
303.00000000000006
20
59.450226754312808
10
290.00000000000006
20
59.450226754312787
42
0.41421356237310025
10
289.5
20
58.950226754312808
10
289.5
20
45.950226754312801
42
0.41421356237307422
10
290.00000000000006
20
45.450226754312801
0
LWPOLYLINE
5
116
100
AcDbEntity
8
0
100
AcDbPolyline
90
8
70
1
43
0.0
10
303.00000000000011
20
83.550226754315858
42
0.41421356237314705
10
303.5
20
84.050226754315844
10
303.50000000000011
20
97.050226754315787
42
0.4142135623730222
10
303.00000000000006
20
97.550226754315759
10
290.00000000000006
20
97.550226754315773
42
0.41421356237310542
10
289.5
20
97.050226754315787
10
289.5
20
84.050226754315844
42
0.4142135623730534
10
290.00000000000006
20
83.55022675431583
0
CIRCLE
5
117
100
AcDbEntity
8
0
100
AcDbCircle
10
186.96249746000004
20
61.975229258614533
30
-6.3926294813221328e-13
40
1.45
210
0
220
0
230
1
0
CIRCLE
5
118
100
AcDbEntity
8
0
100
AcDbCircle
10
284.59445104000002
20
71.500277554316582
30
-1.2766350476756114e-12
40
1.45
210
0
220
0
230
1
0
CIRCLE
5
119
100
AcDbEntity
8
0
100
AcDbCircle
10
286.97499746000005
20
23.875178458616482
30
1.9102427972761404e-12
40
1.45
210
0
220
0
230
1
0
CIRCLE
5
120
100
AcDbEntity
8
0
100
AcDbCircle
10
153.59324999999995
20
14.350310574316509
30
2.5476148968195385e-12
40
1.45
210
0
220
0
230
1
0
LWPOLYLINE
5
121
100
AcDbEntity
8
0
100
AcDbPolyline
90
8
70
1
43
0.0
10
31.594250000000017
20
24.400226754315799
10
37.594250000000009
20
24.40022675431581
42
0.41421356237309243
10
38.094250000000017
20
24.90022675431581
10
38.094250000000017
20
38.90022675431581
42
0.41421356237309243
10
37.594250000000009
20
39.40022675431581
10
31.594250000000017
20
39.400226754315796
42
0.41421356237309503
10
31.094250000000017
20
38.90022675431581
10
31.094250000000013
20
24.90022675431581
42
0.41421356237308982
0
CIRCLE
5
122
100
AcDbEntity
8
0
100
AcDbCircle
10
75.031049999999908
20
42.893476754316531
30
6.3548125095458374e-13
40
1.45
210
0
220
0
230
1
0
CIRCLE
5
123
100
AcDbEntity
8
0
100
AcDbCircle
10
44.08750000000002
20
23.875127658616556
30
1.9102427972761404e-12
40
1.45
210
0
220
0
230
1
0
LWPOLYLINE
5
124
100
AcDbEntity
8
0
100
AcDbPolyline
90
8
70
1
43
0.0
10
74.900000000000034
20
97.050226754315815
42
0.41421356237304818
10
74.400000000000034
20
97.550226754315759
10
61.40000000000002
20
97.550226754315759
42
0.41421356237307422
10
60.900000000000034
20
97.050226754315801
10
60.900000000000027
20
84.050226754315929
42
0.41421356237311063
10
61.40000000000002
20
83.550226754315915
10
74.400000000000034
20
83.550226754315915
42
0.41421356237310025
10
74.900000000000034
20
84.050226754315943
0
CIRCLE
5
125
100
AcDbEntity
8
0
100
AcDbCircle
10
234.54304999999999
20
42.893476754316495
30
6.3548125095458374e-13
40
1.45
210
0
220
0
230
1
0
LWPOLYLINE
5
126
100
AcDbEntity
8
0
100
AcDbPolyline
90
8
70
1
43
0.0
10
99.500000000000014
20
83.550226754315915
10
112.50000000000007
20
83.550226754315872
42
0.41421356237310542
10
113.00000000000004
20
84.050226754315872
10
113.00000000000004
20
97.050226754315787
42
0.41421356237309503
10
112.50000000000007
20
97.550226754315759
10
99.500000000000043
20
97.550226754315759
42
0.41421356237309503
10
99.000000000000071
20
97.050226754315787
10
99.000000000000057
20
84.050226754315872
42
0.41421356237309503
0
LWPOLYLINE
5
127
100
AcDbEntity
8
0
100
AcDbPolyline
90
8
70
1
43
0.0
10
14.21825000000003
20
38.90022675431581
42
0.4142135623730937
10
13.718250000000021
20
39.40022675431581
10
7.7182500000000243
20
39.40022675431581
42
0.4142135623730937
10
7.2182500000000154
20
38.90022675431581
10
7.2182500000000163
20
24.90022675431581
42
0.41421356237309825
10
7.7182500000000243
20
24.400226754315799
10
13.718250000000021
20
24.400226754315817
42
0.41421356237309892
10
14.218250000000028
20
24.900226754315817
0
LWPOLYLINE
5
128
100
AcDbEntity
8
0
100
AcDbPolyline
90
8
70
1
43
0.0
10
258.25625000000008
20
39.900226754315746
42
0.41421356237307944
10
257.75625000000002
20
40.400226754315781
10
244.75625000000002
20
40.40022675431576
42
0.41421356237314183
10
244.25624999999999
20
39.900226754315746
10
244.25624999999999
20
26.900226754315852
42
0.41421356237310281
10
244.75625000000002
20
26.400226754315842
10
257.75625000000002
20
26.400226754315831
42
0.41421356237308204
10
258.25625000000002
20
26.900226754315852
0
LWPOLYLINE
5
129
100
AcDbEntity
8
0
100
AcDbPolyline
90
8
70
1
43
0.0
10
270.45000000000005
20
20.85022675431577
10
270.45000000000005
20
7.85022675431577
42
0.4142135623731048
10
270.95000000000005
20
7.3502267543157531
10
283.9500000000001
20
7.3502267543157673
42
0.41421356237311324
10
284.44999999999999
20
7.85022675431577
10
284.45000000000016
20
20.85022675431577
42
0.41421356237314705
10
283.9500000000001
20
21.350226754315745
10
270.95000000000005
20
21.350226754315781
42
0.41421356237313928
0
LWPOLYLINE
5
130
100
AcDbEntity
8
0
100
AcDbPolyline
90
8
70
1
43
0.0
10
137.60000000000002
20
83.550226754315872
10
150.59999999999903
20
83.550226754315872
42
0.41421356237316787
10
151.09999999999903
20
84.050226754315872
10
151.09999999999906
20
97.050226754315787
42
0.41421356237313667
10
150.59999999999906
20
97.550226754315759
10
137.60000000000005
20
97.550226754315759
42
0.41421356237316787
10
137.10000000000005
20
97.050226754315787
10
137.10000000000002
20
84.050226754315872
42
0.4142135623730846
0
CIRCLE
5
131
100
AcDbEntity
8
0
100
AcDbCircle
10
27.41845028000002
20
71.500277554316554
30
-1.2766350476756114e-12
40
1.45
210
0
220
0
230
1
0
LWPOLYLINE
5
132
100
AcDbEntity
8
0
100
AcDbPolyline
90
8
70
1
43
0.0
10
272.04375000000005
20
45.450226754312794
42
0.41421356237307422
10
272.5437500000001
20
45.950226754312801
10
272.54375000000005
20
58.950226754312816
42
0.4142135623730378
10
272.04375000000005
20
59.450226754312794
10
259.04375000000005
20
59.450226754312816
42
0.41421356237313145
10
258.54375000000005
20
58.950226754312816
10
258.54374999999999
20
45.950226754312801
42
0.414213562373069
10
259.04375000000005
20
45.450226754312801
0
LWPOLYLINE
5
133
100
AcDbEntity
8
0
100
AcDbPolyline
90
8
70
1
43
0.0
10
131.55000000000004
20
97.550226754315773
10
118.55000000000004
20
97.550226754315759
42
0.41421356237316787
10
118.05000000000005
20
97.050226754315787
10
118.05000000000001
20
84.050226754315872
42
0.41421356237309503
10
118.55000000000004
20
83.550226754315915
10
131.55000000000004
20
83.550226754315872
42
0.41421356237310542
10
132.05000000000001
20
84.050226754315872
10
132.05000000000007
20
97.050226754315787
42
0.41421356237309503
0
LWPOLYLINE
5
134
100
AcDbEntity
8
0
100
AcDbPolyline
90
8
70
1
43
0.0
10
284.44999999999999
20
39.900226754315746
42
0.41421356237310025
10
283.9500000000001
20
40.400226754315732
10
270.95000000000005
20
40.400226754315867
42
0.41421356237319906
10
270.45000000000005
20
39.900226754315746
10
270.45000000000005
20
26.900226754315852
42
0.41421356237310281
10
270.95000000000005
20
26.400226754315842
10
283.9500000000001
20
26.400226754315838
42
0.41421356237307944
10
284.44999999999999
20
26.900226754315852
0
LWPOLYLINE
5
135
100
AcDbEntity
8
0
100
AcDbPolyline
90
8
70
1
43
0.0
10
227.30000000000004
20
97.050226754315773
42
0.41421356237310542
10
226.80000000000007
20
97.550226754315759
10
213.80000000000001
20
97.550226754315759
42
0.41421356237310542
10
213.30000000000013
20
97.050226754315773
10
213.3000000000001
20
84.050226754315872
42
0.41421356237312623
10
213.80000000000001
20
83.550226754315872
10
226.80000000000007
20
83.550226754315872
42
0.41421356237310542
10
227.30000000000004
20
84.050226754315872
0
LWPOLYLINE
5
136
100
AcDbEntity
8
0
100
AcDbPolyline
90
8
70
1
43
0.0
10
42.350000000000009
20
83.550226754315915
10
55.350000000000023
20
83.550226754315929
42
0.414213562373069
10
55.850000000000016
20
84.050226754315943
10
55.850000000000023
20
97.050226754315801
42
0.41421356237307422
10
55.350000000000023
20
97.550226754315773
10
42.350000000000009
20
97.550226754315759
42
0.41421356237310025
10
41.850000000000016
20
97.050226754315801
10
41.850000000000016
20
84.050226754315958
42
0.41421356237312101
0
LWPOLYLINE
5
137
100
AcDbEntity
8
0
100
AcDbPolyline
90
8
70
1
43
0.0
10
223.3250000000001
20
64.500226754315847
10
236.32500000000007
20
64.500226754315875
42
0.41421356237304302
10
236.82500000000002
20
65.000226754315861
10
236.82500000000002
20
78.000226754315761
42
0.41421356237305862
10
236.32500000000007
20
78.500226754315776
10
223.3250000000001
20
78.500226754315776
42
0.41421356237307422
10
222.82500000000005
20
78.000226754315761
10
222.82500000000005
20
65.000226754315861
42
0.41421356237311063
0
LWPOLYLINE
5
138
100
AcDbEntity
8
0
100
AcDbPolyline
90
8
70
1
43
0.0
10
17.750000000000007
20
84.050226754315943
10
17.750000000000036
20
97.050226754315787
42
0.41421356237305862
10
17.250000000000018
20
97.550226754315815
10
4.2500000000000338
20
97.550226754315887
42
0.41421356237313212
10
3.750000000000032
20
97.050226754315801
10
3.7500000000000204
20
84.050226754315943
42
0.41421356237304136
10
4.2500000000000249
20
83.550226754315958
10
17.250000000000018
20
83.550226754315929
42
0.4142135623730599
0
LWPOLYLINE
5
139
100
AcDbEntity
8
0
100
AcDbPolyline
90
8
70
1
43
0.0
10
198.22500000000005
20
78.500226754315776
10
185.22500000000002
20
78.50022675431579
42
0.41421356237314183
10
184.72499999999999
20
78.000226754315776
10
184.72500000000002
20
65.000226754315875
42
0.4142135623730222
10
185.22500000000002
20
64.500226754315875
10
198.22500000000002
20
64.500226754315875
42
0.41421356237313145
10
198.72500000000002
20
65.000226754315875
10
198.72499999999999
20
78.000226754315776
42
0.41421356237304818
0
LWPOLYLINE
5
140
100
AcDbEntity
8
0
100
AcDbPolyline
90
8
70
1
43
0.0
10
36.799999999999997
20
84.050226754315943
10
36.800000000000018
20
97.050226754315801
42
0.41421356237307422
10
36.300000000000011
20
97.550226754315773
10
23.30000000000004
20
97.550226754315901
42
0.41421356237310281
10
22.800000000000047
20
97.050226754315801
10
22.800000000000033
20
84.050226754315943
42
0.41421356237304302
10
23.30000000000004
20
83.550226754315915
10
36.300000000000011
20
83.550226754315915
42
0.41421356237305601
0
LWPOLYLINE
5
141
100
AcDbEntity
8
0
100
AcDbPolyline
90
8
70
1
43
0.0
10
29.65625
20
26.900226754315906
10
29.656249999999996
20
39.90022675431581
42
0.4142135623730846
10
29.156250000000014
20
40.400226754315796
10
16.156250000000007
20
40.400226754315796
42
0.41421356237309115
10
15.656249999999996
20
39.90022675431581
10
15.656249999999996
20
26.900226754315906
42
0.41421356237308721
10
16.156250000000007
20
26.400226754315899
10
29.156250000000014
20
26.40022675431592
42
0.41421356237309243
0
LWPOLYLINE
5
142
100
AcDbEntity
8
0
100
AcDbPolyline
90
8
70
1
43
0.0
10
160.62499999999901
20
78.000226754315776
42
0.41421356237301177
10
160.12499999999903
20
78.500226754315761
10
147.12499999999906
20
78.500226754315776
42
0.414213562373069
10
146.62499999999906
20
78.000226754315776
10
146.62499999999906
20
65.000226754315889
42
0.41421356237307422
10
147.12499999999903
20
64.500226754315889
10
160.12499999999903
20
64.500226754315861
42
0.41421356237309503
10
160.62499999999898
20
65.000226754315875
0
LWPOLYLINE
5
143
100
AcDbEntity
8
0
100
AcDbPolyline
90
8
70
1
43
0.0
10
194.25000000000011
20
97.050226754315787
10
194.25000000000011
20
84.050226754315872
42
0.41421356237310542
10
194.75
20
83.550226754315872
10
207.75000000000011
20
83.550226754315872
42
0.41421356237314705
10
208.25000000000003
20
84.050226754315872
10
208.25000000000003
20
97.050226754315773
42
0.41421356237315748
10
207.75000000000009
20
97.550226754315759
10
194.75
20
97.550226754315759
42
0.41421356237309503
0
LWPOLYLINE
5
144
100
AcDbEntity
8
0
100
AcDbPolyline
90
8
70
1
43
0.0
10
93.450000000000003
20
97.550226754315773
10
80.450000000000031
20
97.550226754315787
42
0.41421356237313667
10
79.950000000000031
20
97.050226754315787
10
79.950000000000045
20
84.050226754315943
42
0.41421356237309503
10
80.450000000000031
20
83.550226754315915
10
93.450000000000003
20
83.550226754315872
42
0.4142135623730846
10
93.950000000000017
20
84.050226754315872
10
93.950000000000031
20
97.050226754315787
42
0.41421356237299095
0
LWPOLYLINE
5
145
100
AcDbEntity
8
0
100
AcDbPolyline
90
8
70
1
43
0.0
10
37.587500000000027
20
59.450226754312823
42
0.41421356237309243
10
37.087500000000034
20
58.950226754312851
10
37.087500000000013
20
45.950226754312851
42
0.41421356237311585
10
37.587500000000027
20
45.450226754312837
10
50.587500000000027
20
45.450226754312851
42
0.41421356237309503
10
51.08750000000002
20
45.950226754312851
10
51.08750000000002
20
58.950226754312851
42
0.414213562373069
10
50.587500000000027
20
59.450226754312858
0
LWPOLYLINE
5
146
100
AcDbEntity
8
0
100
AcDbPolyline
90
8
70
1
43
0.0
10
89.475000000000037
20
78.00022675431579
10
89.475000000000037
20
65.000226754315889
42
0.41421356237312101
10
89.975000000000023
20
64.500226754315889
10
102.97500000000002
20
64.500226754315889
42
0.41421356237311585
10
103.47500000000004
20
65.000226754315889
10
103.47500000000004
20
78.00022675431579
42
0.41421356237308982
10
102.97499999999999
20
78.50022675431579
10
89.975000000000023
20
78.500226754315776
42
0.4142135623730534
0
LWPOLYLINE
5
147
100
AcDbEntity
8
0
100
AcDbPolyline
90
8
70
1
43
0.0
10
156.14999999999904
20
97.050226754315787
10
156.14999999999901
20
84.050226754315872
42
0.41421356237309503
10
156.64999999999904
20
83.550226754315872
10
169.65000000000003
20
83.550226754315872
42
0.41421356237310542
10
170.15000000000001
20
84.050226754315872
10
170.15000000000003
20
97.050226754315787
42
0.41421356237303258
10
169.65000000000003
20
97.550226754315759
10
156.64999999999904
20
97.550226754315773
42
0.41421356237316787
0
LWPOLYLINE
5
148
100
AcDbEntity
8
0
100
AcDbPolyline
90
8
70
1
43
0.0
10
183.93750000000009
20
45.450226754312823
42
0.4142135623731783
10
184.4375
20
45.950226754312823
10
184.43750000000006
20
58.950226754312823
42
0.41421356237312623
10
183.93750000000009
20
59.450226754312858
10
170.93750000000003
20
59.450226754312823
42
0.41421356237313145
10
170.43750000000003
20
58.950226754312823
10
170.43750000000003
20
45.950226754312823
42
0.41421356237307422
10
170.9375
20
45.45022675431283
0
LWPOLYLINE
5
149
100
AcDbEntity
8
0
100
AcDbPolyline
90
8
70
1
43
0.0
10
290.00000000000006
20
78.500226754315719
42
0.41421356237310025
10
289.5
20
78.000226754315747
10
289.5
20
65.000226754315847
42
0.414213562373069
10
290.00000000000006
20
64.500226754315847
10
303.00000000000006
20
64.500226754315861
42
0.41421356237316787
10
303.5
20
65.000226754315847
10
303.50000000000011
20
78.000226754315747
42
0.41421356237311585
10
303.00000000000006
20
78.500226754315761
0
LWPOLYLINE
5
150
100
AcDbEntity
8
0
100
AcDbPolyline
90
8
70
1
43
0.0
10
104.26250000000003
20
40.400226754315781
42
0.41421356237309503
10
103.76250000000002
20
39.900226754315774
10
103.76250000000002
20
26.900226754315891
42
0.41421356237308721
10
104.26250000000003
20
26.400226754315899
10
117.26250000000002
20
26.400226754315888
42
0.41421356237304041
10
117.76250000000005
20
26.900226754315891
10
117.76250000000005
20
39.900226754315774
42
0.41421356237303258
10
117.26250000000002
20
40.400226754315796
0
LWPOLYLINE
5
151
100
AcDbEntity
8
0
100
AcDbPolyline
90
8
70
1
43
0.0
10
22.51250000000001
20
78.000226754315833
42
0.41421356237307683
10
22.012499999999999
20
78.500226754315818
10
9.0125000000000099
20
78.500226754315818
42
0.41421356237309959
10
8.5125000000000224
20
78.000226754315818
10
8.5124999999999993
20
65.000226754315918
42
0.41421356237308138
10
9.0125000000000099
20
64.500226754315904
10
22.012499999999999
20
64.500226754315918
42
0.41421356237310281
10
22.51250000000001
20
65.000226754315932
0
LWPOLYLINE
5
152
100
AcDbEntity
8
0
100
AcDbPolyline
90
8
70
1
43
0.0
10
75.687500000000014
20
59.450226754312823
42
0.41421356237308982
10
75.187500000000028
20
58.950226754312851
10
75.187500000000014
20
45.950226754312837
42
0.41421356237309503
10
75.687500000000014
20
45.450226754312837
10
88.687500000000057
20
45.450226754312837
42
0.41421356237307944
10
89.187500000000014
20
45.950226754312837
10
89.187500000000028
20
58.950226754312851
42
0.41421356237309503
10
88.687500000000043
20
59.45022675431283
0
LWPOLYLINE
5
153
100
AcDbEntity
8
0
100
AcDbPolyline
90
8
70
1
43
0.0
10
189.48750000000007
20
45.950226754312808
42
0.41421356237304818
10
189.98750000000001
20
45.450226754312801
10
202.98750000000001
20
45.450226754312808
42
0.41421356237313145
10
203.48750000000001
20
45.950226754312808
10
203.48750000000001
20
58.950226754312823
42
0.41421356237318346
10
202.9875000000001
20
59.450226754312787
10
189.98750000000001
20
59.450226754312816
42
0.41421356237304302
10
189.48750000000007
20
58.950226754312823
0
LWPOLYLINE
5
154
100
AcDbEntity
8
0
100
AcDbPolyline
90
8
70
1
43
0.0
10
32.325000000000031
20
78.000226754315818
10
32.325000000000017
20
65.000226754315918
42
0.41421356237307944
10
32.825000000000024
20
64.500226754315904
10
45.825000000000024
20
64.500226754315904
42
0.4142135623730846
10
46.325000000000017
20
65.000226754315918
10
46.325000000000017
20
78.000226754315818
42
0.41421356237309503
10
45.825000000000024
20
78.500226754315818
10
32.825000000000024
20
78.500226754315818
42
0.41421356237310025
0
LWPOLYLINE
5
155
100
AcDbEntity
8
0
100
AcDbPolyline
90
8
70
1
43
0.0
10
203.77500000000003
20
78.000226754315776
10
203.77500000000003
20
65.000226754315861
42
0.41421356237311063
10
204.27500000000006
20
64.500226754315847
10
217.27500000000006
20
64.500226754315847
42
0.41421356237307944
10
217.77500000000003
20
65.000226754315861
10
217.77500000000001
20
78.000226754315761
42
0.41421356237305862
10
217.27500000000006
20
78.500226754315776
10
204.27500000000009
20
78.500226754315776
42
0.41421356237319906
0
LWPOLYLINE
5
156
100
AcDbEntity
8
0
100
AcDbPolyline
90
24
70
1
43
0.0
10
282.86300000000011
20
81.550226754315744
42
0.41421356237300139
10
283.363
20
82.050226754315773
10
283.36300000000006
20
83.250226754315847
42
-0.41421356237304302
10
283.66300000000012
20
83.550226754315872
10
283.9500000000001
20
83.550226754315872
42
0.41421356237303258
10
284.4500000000001
20
84.050226754315844
10
284.44999999999999
20
97.050226754315787
42
0.41421356237306384
10
283.9500000000001
20
97.550226754315773
10
251.90000000000003
20
97.550226754315744
42
0.41421356237326151
10
251.40000000000001
20
97.050226754315773
10
251.40000000000001
20
84.050226754315872
42
0.41421356237306384
10
251.90000000000003
20
83.550226754315872
10
252.18700000000001
20
83.550226754315915
42
-0.41421356237306034
10
252.48700000000011
20
83.250226754315861
10
252.48699999999999
20
82.050226754315773
42
0.41421356237316787
10
252.98699999999999
20
81.550226754315787
10
258.98700000000014
20
81.550226754315759
42
0.41421356237309503
10
259.48700000000002
20
82.050226754315773
10
259.48700000000008
20
83.250226754315904
42
-0.41421356237307771
10
259.78700000000009
20
83.550226754315958
10
276.06299999999987
20
83.550226754315915
42
-0.41421356237295631
10
276.36299999999994
20
83.250226754315946
10
276.363
20
82.050226754315773
42
0.41421356237306384
10
276.86300000000006
20
81.550226754315787
0
LWPOLYLINE
5
157
100
AcDbEntity
8
0
100
AcDbPolyline
90
8
70
1
43
0.0
10
236.82495000000003
20
7.85022675431577
10
236.82495000000011
20
20.850226754315774
42
0.41421356237304041
10
236.32495000000009
20
21.350226754315763
10
220.94374999999999
20
21.350226754315784
42
0.41421356237301438
10
220.44375000000005
20
20.850226754315774
10
220.44375000000005
20
7.85022675431577
42
0.414213562373069
10
220.94374999999999
20
7.3502267543157318
10
236.32495000000009
20
7.3502267543157762
42
0.41421356237304563
0
LWPOLYLINE
5
158
100
AcDbEntity
8
0
100
AcDbPolyline
90
8
70
1
43
0.0
10
24.39375000000004
20
45.450226754312851
42
0.41421356237307683
10
24.893750000000061
20
45.950226754312872
10
24.893750000000061
20
58.950226754312851
42
0.41421356237311846
10
24.39375000000004
20
59.450226754312865
10
6.6312500000000192
20
59.450226754312865
42
0.41421356237312884
10
6.1312500000000378
20
58.950226754312851
10
6.1312500000000183
20
45.950226754312851
42
0.41421356237309048
10
6.6312500000000263
20
45.450226754312851
0
LWPOLYLINE
5
159
100
AcDbEntity
8
0
100
AcDbPolyline
90
8
70
1
43
0.0
10
150.59994999999995
20
7.3502267543158064
42
0.41421356237312168
10
151.09995000000004
20
7.8502267543158055
10
151.09995000000001
20
20.850226754315774
42
0.41421356237309503
10
150.59995000000001
20
21.350226754315781
10
125.69375000000005
20
21.350226754315813
42
0.414213562373069
10
125.19375000000004
20
20.850226754315795
10
125.19374999999999
20
7.8502267543157886
42
0.41421356237310608
10
125.69375000000001
20
7.3502267543157984
0
LWPOLYLINE
5
160
100
AcDbEntity
8
0
100
AcDbPolyline
90
8
70
1
43
0.0
10
179.19375000000005
20
23.350226754315887
42
0.41421356237313928
10
178.69375000000005
20
22.850226754315877
10
178.69375000000005
20
7.85022675431577
42
0.41421356237317047
10
179.19375000000005
20
7.3502267543157895
10
185.23175000000009
20
7.3502267543157709
42
0.4142135623731425
10
185.73175000000009
20
7.8502267543157878
10
185.73175000000003
20
22.850226754315877
42
0.41421356237312623
10
185.23175000000009
20
23.350226754315862
0
LWPOLYLINE
5
161
100
AcDbEntity
8
0
100
AcDbPolyline
90
8
70
1
43
0.0
10
29.943750000000012
20
20.850226754315813
10
29.943750000000001
20
7.8502267543158055
42
0.41421356237308854
10
30.443749999999991
20
7.350226754315818
10
45.825049999999983
20
7.3502267543157984
42
0.41421356237306384
10
46.325050000000012
20
7.8502267543158055
10
46.325050000000005
20
20.850226754315813
42
0.41421356237309243
10
45.825050000000012
20
21.35022675431582
10
30.443749999999994
20
21.350226754315816
42
0.41421356237310025
0
LWPOLYLINE
5
162
100
AcDbEntity
8
0
100
AcDbPolyline
90
8
70
1
43
0.0
10
113.28749999999999
20
58.950226754312851
10
113.28749999999999
20
45.950226754312823
42
0.41421356237308982
10
113.78750000000004
20
45.45022675431283
10
126.78750000000001
20
45.45022675431283
42
0.41421356237305862
10
127.28750000000005
20
45.950226754312823
10
127.28750000000005
20
58.950226754312823
42
0.4142135623730846
10
126.78750000000005
20
59.450226754312823
10
113.78750000000004
20
59.450226754312823
42
0.41421356237307422
0
LWPOLYLINE
5
163
100
AcDbEntity
8
0
100
AcDbPolyline
90
8
70
1
43
0.0
10
142.36250000000001
20
26.400226754315881
10
155.36249999999905
20
26.400226754315909
42
0.41421356237306384
10
155.86249999999902
20
26.900226754315881
10
155.86249999999902
20
39.900226754315774
42
0.41421356237312101
10
155.36249999999905
20
40.400226754315781
10
142.36250000000001
20
40.400226754315781
42
0.41421356237309503
10
141.86250000000004
20
39.900226754315774
10
141.86250000000004
20
26.900226754315891
42
0.41421356237307161
0
LWPOLYLINE
5
164
100
AcDbEntity
8
0
100
AcDbPolyline
90
8
70
1
43
0.0
10
175.20000000000007
20
84.050226754315872
42
0.41421356237312623
10
175.69999999999999
20
83.550226754315872
10
188.70000000000005
20
83.550226754315872
42
0.41421356237312623
10
189.19999999999999
20
84.050226754315872
10
189.20000000000005
20
97.050226754315787
42
0.41421356237303258
10
188.70000000000005
20
97.550226754315759
10
175.70000000000005
20
97.55022675431573
42
0.41421356237311585
10
175.20000000000007
20
97.050226754315787
0
LWPOLYLINE
5
165
100
AcDbEntity
8
0
100
AcDbPolyline
90
8
70
1
43
0.0
10
264.90000000000003
20
21.350226754315781
10
251.90000000000003
20
21.350226754315745
42
0.41421356237309764
10
251.40000000000001
20
20.85022675431577
10
251.40000000000003
20
7.85022675431577
42
0.4142135623731048
10
251.90000000000003
20
7.3502267543157531
10
264.90000000000003
20
7.3502267543157558
42
0.4142135623730781
10
265.40000000000009
20
7.85022675431577
10
265.40000000000009
20
20.85022675431577
42
0.41421356237313145
0
LWPOLYLINE
5
166
100
AcDbEntity
8
0
100
AcDbPolyline
90
8
70
1
43
0.0
10
60.112500000000026
20
40.400226754315796
10
47.112499999999997
20
40.40022675431581
42
0.41421356237307944
10
46.612500000000018
20
39.90022675431581
10
46.61249999999999
20
26.900226754315906
42
0.41421356237311846
10
47.112499999999997
20
26.400226754315881
10
60.112500000000004
20
26.400226754315916
42
0.41421356237306123
10
60.612500000000004
20
26.900226754315891
10
60.612500000000018
20
39.90022675431581
42
0.41421356237310802
0
LWPOLYLINE
5
167
100
AcDbEntity
8
0
100
AcDbPolyline
90
8
70
1
43
0.0
10
98.712500000000034
20
39.900226754315774
42
0.41421356237311324
10
98.212500000000006
20
40.400226754315796
10
85.21250000000002
20
40.400226754315796
42
0.41421356237311063
10
84.712500000000034
20
39.900226754315774
10
84.712500000000006
20
26.900226754315891
42
0.41421356237310802
10
85.21250000000002
20
26.400226754315895
10
98.212500000000048
20
26.400226754315884
42
0.4142135623730846
10
98.712500000000034
20
26.900226754315891
0
LWPOLYLINE
5
168
100
AcDbEntity
8
0
100
AcDbPolyline
90
8
70
1
43
0.0
10
65.375000000000014
20
65.000226754315918
10
65.375000000000014
20
78.000226754315818
42
0.41421356237309503
10
64.875000000000014
20
78.500226754315818
10
51.875000000000028
20
78.500226754315904
42
0.41421356237310542
10
51.374999999999943
20
78.000226754315818
10
51.375000000000028
20
65.000226754315918
42
0.41421356237304818
10
51.875000000000028
20
64.500226754315889
10
64.875000000000014
20
64.500226754315904
42
0.4142135623730846
0
LWPOLYLINE
5
169
100
AcDbEntity
8
0
100
AcDbPolyline
90
8
70
1
43
0.0
10
136.31250000000003
20
26.400226754315881
42
0.41421356237305601
10
136.81250000000003
20
26.900226754315891
10
136.81250000000003
20
39.900226754315774
42
0.41421356237305862
10
136.31250000000003
20
40.400226754315796
10
123.31250000000004
20
40.400226754315788
42
0.41421356237307683
10
122.8125
20
39.900226754315774
10
122.8125
20
26.900226754315891
42
0.41421356237308982
10
123.31250000000004
20
26.400226754315895
0
LWPOLYLINE
5
170
100
AcDbEntity
8
0
100
AcDbPolyline
90
102
70
1
43
0.0
10
7.6875000000000355
20
100.8184515886758
42
0.41421356237310281
10
9.6875000000000249
20
102.81845158867584
10
9.6875000000000089
20
103.5502267538358
42
-0.41421356237309503
10
11.037500000000025
20
104.90022675383582
10
24.138935963200016
20
104.9002267538358
42
-0.41421356237309631
10
25.138935963200019
20
103.9002267538358
10
25.138935963200034
20
102.31845158867593
42
0.41421356237308204
10
26.138935963200041
20
101.31845158867591
10
72.500000000000014
20
101.31845158867591
42
0.41421356237308721
10
73.500000000000014
20
102.31845158867593
10
73.500000000000028
20
103.9002267538358
42
-0.41421356237310281
10
74.500000000000028
20
104.90022675383585
10
82.328187731112024
20
104.90022675383592
42
-0.41421356237309503
10
84.32818773111201
20
102.90022675383594
10
84.328187731111996
20
102.55022675391588
42
0.41421356237309503
10
86.328187731112024
20
100.55022675391592
10
113.52181226889203
20
100.55022675391582
42
0.41421356237309503
10
115.52181226889203
20
102.55022675391581
10
115.52181226889216
20
102.90022675383594
42
-0.41421356237307944
10
117.52181226889205
20
104.90022675383578
10
130.26393596321009
20
104.9002267538358
42
-0.41421356237313145
10
131.26393596321006
20
103.90022675383577
10
131.26393596321006
20
102.31845158867588
42
0.41421356237308982
10
132.26393596321006
20
101.31845158867591
10
179.62500000000003
20
101.31845158867591
42
0.41421356237311585
10
180.625
20
102.31845158867588
10
180.625
20
103.90022675383577
42
-0.41421356237312101
10
181.625
20
104.9002267538358
10
190.82818773111001
20
104.90022675383591
42
-0.41421356237310542
10
192.82818773111003
20
102.90022675383588
10
192.82818773111003
20
102.60441476440589
42
0.41421356237311324
10
194.82818773111006
20
100.60441476440587
10
219.62181226889001
20
100.60441476440589
42
0.41421356237307944
10
221.62181226889004
20
102.60441476440589
10
221.62181226889007
20
102.90022675383585
42
-0.41421356237311063
10
223.62181226889007
20
104.90022675383574
10
242.38893596321014
20
104.90022675383582
42
-0.4142135623730846
10
243.38893596321014
20
103.90022675383577
10
243.38893596321
20
102.31845158867586
42
0.41421356237311063
10
244.38893596321012
20
101.3184515886759
10
283.45000000000022
20
101.31845158867584
42
0.41421356237306384
10
284.44999999999999
20
102.31845158867586
10
284.44999999999982
20
103.90022675383577
42
-0.41421356237307944
10
285.45000000000022
20
104.90022675383599
10
292.7207773651491
20
104.90022675383605
42
-0.39625535951324825
10
294.06820852768919
20
103.63346894395869
42
0.39625535951326546
10
297.06250000000006
20
100.81845158867588
10
304.25000000000006
20
100.81845158867573
42
-0.41421356237310375
10
307.25
20
97.818451588675771
10
307.25000000000011
20
6.0820019194757444
42
-0.41421356237308754
10
305.25000000000006
20
4.0820019194757498
10
297.06250000000006
20
4.0820019194758617
42
0.39625535951327878
10
294.06820852768902
20
1.2669845641929454
42
-0.39625535951326524
10
292.7207773651491
20
0.0002267543156947438
10
288.75000000000006
20
0.00022675431576663074
42
-0.41421356237309581
10
287.75
20
1.0002267543157477
10
287.75
20
2.5820019194758355
42
0.41421356237309459
10
286.75000000000006
20
3.5820019194758568
10
244.38893596321012
20
3.5820019194758519
42
0.41421356237305912
10
243.38893596321014
20
2.5820019194758537
10
243.38893596321003
20
1.0002267543157475
42
-0.41421356237311241
10
242.38893596321017
20
0.00022675431575192029
10
223.62181226889007
20
0.00022675431580188032
42
-0.41421356237311618
10
221.62181226889004
20
2.000226754315761
10
221.62181226889004
20
2.2960387437457537
42
0.41421356237308044
10
219.62181226889001
20
4.2960387437457639
10
194.82818773111006
20
4.2960387437457772
42
0.41421356237308121
10
192.82818773111003
20
2.2960387437457714
10
192.82818773111003
20
2.0002267543157615
42
-0.41421356237308204
10
190.82818773111001
20
0.00022675431576718585
10
181.625
20
0.00022675431579050054
42
-0.4142135623731043
10
180.625
20
1.0002267543157652
10
180.62500000000003
20
2.582001919475871
42
0.41421356237307355
10
179.62500000000009
20
3.5820019194758852
10
132.26393596321
20
3.5820019194758519
42
0.41421356237311635
10
131.26393596321006
20
2.5820019194758714
10
131.26393596321006
20
1.000226754315783
42
-0.41421356237311047
10
130.26393596321
20
0.00022675431577384719
10
117.52181226889201
20
0.00022675431576774097
42
-0.41421356237309254
10
115.52181226889203
20
2.000226754315797
10
115.52181226889202
20
2.3502267542357909
42
0.41421356237309215
10
113.52181226889201
20
4.3502267542357895
10
86.328187731111981
20
4.3502267542356963
42
0.41421356237309792
10
84.328187731111996
20
2.3502267542356843
10
84.328187731111996
20
2.000226754315797
42
-0.41421356237309082
10
82.328187731111981
20
0.00022675431577412475
10
74.500000000000014
20
0.00022675431578647598
42
-0.41421356237309509
10
73.5
20
1.000226754315783
10
73.5
20
2.5820019194759065
42
0.41421356237309265
10
72.5
20
3.5820019194758852
10
26.138935963200005
20
3.5820019194759052
42
0.41421356237309948
10
25.138935963200012
20
2.582001919475907
10
25.138935963200019
20
1.0002267543158183
42
-0.41421356237310153
10
24.138935963200005
20
0.0002267543158007701
10
11.037499999999998
20
0.00022675431582186434
42
-0.41421356237309026
10
9.6875
20
1.3502267543158022
10
9.6875
20
2.0820000000000145
42
0.41421356237309509
10
7.6875000000000071
20
4.0820000000000078
10
1.9999999999999931
20
4.0820000000000078
42
-0.41421356237309737
10
0
20
6.0820000000000185
10
5.440092820663267e-14
20
97.818451588675842
42
-0.41421356237310109
10
3.0000000000000342
20
100.8184515886758
0
LWPOLYLINE
5
171
100
AcDbEntity
8
0
100
AcDbPolyline
90
8
70
1
43
0.0
10
257.10575000000006
20
43.950226754312773
10
257.10575
20
60.45022675431278
42
0.4142135623730222
10
256.60575
20
60.95022675431278
10
250.60575000000003
20
60.95022675431278
42
0.41421356237313145
10
250.10575000000003
20
60.45022675431278
10
250.10575000000006
20
43.950226754312773
42
0.41421356237308982
10
250.60575000000011
20
43.45022675431273
10
256.60575
20
43.450226754312752
42
0.41421356237307944
0
LWPOLYLINE
5
172
100
AcDbEntity
8
0
100
AcDbPolyline
90
8
70
1
43
0.0
10
273.98175000000003
20
60.450226754312773
10
273.98175000000009
20
43.950226754312752
42
0.41421356237301177
10
274.48175000000003
20
43.450226754312773
10
280.48175000000015
20
43.450226754312745
42
0.41421356237300139
10
280.98175000000003
20
43.950226754312773
10
280.98175000000003
20
60.45022675431278
42
0.41421356237301699
10
280.48175000000009
20
60.950226754312808
10
274.48175000000003
20
60.95022675431278
42
0.41421356237313667
0
ARC
5
173
100
AcDbEntity
8
0
100
AcDbCircle
10
-179.19375000000002
20
22.850226754315919
30
0
40
0.49999999999997158
210
-0
220
0
230
-1
100
AcDbArc
50
0
51
90.000000000003254
0
LWPOLYLINE
5
174
100
AcDbEntity
8
0
100
AcDbPolyline
90
8
70
1
43
0.0
10
193.96250000000009
20
39.900226754315774
42
0.41421356237310281
10
193.46250000000003
20
40.40022675431576
10
180.46250000000001
20
40.400226754315796
42
0.41421356237310025
10
179.96250000000006
20
39.900226754315774
10
179.96250000000006
20
26.900226754315881
42
0.41421356237305601
10
180.46250000000001
20
26.400226754315863
10
193.46250000000003
20
26.400226754315852
42
0.4142135623730846
10
193.96250000000009
20
26.900226754315881
0
LWPOLYLINE
5
175
100
AcDbEntity
8
0
100
AcDbPolyline
90
8
70
1
43
0.0
10
70.925000000000026
20
78.500226754315804
42
0.41421356237311585
10
70.425000000000026
20
78.00022675431579
10
70.425000000000026
20
65.000226754315918
42
0.414213562373069
10
70.925000000000026
20
64.500226754315889
10
83.925000000000054
20
64.500226754315904
42
0.41421356237310542
10
84.425000000000026
20
65.000226754315889
10
84.425000000000026
20
78.00022675431579
42
0.4142135623730846
10
83.925000000000054
20
78.500226754315818
0
LWPOLYLINE
5
176
100
AcDbEntity
8
0
100
AcDbPolyline
90
8
70
1
43
0.0
10
266.18750000000006
20
64.500226754315847
10
279.1875
20
64.500226754315847
42
0.41421356237307944
10
279.68750000000006
20
65.000226754315861
10
279.68750000000006
20
78.000226754315761
42
0.414213562373069
10
279.1875
20
78.500226754315761
10
266.18750000000006
20
78.500226754315776
42
0.41421356237307422
10
265.6875
20
78.000226754315761
10
265.68750000000011
20
65.000226754315861
42
0.41421356237305862
0
LWPOLYLINE
5
177
100
AcDbEntity
8
0
100
AcDbPolyline
90
8
70
1
43
0.0
10
289.5
20
20.850226754315745
10
289.5
20
7.85022675431577
42
0.41421356237310281
10
290.00000000000006
20
7.3502267543157718
10
303.00000000000006
20
7.3502267543157682
42
0.41421356237317503
10
303.5
20
7.85022675431577
10
303.50000000000011
20
20.850226754315745
42
0.41421356237311324
10
303.00000000000006
20
21.350226754315766
10
290.00000000000006
20
21.350226754315763
42
0.41421356237307944
0
LWPOLYLINE
5
178
100
AcDbEntity
8
0
100
AcDbPolyline
90
8
70
1
43
0.0
10
303.00000000000006
20
26.400226754315849
42
0.41421356237317569
10
303.5
20
26.900226754315852
10
303.50000000000011
20
39.900226754315746
42
0.41421356237306384
10
303.00000000000006
20
40.400226754315717
10
290.00000000000006
20
40.40022675431576
42
0.41421356237307422
10
289.5
20
39.900226754315746
10
289.5
20
26.900226754315852
42
0.41421356237307683
10
290.00000000000006
20
26.400226754315828
0
LWPOLYLINE
5
179
100
AcDbEntity
8
0
100
AcDbPolyline
90
8
70
1
43
0.0
10
69.63754999999999
20
21.350226754315802
10
54.256250000000001
20
21.350226754315816
42
0.41421356237306123
10
53.756250000000009
20
20.850226754315813
10
53.756250000000001
20
7.8502267543158055
42
0.4142135623730846
10
54.256250000000001
20
7.3502267543157904
10
69.637550000000005
20
7.3502267543158029
42
0.41421356237311324
10
70.137549999999976
20
7.8502267543158055
10
70.137550000000033
20
20.850226754315795
42
0.41421356237308721
0
ARC
5
180
100
AcDbEntity
8
0
100
AcDbCircle
10
-185.23175000000006
20
22.850226754315948
30
0
40
0.49999999999994493
210
0
220
0
230
-1
100
AcDbArc
50
90.000000000003254
51
180
0
LWPOLYLINE
5
181
100
AcDbEntity
8
0
100
AcDbPolyline
90
8
70
1
43
0.0
10
22.012550000000012
20
7.3502267543158117
42
0.41421356237310802
10
22.512550000000008
20
7.8502267543158233
10
22.512550000000022
20
20.850226754315813
42
0.4142135623730846
10
22.012550000000005
20
21.35022675431582
10
6.6312499999999996
20
21.35022675431582
42
0.41421356237308854
10
6.1312500000000112
20
20.850226754315813
10
6.1312499999999837
20
7.8502267543158055
42
0.41421356237309631
10
6.6312499999999908
20
7.350226754315818
0
LWPOLYLINE
5
182
100
AcDbEntity
8
0
100
AcDbPolyline
90
8
70
1
43
0.0
10
90.161950000000033
20
22.850226754315891
42
0.41421356237309764
10
89.661949999999976
20
23.350226754315919
10
79.15575000000004
20
23.350226754315891
42
0.41421356237307161
10
78.655750000000054
20
22.850226754315891
10
78.655750000000054
20
7.8502267543158055
42
0.41421356237307355
10
79.155750000000026
20
7.3502267543157975
10
89.661949999999976
20
7.3502267543158002
42
0.41421356237307294
10
90.161950000000019
20
7.8502267543158055
0
LWPOLYLINE
5
183
100
AcDbEntity
8
0
100
AcDbPolyline
90
14
70
1
43
0.0
10
196.63125000000002
20
20.850226754315774
10
196.63125000000002
20
7.85022675431577
42
0.41421356237307422
10
197.13125000000005
20
7.3502267543157629
10
210.13125000000002
20
7.3502267543157966
42
0.41421356237322121
10
210.63125000000014
20
7.85022675431577
10
210.63124999999997
20
20.850226754315774
42
0.41421356237302998
10
210.13125000000002
20
21.350226754315816
10
204.78174999999999
20
21.35022675431577
10
204.78175000000007
20
22.850226754315877
42
0.41421356237307422
10
204.2817500000001
20
23.35022675431588
10
198.24375000000006
20
23.350226754315887
42
0.41421356237313928
10
197.74375000000006
20
22.850226754315877
10
197.74375000000018
20
21.350226754315777
10
197.13125000000002
20
21.350226754315777
42
0.41421356237313406
0
ARC
5
184
100
AcDbEntity
8
0
100
AcDbCircle
10
-179.19374999999991
20
7.8502267543156536
30
0
40
0.49999999999985945
210
0
220
-0
230
-1
100
AcDbArc
50
-90.000000000016286
51
0
0
CIRCLE
5
185
100
AcDbEntity
8
0
100
AcDbCircle
10
110.76249746000002
20
61.975229258614533
30
-7.103172217082232e-13
40
1.45
210
0
220
0
230
1
0
LINE
5
186
100
AcDbEntity
8
0
100
AcDbLine
10
185.23175000000009
20
7.3502267543157727
30
0
11
179.19375000000005
21
7.3502267543157895
31
0
0
ARC
5
187
100
AcDbEntity
8
0
100
AcDbCircle
10
-185.23175000000012
20
7.8502267543157425
30
0
40
0.49999999999997158
210
0
220
0
230
-1
100
AcDbArc
50
180
51
270.00000000000324
0
LINE
5
188
100
AcDbEntity
8
0
100
AcDbLine
10
185.73175000000003
20
22.850226754315877
30
0
11
185.73175000000009
21
7.8502267543157878
31
0
0
LINE
5
189
100
AcDbEntity
8
0
100
AcDbLine
10
179.19375000000005
20
23.350226754315887
30
0
11
185.23175000000009
21
23.350226754315862
31
0
0
LINE
5
190
100
AcDbEntity
8
0
100
AcDbLine
10
178.69375000000005
20
7.85022675431577
30
0
11
178.69375000000005
21
22.850226754315877
31
0
0
LWPOLYLINE
5
191
100
AcDbEntity
8
0
100
AcDbPolyline
90
8
70
1
43
0.0
10
242.37500000000011
20
21.350226754315766
10
245.85000000000002
20
21.350226754315749
42
-0.41421356237312362
10
246.35000000000002
20
20.850226754315763
10
246.35000000000005
20
7.85022675431577
42
-0.41421356237310347
10
245.85000000000002
20
7.3502267543157727
10
242.37500000000011
20
7.3502267543157895
42
-0.41421356237312101
10
241.87500000000003
20
7.85022675431577
10
241.875
20
20.850226754315763
42
-0.41421356237310281
0
ENDSEC
0
SECTION
2
OBJECTS
0
DICTIONARY
5
C
100
AcDbDictionary
3
ACAD_GROUP
350
D
3
ACAD_MLINESTYLE
350
17
0
DICTIONARY
5
D
100
AcDbDictionary
0
DICTIONARY
5
1A
330
C
100
AcDbDictionary
0
DICTIONARY
5
17
100
AcDbDictionary
0
ENDSEC
0
EOF
