0
SECTION
2
HEADER
9
$INSUNITS
70
4
9
$ACADVER
1
AC1014
9
$HANDSEED
5
FFFF
0
ENDSEC
0
SECTION
2
TABLES
0
TABLE
2
VPORT
5
8
100
AcDbSymbolTable
0
ENDTAB
0
TABLE
2
LTYPE
5
5
100
AcDbSymbolTable
0
LTYPE
5
14
100
AcDbSymbolTableRecord
100
AcDbLinetypeTableRecord
2
BYBLOCK
70
0
0
LTYPE
5
15
100
AcDbSymbolTableRecord
100
AcDbLinetypeTableRecord
2
BYLAYER
70
0
0
ENDTAB
0
TABLE
2
LAYER
5
2
100
AcDbSymbolTable
70
2
0
LAYER
5
50
100
AcDbSymbolTableRecord
100
AcDbLayerTableRecord
2
0
70
0
6
CONTINUOUS
0
ENDTAB
0
TABLE
2
STYLE
5
3
100
AcDbSymbolTable
70
1
0
STYLE
5
11
100
AcDbSymbolTableRecord
100
AcDbTextStyleTableRecord
2
STANDARD
70
0
0
ENDTAB
0
TABLE
2
VIEW
5
6
100
AcDbSymbolTable
70
0
0
ENDTAB
0
TABLE
2
UCS
5
7
100
AcDbSymbolTable
70
0
0
ENDTAB
0
TABLE
2
APPID
5
9
100
AcDbSymbolTable
70
2
0
APPID
5
12
100
AcDbSymbolTableRecord
100
AcDbRegAppTableRecord
2
ACAD
70
0
0
ENDTAB
0
TABLE
2
DIMSTYLE
5
A
100
AcDbSymbolTable
70
1
0
ENDTAB
0
TABLE
2
BLOCK_RECORD
5
1
100
AcDbSymbolTable
70
1
0
BLOCK_RECORD
5
1F
100
AcDbSymbolTableRecord
100
AcDbBlockTableRecord
2
*MODEL_SPACE
0
BLOCK_RECORD
5
1B
100
AcDbSymbolTableRecord
100
AcDbBlockTableRecord
2
*PAPER_SPACE
0
ENDTAB
0
ENDSEC
0
SECTION
2
BLOCKS
0
BLOCK
5
20
100
AcDbEntity
100
AcDbBlockBegin
2
*MODEL_SPACE
0
ENDBLK
5
21
100
AcDbEntity
100
AcDbBlockEnd
0
BLOCK
5
1C
100
AcDbEntity
100
AcDbBlockBegin
2
*PAPER_SPACE
0
ENDBLK
5
1D
100
AcDbEntity
100
AcDbBlockEnd
0
ENDSEC
0
SECTION
2
ENTITIES
0
LWPOLYLINE
5
100
100
AcDbEntity
8
0
100
AcDbPolyline
90
8
70
1
43
0.0
10
65.66249999999998
20
26.900226754315891
10
65.662499999999994
20
39.900226754315774
42
-0.41421356237309764
10
66.162500000000009
20
40.400226754315788
10
79.162500000000037
20
40.400226754315796
42
-0.41421356237307161
10
79.662500000000023
20
39.900226754315774
10
79.662500000000023
20
26.900226754315891
42
-0.41421356237308982
10
79.16249999999998
20
26.400226754315895
10
66.162500000000009
20
26.400226754315874
42
-0.41421356237307683
0
LWPOLYLINE
5
101
100
AcDbEntity
8
0
100
AcDbPolyline
90
8
70
1
43
0.0
10
228.08750000000003
20
59.450226754312837
10
241.08750000000009
20
59.450226754312823
42
-0.41421356237300661
10
241.58750000000001
20
58.950226754312823
10
241.58750000000003
20
45.950226754312801
42
-0.41421356237313667
10
241.08750000000003
20
45.450226754312801
10
228.08750000000003
20
45.450226754312773
42
-0.41421356237304818
10
227.58750000000006
20
45.950226754312808
10
227.58750000000009
20
58.950226754312823
42
-0.41421356237305862
0
LWPOLYLINE
5
102
100
AcDbEntity
8
0
100
AcDbPolyline
90
8
70
1
43
0.0
10
264.90000000000003
20
7.3502267543157576
10
251.90000000000003
20
7.3502267543157433
42
-0.41421356237310675
10
251.40000000000003
20
7.85022675431577
10
251.40000000000001
20
20.850226754315774
42
-0.41421356237309503
10
251.90000000000003
20
21.350226754315745
10
264.90000000000003
20
21.350226754315777
42
-0.41421356237311324
10
265.40000000000009
20
20.850226754315774
10
265.40000000000009
20
7.85022675431577
42
-0.41421356237307488
0
LWPOLYLINE
5
103
100
AcDbEntity
8
0
100
AcDbPolyline
90
8
70
1
43
0.0
10
22.012550000000005
20
21.35022675431582
42
-0.4142135623730846
10
22.512550000000022
20
20.850226754315813
10
22.512550000000012
20
7.8502267543158233
42
-0.41421356237310736
10
22.012550000000012
20
7.3502267543158109
10
6.6312499999999908
20
7.3502267543158171
42
-0.4142135623730957
10
6.1312499999999837
20
7.8502267543158055
10
6.1312500000000112
20
20.850226754315813
42
-0.41421356237308915
10
6.6312499999999996
20
21.35022675431582
0
LWPOLYLINE
5
104
100
AcDbEntity
8
0
100
AcDbPolyline
90
8
70
1
43
0.0
10
204.27500000000009
20
78.500226754315776
10
217.27500000000006
20
78.500226754315818
42
-0.41421356237305862
10
217.77500000000003
20
78.000226754315761
10
217.77500000000001
20
65.000226754315861
42
-0.41421356237305862
10
217.27500000000006
20
64.500226754315847
10
204.27500000000009
20
64.500226754315847
42
-0.41421356237307944
10
203.77500000000003
20
65.000226754315861
10
203.77500000000003
20
78.000226754315776
42
-0.41421356237323032
0
LWPOLYLINE
5
105
100
AcDbEntity
8
0
100
AcDbPolyline
90
24
70
1
43
0.0
10
259.48700000000008
20
83.250226754315904
10
259.48700000000002
20
82.050226754315773
42
-0.41421356237306384
10
258.98700000000014
20
81.550226754315744
10
252.98699999999999
20
81.550226754315759
42
-0.41421356237313667
10
252.48699999999999
20
82.050226754315773
10
252.48700000000011
20
83.250226754315861
42
0.41421356237306034
10
252.18700000000001
20
83.550226754315915
10
251.90000000000003
20
83.550226754315872
42
-0.41421356237312623
10
251.40000000000001
20
84.050226754315872
10
251.40000000000001
20
97.050226754315773
42
-0.41421356237314705
10
251.90000000000003
20
97.550226754315773
10
283.9500000000001
20
97.550226754315759
42
-0.41421356237301177
10
284.44999999999999
20
97.050226754315787
10
284.4500000000001
20
84.050226754315844
42
-0.41421356237303258
10
283.9500000000001
20
83.550226754315872
10
283.66300000000012
20
83.550226754315858
42
0.41421356237309503
10
283.36300000000006
20
83.250226754315847
10
283.363
20
82.050226754315773
42
-0.4142135623730222
10
282.86300000000006
20
81.550226754315744
10
276.86300000000006
20
81.550226754315787
42
-0.41421356237304302
10
276.363
20
82.050226754315773
10
276.36299999999994
20
83.250226754315946
42
0.41421356237295631
10
276.06299999999987
20
83.550226754315915
10
259.78700000000009
20
83.550226754315929
42
0.41421356237311241
0
LWPOLYLINE
5
106
100
AcDbEntity
8
0
100
AcDbPolyline
90
8
70
1
43
0.0
10
289.5
20
84.050226754315844
10
289.5
20
97.050226754315787
42
-0.41421356237310542
10
290.00000000000006
20
97.550226754315759
10
303.00000000000011
20
97.550226754315773
42
-0.4142135623730222
10
303.50000000000011
20
97.050226754315787
10
303.5
20
84.050226754315844
42
-0.4142135623730846
10
303.00000000000006
20
83.550226754315872
10
290.00000000000006
20
83.550226754315815
42
-0.4142135623730534
0
LWPOLYLINE
5
107
100
AcDbEntity
8
0
100
AcDbPolyline
90
8
70
1
43
0.0
10
45.825050000000012
20
21.35022675431582
42
-0.41421356237308982
10
46.325050000000012
20
20.850226754315813
10
46.325050000000005
20
7.8502267543158055
42
-0.41421356237306445
10
45.825049999999983
20
7.3502267543158029
10
30.443749999999991
20
7.3502267543158171
42
-0.41421356237308915
10
29.943750000000001
20
7.8502267543158055
10
29.943750000000009
20
20.850226754315813
42
-0.41421356237309764
10
30.443749999999994
20
21.350226754315816
0
LWPOLYLINE
5
108
100
AcDbEntity
8
0
100
AcDbPolyline
90
8
70
1
43
0.0
10
270.45000000000005
20
26.900226754315852
10
270.45000000000005
20
39.900226754315746
42
-0.41421356237310542
10
270.95000000000005
20
40.400226754315867
10
283.9500000000001
20
40.400226754315725
42
-0.41421356237310025
10
284.44999999999999
20
39.900226754315746
10
284.44999999999999
20
26.900226754315852
42
-0.41421356237307683
10
283.9500000000001
20
26.400226754315842
10
270.95000000000005
20
26.40022675431586
42
-0.41421356237312884
0
LWPOLYLINE
5
109
100
AcDbEntity
8
0
100
AcDbPolyline
90
8
70
1
43
0.0
10
64.875000000000014
20
64.500226754315904
10
51.875000000000028
20
64.500226754315889
42
-0.41421356237304818
10
51.375000000000028
20
65.000226754315918
10
51.374999999999943
20
78.000226754315818
42
-0.41421356237310542
10
51.875000000000028
20
78.500226754315904
10
64.875000000000014
20
78.500226754315818
42
-0.41421356237309503
10
65.375000000000014
20
78.000226754315818
10
65.375000000000028
20
65.000226754315918
42
-0.41421356237305862
0
LWPOLYLINE
5
110
100
AcDbEntity
8
0
100
AcDbPolyline
90
8
70
1
43
0.0
10
56.137500000000024
20
45.950226754312851
10
56.137500000000024
20
58.950226754312851
42
-0.41421356237311063
10
56.637500000000017
20
59.450226754312837
10
69.637500000000031
20
59.450226754312837
42
-0.41421356237311063
10
70.137500000000031
20
58.950226754312851
10
70.137500000000031
20
45.950226754312851
42
-0.4142135623730846
10
69.637500000000031
20
45.450226754312837
10
56.637500000000017
20
45.450226754312837
42
-0.4142135623730846
0
LWPOLYLINE
5
111
100
AcDbEntity
8
0
100
AcDbPolyline
90
8
70
1
43
0.0
10
220.94374999999999
20
21.350226754315784
10
236.32495000000009
20
21.350226754315756
42
-0.41421356237304041
10
236.82495000000011
20
20.850226754315774
10
236.82495000000003
20
7.85022675431577
42
-0.41421356237304885
10
236.32495000000009
20
7.3502267543157824
10
220.94374999999999
20
7.3502267543157309
42
-0.41421356237298901
10
220.44375000000005
20
7.85022675431577
10
220.44375000000005
20
20.850226754315774
42
-0.41421356237305079
0
LWPOLYLINE
5
112
100
AcDbEntity
8
0
100
AcDbPolyline
90
8
70
1
43
0.0
10
266.56875000000014
20
53.037226754312783
10
266.56875000000008
20
47.03722675431279
42
0.4142135623730534
10
267.06875000000014
20
46.537226754312755
10
283.56875000000014
20
46.537226754312755
42
0.41421356237304818
10
284.06875000000008
20
47.037226754312826
10
284.06875000000019
20
53.037226754312783
42
0.4142135623730534
10
283.56875000000014
20
53.537226754312819
10
267.06875000000014
20
53.537226754312741
42
0.41421356237312623
0
LWPOLYLINE
5
113
100
AcDbEntity
8
0
100
AcDbPolyline
90
8
70
1
43
0.0
10
28.062500000000004
20
26.400226754315899
10
41.062499999999993
20
26.400226754315916
42
0.41421356237309764
10
41.5625
20
26.900226754315891
10
41.562500000000014
20
39.90022675431581
42
0.41421356237306384
10
41.062500000000021
20
40.40022675431581
10
28.062500000000004
20
40.40022675431581
42
0.41421356237306639
10
27.5625
20
39.90022675431581
10
27.5625
20
26.900226754315906
42
0.41421356237309243
0
LWPOLYLINE
5
114
100
AcDbEntity
8
0
100
AcDbPolyline
90
8
70
1
43
0.0
10
131.55000000000004
20
83.550226754315872
10
118.55000000000004
20
83.550226754315901
42
-0.41421356237309503
10
118.05
20
84.050226754315872
10
118.05000000000005
20
97.050226754315787
42
-0.41421356237313667
10
118.55000000000004
20
97.550226754315773
10
131.55000000000004
20
97.550226754315744
42
-0.41421356237307422
10
132.05000000000007
20
97.050226754315787
10
132.05000000000001
20
84.050226754315872
42
-0.41421356237310542
0
LWPOLYLINE
5
115
100
AcDbEntity
8
0
100
AcDbPolyline
90
8
70
1
43
0.0
10
283.56875000000014
20
77.413226754312831
10
267.06875000000014
20
77.413226754312845
42
0.41421356237303258
10
266.56875000000008
20
76.913226754312831
10
266.56875000000008
20
70.913226754312831
42
0.41421356237309503
10
267.06875000000014
20
70.413226754312859
10
283.56875000000014
20
70.413226754312774
42
0.41421356237314705
10
284.06875000000019
20
70.913226754312831
10
284.06875000000019
20
76.913226754312831
42
0.414213562373069
0
CIRCLE
5
116
100
AcDbEntity
8
0
100
AcDbCircle
10
44.08750000000002
20
23.875127658616556
30
1.9102427972761404e-12
40
1.45
210
0
220
0
230
1
0
LWPOLYLINE
5
117
100
AcDbEntity
8
0
100
AcDbPolyline
90
8
70
1
43
0.0
10
6.1312499999999908
20
26.90022675431581
42
0.41421356237310675
10
6.6312499999999908
20
26.40022675431581
10
19.631250000000001
20
26.40022675431581
42
0.41421356237310542
10
20.131250000000001
20
26.900226754315824
10
20.131250000000019
20
39.90022675431581
42
0.41421356237309892
10
19.631250000000009
20
40.400226754315831
10
6.6312499999999996
20
40.400226754315831
42
0.41421356237308982
10
6.1312499999999881
20
39.90022675431581
0
LWPOLYLINE
5
118
100
AcDbEntity
8
0
100
AcDbPolyline
90
8
70
1
43
0.0
10
281.56875000000008
20
54.975226754312807
42
0.41421356237316265
10
282.06875000000014
20
55.475226754312821
10
282.06875000000014
20
68.4752267543128
42
0.41421356237314183
10
281.56875000000008
20
68.975226754312843
10
268.56875000000008
20
68.975226754312814
42
0.41421356237306384
10
268.06875000000002
20
68.475226754312814
10
268.06875000000008
20
55.475226754312821
42
0.41421356237300661
10
268.56875000000008
20
54.975226754312828
0
LWPOLYLINE
5
119
100
AcDbEntity
8
0
100
AcDbPolyline
90
8
70
1
43
0.0
10
260.13750000000005
20
45.450226754312759
42
0.41421356237311585
10
260.63750000000005
20
45.950226754312801
10
260.63750000000005
20
58.950226754312823
42
0.41421356237301699
10
260.1375000000001
20
59.450226754312823
10
247.13750000000005
20
59.450226754312837
42
0.41421356237307944
10
246.63750000000007
20
58.950226754312823
10
246.6375000000001
20
45.950226754312808
42
0.41421356237304818
10
247.13750000000005
20
45.450226754312801
0
LWPOLYLINE
5
120
100
AcDbEntity
8
0
100
AcDbPolyline
90
102
70
1
43
0.0
10
115.52181226889203
20
102.55022675391581
42
-0.41421356237309503
10
113.52181226889203
20
100.55022675391582
10
86.328187731112024
20
100.55022675391595
42
-0.41421356237308721
10
84.328187731111996
20
102.55022675391588
10
84.32818773111201
20
102.90022675383597
42
0.41421356237309503
10
82.328187731112024
20
104.90022675383592
10
74.500000000000028
20
104.90022675383585
42
0.41421356237310025
10
73.500000000000028
20
103.9002267538358
10
73.5
20
102.31845158867593
42
-0.41421356237308721
10
72.500000000000014
20
101.31845158867591
10
26.138935963200041
20
101.31845158867591
42
-0.41421356237308071
10
25.138935963200034
20
102.31845158867593
10
25.138935963200019
20
103.9002267538358
42
0.41421356237309631
10
24.138935963200016
20
104.9002267538358
10
11.037500000000025
20
104.90022675383582
42
0.41421356237309503
10
9.6875000000000089
20
103.5502267538358
10
9.6875000000000284
20
102.81845158867584
42
-0.41421356237310269
10
7.6875000000000355
20
100.8184515886758
10
3.0000000000000342
20
100.81845158867581
42
0.41421356237309986
10
5.440092820663267e-14
20
97.818451588675842
10
0
20
6.0820000000000185
42
0.41421356237309731
10
1.9999999999999929
20
4.0820000000000078
10
7.6875000000000062
20
4.0820000000000078
42
-0.41421356237309509
10
9.6875
20
2.0820000000000145
10
9.6875
20
1.3502267543158022
42
0.4142135623730902
10
11.037499999999998
20
0.00022675431582186437
10
24.138935963200005
20
0.00022675431580299055
42
0.41421356237310053
10
25.138935963200019
20
1.0002267543158183
10
25.138935963200012
20
2.582001919475907
42
-0.41421356237310153
10
26.138935963200005
20
3.5820019194759052
10
72.5
20
3.5820019194758812
42
-0.41421356237309132
10
73.5
20
2.5820019194759065
10
73.5
20
1.0002267543157832
42
0.4142135623730982
10
74.500000000000014
20
0.00022675431578647598
10
82.328187731111981
20
0.00022675431578023098
42
0.41421356237308554
10
84.328187731111996
20
2.000226754315797
10
84.328187731111996
20
2.3502267542356838
42
-0.41421356237309681
10
86.328187731111981
20
4.3502267542356963
10
113.52181226889201
20
4.3502267542358055
42
-0.41421356237309293
10
115.52181226889203
20
2.3502267542357909
10
115.52181226889202
20
2.0002267543157974
42
0.41421356237309609
10
117.52181226889201
20
0.00022675431576774097
10
130.26393596321
20
0.00022675431578356164
42
0.41421356237309592
10
131.26393596321006
20
1.000226754315783
10
131.26393596321006
20
2.5820019194758714
42
-0.41421356237312285
10
132.26393596321
20
3.5820019194758523
10
179.62500000000009
20
3.5820019194758821
42
-0.41421356237307344
10
180.62500000000003
20
2.582001919475871
10
180.625
20
1.0002267543157655
42
0.4142135623731053
10
181.625
20
0.00022675431579091687
10
190.82818773111001
20
0.00022675431575858163
42
0.41421356237308082
10
192.82818773111003
20
2.000226754315761
10
192.82818773111003
20
2.2960387437457714
42
-0.41421356237308021
10
194.82818773111006
20
4.2960387437457772
10
219.62181226889001
20
4.296038743745747
42
-0.41421356237307955
10
221.62181226889004
20
2.2960387437457537
10
221.62181226889001
20
2.0002267543157619
42
0.41421356237312279
10
223.62181226889007
20
0.00022675431580188032
10
242.38893596321017
20
0.00022675431575580607
42
0.41421356237310936
10
243.38893596321003
20
1.0002267543157477
10
243.38893596321014
20
2.5820019194758537
42
-0.41421356237305762
10
244.38893596321012
20
3.5820019194758523
10
286.75000000000006
20
3.5820019194758643
42
-0.41421356237307866
10
287.75
20
2.5820019194758355
10
287.75
20
1.0002267543157477
42
0.41421356237311618
10
288.75000000000006
20
0.00022675431576663077
10
292.7207773651491
20
0.00022675431567059645
42
0.3962553595132694
10
294.06820852768908
20
1.2669845641929434
42
-0.39625535951328306
10
297.06250000000006
20
4.0820019194758572
10
305.25000000000006
20
4.0820019194757418
42
0.41421356237308093
10
307.25000000000011
20
6.0820019194757435
10
307.25
20
97.818451588675771
42
0.41421356237310375
10
304.25000000000006
20
100.81845158867573
10
297.06250000000006
20
100.81845158867591
42
-0.39625535951326546
10
294.06820852768919
20
103.63346894395869
42
0.39625535951324825
10
292.7207773651491
20
104.90022675383605
10
285.45000000000016
20
104.90022675383601
42
0.4142135623730378
10
284.44999999999987
20
103.90022675383577
10
284.44999999999999
20
102.31845158867586
42
-0.41421356237307422
10
283.45000000000027
20
101.31845158867584
10
244.38893596321014
20
101.31845158867593
42
-0.41421356237305862
10
243.38893596321
20
102.31845158867586
10
243.38893596321012
20
103.90022675383577
42
0.4142135623730846
10
242.38893596321017
20
104.90022675383582
10
223.62181226889007
20
104.90022675383574
42
0.41421356237312101
10
221.62181226889007
20
102.90022675383585
10
221.62181226889004
20
102.60441476440589
42
-0.41421356237307944
10
219.62181226889001
20
100.60441476440587
10
194.82818773111006
20
100.60441476440587
42
-0.41421356237311324
10
192.82818773111003
20
102.60441476440589
10
192.82818773111003
20
102.90022675383588
42
0.41421356237310542
10
190.82818773111001
20
104.90022675383592
10
181.625
20
104.9002267538358
42
0.41421356237312101
10
180.625
20
103.90022675383577
10
180.625
20
102.31845158867588
42
-0.41421356237311585
10
179.62500000000003
20
101.31845158867591
10
132.26393596321006
20
101.31845158867591
42
-0.41421356237308982
10
131.26393596321006
20
102.31845158867588
10
131.26393596321006
20
103.90022675383577
42
0.41421356237313145
10
130.26393596321009
20
104.9002267538358
10
117.52181226889205
20
104.90022675383577
42
0.41421356237308204
10
115.52181226889216
20
102.90022675383597
0
CIRCLE
5
121
100
AcDbEntity
8
0
100
AcDbCircle
10
153.59324999999995
20
14.350310574316509
30
2.5476148968195385e-12
40
1.45
210
0
220
0
230
1
0
LWPOLYLINE
5
122
100
AcDbEntity
8
0
100
AcDbPolyline
90
8
70
1
43
0.0
10
150.59999999999906
20
97.550226754315773
42
-0.41421356237314705
10
151.09999999999906
20
97.050226754315787
10
151.09999999999903
20
84.050226754315872
42
-0.41421356237316787
10
150.59999999999903
20
83.550226754315872
10
137.60000000000002
20
83.550226754315872
42
-0.4142135623730846
10
137.10000000000002
20
84.050226754315872
10
137.10000000000005
20
97.050226754315787
42
-0.41421356237313667
10
137.60000000000005
20
97.550226754315773
0
CIRCLE
5
123
100
AcDbEntity
8
0
100
AcDbCircle
10
234.54305000000002
20
42.893476754316495
30
6.3548125095458374e-13
40
1.45
210
0
220
0
230
1
0
CIRCLE
5
124
100
AcDbEntity
8
0
100
AcDbCircle
10
286.97499746000005
20
23.875178458616482
30
1.9102427972761404e-12
40
1.45
210
0
220
0
230
1
0
CIRCLE
5
125
100
AcDbEntity
8
0
100
AcDbCircle
10
27.41845028000002
20
71.500277554316554
30
-1.2766350476756114e-12
40
1.45
210
0
220
0
230
1
0
CIRCLE
5
126
100
AcDbEntity
8
0
100
AcDbCircle
10
110.76249746000002
20
61.975229258614533
30
-7.103172217082232e-13
40
1.45
210
0
220
0
230
1
0
LWPOLYLINE
5
127
100
AcDbEntity
8
0
100
AcDbPolyline
90
8
70
1
43
0.0
10
69.637550000000005
20
7.3502267543158073
10
54.256250000000001
20
7.3502267543157904
42
-0.41421356237308399
10
53.756250000000001
20
7.8502267543158055
10
53.756250000000009
20
20.850226754315813
42
-0.41421356237306123
10
54.256250000000001
20
21.350226754315816
10
69.63754999999999
20
21.350226754315798
42
-0.41421356237308721
10
70.137550000000019
20
20.850226754315795
10
70.137549999999976
20
7.8502267543158055
42
-0.41421356237311197
0
LWPOLYLINE
5
128
100
AcDbEntity
8
0
100
AcDbPolyline
90
8
70
1
43
0.0
10
289.5
20
45.950226754312801
10
289.5
20
58.950226754312816
42
-0.41421356237309503
10
290.00000000000006
20
59.450226754312794
10
303.00000000000006
20
59.450226754312816
42
-0.41421356237304818
10
303.5
20
58.950226754312816
10
303.5
20
45.950226754312801
42
-0.41421356237316265
10
303.00000000000006
20
45.450226754312808
10
290.00000000000006
20
45.450226754312801
42
-0.414213562373069
0
LWPOLYLINE
5
129
100
AcDbEntity
8
0
100
AcDbPolyline
90
8
70
1
43
0.0
10
212.51250000000005
20
40.400226754315781
42
-0.414213562373069
10
213.0125000000001
20
39.900226754315774
10
213.0125000000001
20
26.900226754315852
42
-0.41421356237312362
10
212.51249999999999
20
26.400226754315899
10
199.51250000000002
20
26.400226754315874
42
-0.41421356237301177
10
199.01250000000007
20
26.900226754315881
10
199.01250000000007
20
39.900226754315774
42
-0.41421356237310025
10
199.51250000000002
20
40.400226754315796
0
LWPOLYLINE
5
130
100
AcDbEntity
8
0
100
AcDbPolyline
90
8
70
1
43
0.0
10
94.237499999999997
20
45.950226754312837
10
94.237499999999997
20
58.950226754312851
42
-0.41421356237304818
10
94.737499999999983
20
59.45022675431283
10
107.7375
20
59.450226754312816
42
-0.41421356237308982
10
108.23750000000004
20
58.950226754312851
10
108.23750000000004
20
45.950226754312837
42
-0.41421356237310542
10
107.73750000000005
20
45.45022675431283
10
94.737499999999983
20
45.450226754312837
42
-0.4142135623730378
0
LWPOLYLINE
5
131
100
AcDbEntity
8
0
100
AcDbPolyline
90
8
70
1
43
0.0
10
255.87500000000009
20
65.000226754315861
42
-0.41421356237324591
10
255.375
20
64.500226754315875
10
242.37500000000011
20
64.500226754315889
42
-0.41421356237309503
10
241.875
20
65.000226754315861
10
241.87499999999997
20
78.000226754315761
42
-0.41421356237311585
10
242.37500000000011
20
78.500226754315733
10
255.375
20
78.500226754315761
42
-0.41421356237316787
10
255.87500000000009
20
78.000226754315761
0
LWPOLYLINE
5
132
100
AcDbEntity
8
0
100
AcDbPolyline
90
8
70
1
43
0.0
10
109.02500000000003
20
78.500226754315776
10
122.02500000000002
20
78.500226754315776
42
-0.41421356237311585
10
122.52500000000001
20
78.00022675431579
10
122.52500000000005
20
65.000226754315889
42
-0.41421356237304302
10
122.02500000000001
20
64.500226754315889
10
109.02500000000003
20
64.500226754315889
42
-0.41421356237312101
10
108.52500000000005
20
65.000226754315889
10
108.52500000000003
20
78.00022675431579
42
-0.41421356237304818
0
LWPOLYLINE
5
133
100
AcDbEntity
8
0
100
AcDbPolyline
90
8
70
1
43
0.0
10
165.38750000000005
20
58.950226754312823
10
165.38749999999999
20
45.950226754312823
42
-0.41421356237307422
10
164.8875000000001
20
45.45022675431283
10
151.88749999999902
20
45.450226754312823
42
-0.41421356237313667
10
151.38749999999902
20
45.950226754312823
10
151.38749999999902
20
58.950226754312823
42
-0.41421356237308982
10
151.88749999999902
20
59.450226754312823
10
164.8875000000001
20
59.450226754312851
42
-0.41421356237306384
0
LWPOLYLINE
5
134
100
AcDbEntity
8
0
100
AcDbPolyline
90
8
70
1
43
0.0
10
174.91250000000005
20
39.900226754315774
10
174.91250000000008
20
26.900226754315881
42
-0.41421356237311846
10
174.41250000000008
20
26.400226754315913
10
161.412499999999
20
26.400226754315874
42
-0.41421356237307422
10
160.91249999999903
20
26.900226754315881
10
160.91249999999903
20
39.900226754315774
42
-0.41421356237314183
10
161.41249999999903
20
40.400226754315781
10
174.41250000000008
20
40.400226754315781
42
-0.41421356237307161
0
LWPOLYLINE
5
135
100
AcDbEntity
8
0
100
AcDbPolyline
90
8
70
1
43
0.0
10
208.53750000000005
20
45.950226754312808
10
208.53750000000005
20
58.950226754312823
42
-0.4142135623730534
10
209.03750000000002
20
59.450226754312858
10
222.03749999999999
20
59.450226754312794
42
-0.41421356237315748
10
222.53749999999999
20
58.950226754312823
10
222.53749999999997
20
45.950226754312808
42
-0.41421356237298057
10
222.03749999999999
20
45.450226754312801
10
209.03750000000002
20
45.450226754312794
42
-0.4142135623730378
0
LWPOLYLINE
5
136
100
AcDbEntity
8
0
100
AcDbPolyline
90
8
70
1
43
0.0
10
113.00000000000004
20
97.050226754315787
10
113.00000000000004
20
84.050226754315872
42
-0.41421356237310542
10
112.50000000000007
20
83.550226754315872
10
99.500000000000014
20
83.550226754315915
42
-0.41421356237309503
10
99.000000000000057
20
84.050226754315872
10
99.000000000000085
20
97.050226754315787
42
-0.41421356237307422
10
99.500000000000043
20
97.550226754315773
10
112.50000000000007
20
97.550226754315787
42
-0.41421356237307422
0
LWPOLYLINE
5
137
100
AcDbEntity
8
0
100
AcDbPolyline
90
8
70
1
43
0.0
10
55.850000000000016
20
97.050226754315801
10
55.850000000000016
20
84.050226754315958
42
-0.41421356237305862
10
55.350000000000023
20
83.550226754315958
10
42.350000000000009
20
83.550226754315915
42
-0.41421356237312101
10
41.850000000000016
20
84.050226754315972
10
41.850000000000023
20
97.050226754315801
42
-0.41421356237310542
10
42.350000000000009
20
97.550226754315773
10
55.350000000000023
20
97.550226754315759
42
-0.41421356237305862
0
LWPOLYLINE
5
138
100
AcDbEntity
8
0
100
AcDbPolyline
90
8
70
1
43
0.0
10
222.82500000000005
20
65.000226754315861
10
222.82500000000005
20
78.000226754315761
42
-0.41421356237307944
10
223.3250000000001
20
78.500226754315776
10
236.32500000000007
20
78.500226754315776
42
-0.41421356237301177
10
236.82500000000002
20
78.000226754315761
10
236.82499999999999
20
65.000226754315861
42
-0.41421356237310025
10
236.32500000000007
20
64.500226754315875
10
223.3250000000001
20
64.500226754315847
42
-0.41421356237307944
0
LWPOLYLINE
5
139
100
AcDbEntity
8
0
100
AcDbPolyline
90
8
70
1
43
0.0
10
6.6312500000000263
20
45.450226754312851
42
-0.41421356237308915
10
6.1312500000000183
20
45.950226754312851
10
6.1312500000000378
20
58.950226754312851
42
-0.41421356237312168
10
6.6312500000000192
20
59.450226754312858
10
24.39375000000004
20
59.450226754312865
42
-0.41421356237310542
10
24.893750000000058
20
58.950226754312851
10
24.893750000000061
20
45.950226754312844
42
-0.41421356237308204
10
24.39375000000004
20
45.450226754312851
0
LWPOLYLINE
5
140
100
AcDbEntity
8
0
100
AcDbPolyline
90
8
70
1
43
0.0
10
61.40000000000002
20
97.550226754315773
10
74.400000000000034
20
97.550226754315773
42
-0.4142135623730378
10
74.900000000000034
20
97.050226754315787
10
74.900000000000034
20
84.050226754315943
42
-0.41421356237311585
10
74.400000000000034
20
83.550226754315915
10
61.40000000000002
20
83.550226754315915
42
-0.41421356237312101
10
60.900000000000027
20
84.050226754315972
10
60.900000000000041
20
97.050226754315787
42
-0.41421356237307944
0
LWPOLYLINE
5
141
100
AcDbEntity
8
0
100
AcDbPolyline
90
8
70
1
43
0.0
10
244.75625000000002
20
26.40022675431586
42
-0.41421356237312884
10
244.25624999999999
20
26.900226754315852
10
244.25624999999999
20
39.900226754315746
42
-0.41421356237313928
10
244.75625000000002
20
40.40022675431576
10
257.75625000000002
20
40.40022675431576
42
-0.41421356237307944
10
258.25625000000008
20
39.900226754315746
10
258.25624999999997
20
26.900226754315852
42
-0.41421356237305601
10
257.75625000000002
20
26.400226754315828
0
LWPOLYLINE
5
142
100
AcDbEntity
8
0
100
AcDbPolyline
90
8
70
1
43
0.0
10
213.80000000000001
20
97.550226754315773
10
226.80000000000007
20
97.550226754315773
42
-0.41421356237307422
10
227.30000000000004
20
97.050226754315773
10
227.30000000000004
20
84.050226754315872
42
-0.41421356237310542
10
226.80000000000007
20
83.550226754315872
10
213.80000000000001
20
83.550226754315872
42
-0.41421356237312623
10
213.3000000000001
20
84.050226754315872
10
213.30000000000013
20
97.050226754315773
42
-0.41421356237307422
0
LWPOLYLINE
5
143
100
AcDbEntity
8
0
100
AcDbPolyline
90
8
70
1
43
0.0
10
232.84999999999997
20
83.550226754315872
42
-0.41421356237310542
10
232.34999999999999
20
84.050226754315872
10
232.34999999999999
20
97.050226754315773
42
-0.41421356237314705
10
232.84999999999999
20
97.550226754315773
10
245.85000000000002
20
97.550226754315759
42
-0.41421356237303258
10
246.35000000000002
20
97.050226754315787
10
246.35000000000005
20
84.050226754315844
42
-0.41421356237310542
10
245.85000000000002
20
83.550226754315872
0
LWPOLYLINE
5
144
100
AcDbEntity
8
0
100
AcDbPolyline
90
8
70
1
43
0.0
10
218.56250000000003
20
40.400226754315867
10
231.5625
20
40.400226754315725
42
-0.41421356237309503
10
232.06250000000011
20
39.900226754315746
10
232.06250000000011
20
26.900226754315852
42
-0.41421356237311585
10
231.56250000000011
20
26.400226754315828
10
218.56250000000003
20
26.400226754315842
42
-0.41421356237307161
10
218.06250000000009
20
26.900226754315881
10
218.06249999999991
20
39.900226754315746
42
-0.41421356237313667
0
LWPOLYLINE
5
145
100
AcDbEntity
8
0
100
AcDbPolyline
90
8
70
1
43
0.0
10
198.22500000000002
20
64.500226754315875
10
185.22500000000002
20
64.500226754315861
42
-0.41421356237301177
10
184.72499999999999
20
65.000226754315875
10
184.72500000000002
20
78.000226754315776
42
-0.41421356237302737
10
185.22500000000002
20
78.50022675431579
10
198.22500000000005
20
78.500226754315804
42
-0.41421356237304818
10
198.72500000000002
20
78.000226754315776
10
198.72500000000002
20
65.000226754315875
42
-0.41421356237314183
0
LWPOLYLINE
5
146
100
AcDbEntity
8
0
100
AcDbPolyline
90
8
70
1
43
0.0
10
303.50000000000011
20
20.850226754315745
10
303.50000000000006
20
7.85022675431577
42
-0.4142135623731607
10
303.00000000000006
20
7.3502267543157682
10
290.00000000000006
20
7.3502267543157549
42
-0.41421356237307877
10
289.5
20
7.85022675431577
10
289.5
20
20.850226754315745
42
-0.41421356237307944
10
290.00000000000006
20
21.350226754315766
10
303.00000000000006
20
21.350226754315781
42
-0.41421356237311063
0
LWPOLYLINE
5
147
100
AcDbEntity
8
0
100
AcDbPolyline
90
8
70
1
43
0.0
10
156.64999999999904
20
83.550226754315872
42
-0.41421356237309503
10
156.14999999999901
20
84.050226754315872
10
156.14999999999907
20
97.050226754315787
42
-0.41421356237316787
10
156.64999999999904
20
97.550226754315759
10
169.65000000000003
20
97.550226754315787
42
-0.41421356237301177
10
170.15000000000003
20
97.050226754315787
10
170.15000000000001
20
84.050226754315872
42
-0.41421356237310542
10
169.65000000000003
20
83.550226754315872
0
LWPOLYLINE
5
148
100
AcDbEntity
8
0
100
AcDbPolyline
90
8
70
1
43
0.0
10
8.5125000000000224
20
78.000226754315818
42
-0.41421356237309959
10
9.0125000000000099
20
78.500226754315818
10
22.012499999999999
20
78.500226754315818
42
-0.414213562373069
10
22.51250000000001
20
78.000226754315818
10
22.512500000000006
20
65.000226754315918
42
-0.414213562373069
10
22.012499999999999
20
64.500226754315918
10
9.0125000000000099
20
64.500226754315904
42
-0.41421356237308204
10
8.5124999999999993
20
65.000226754315918
0
LWPOLYLINE
5
149
100
AcDbEntity
8
0
100
AcDbPolyline
90
8
70
1
43
0.0
10
207.75000000000009
20
97.550226754315773
42
-0.4142135623731783
10
208.25000000000003
20
97.050226754315773
10
208.25000000000003
20
84.050226754315872
42
-0.41421356237316787
10
207.75000000000009
20
83.550226754315872
10
194.75
20
83.550226754315872
42
-0.41421356237310542
10
194.25000000000011
20
84.050226754315872
10
194.25000000000011
20
97.050226754315787
42
-0.41421356237310542
10
194.75
20
97.550226754315773
0
LWPOLYLINE
5
150
100
AcDbEntity
8
0
100
AcDbPolyline
90
8
70
1
43
0.0
10
160.62499999999901
20
78.000226754315776
10
160.62499999999892
20
65.000226754315875
42
-0.41421356237311063
10
160.12499999999903
20
64.500226754315861
10
147.12499999999903
20
64.500226754315889
42
-0.41421356237307422
10
146.62499999999906
20
65.000226754315889
10
146.62499999999906
20
78.000226754315776
42
-0.414213562373069
10
147.12499999999903
20
78.500226754315776
10
160.12499999999903
20
78.500226754315761
42
-0.41421356237297535
0
LWPOLYLINE
5
151
100
AcDbEntity
8
0
100
AcDbPolyline
90
8
70
1
43
0.0
10
179.19375000000005
20
7.350226754315794
42
-0.41421356237316009
10
178.69375000000005
20
7.85022675431577
10
178.69375000000005
20
22.850226754315877
42
-0.41421356237314444
10
179.19375000000005
20
23.350226754315891
10
185.23175000000009
20
23.350226754315891
42
-0.41421356237310025
10
185.73175000000003
20
22.850226754315877
10
185.73175000000009
20
7.8502267543157886
42
-0.41421356237313472
10
185.23175000000009
20
7.3502267543157718
0
LWPOLYLINE
5
152
100
AcDbEntity
8
0
100
AcDbPolyline
90
8
70
1
43
0.0
10
270.95000000000005
20
21.350226754315781
10
283.9500000000001
20
21.350226754315742
42
-0.41421356237313406
10
284.45000000000022
20
20.850226754315774
10
284.44999999999999
20
7.85022675431577
42
-0.41421356237310347
10
283.9500000000001
20
7.3502267543157673
10
270.95000000000005
20
7.3502267543157433
42
-0.41421356237310675
10
270.45000000000005
20
7.85022675431577
10
270.45000000000005
20
20.850226754315774
42
-0.41421356237313406
0
LWPOLYLINE
5
153
100
AcDbEntity
8
0
100
AcDbPolyline
90
8
70
1
43
0.0
10
189.48750000000007
20
45.950226754312808
10
189.48750000000007
20
58.950226754312823
42
-0.41421356237300661
10
189.98750000000001
20
59.450226754312823
10
202.9875000000001
20
59.450226754312794
42
-0.41421356237319906
10
203.48750000000001
20
58.950226754312823
10
203.48750000000001
20
45.950226754312808
42
-0.41421356237314183
10
202.98750000000001
20
45.450226754312808
10
189.98750000000001
20
45.450226754312801
42
-0.41421356237301177
0
LWPOLYLINE
5
154
100
AcDbEntity
8
0
100
AcDbPolyline
90
8
70
1
43
0.0
10
193.96250000000009
20
39.900226754315774
10
193.96250000000009
20
26.900226754315881
42
-0.41421356237310542
10
193.46250000000001
20
26.400226754315852
10
180.46250000000001
20
26.400226754315874
42
-0.41421356237301177
10
179.96250000000006
20
26.900226754315881
10
179.96250000000006
20
39.900226754315774
42
-0.41421356237310025
10
180.46250000000001
20
40.400226754315796
10
193.46250000000003
20
40.40022675431576
42
-0.41421356237310281
0
LWPOLYLINE
5
155
100
AcDbEntity
8
0
100
AcDbPolyline
90
8
70
1
43
0.0
10
23.30000000000004
20
83.550226754315915
42
-0.41421356237302737
10
22.800000000000033
20
84.050226754315943
10
22.800000000000054
20
97.050226754315787
42
-0.41421356237311324
10
23.30000000000004
20
97.550226754315887
10
36.300000000000011
20
97.550226754315759
42
-0.41421356237305601
10
36.800000000000011
20
97.050226754315801
10
36.799999999999997
20
84.050226754315943
42
-0.41421356237305079
10
36.300000000000011
20
83.550226754315915
0
LWPOLYLINE
5
156
100
AcDbEntity
8
0
100
AcDbPolyline
90
8
70
1
43
0.0
10
75.187500000000014
20
45.950226754312837
10
75.187500000000028
20
58.950226754312851
42
-0.41421356237308982
10
75.687500000000014
20
59.450226754312823
10
88.687500000000057
20
59.45022675431283
42
-0.414213562373069
10
89.187500000000043
20
58.950226754312851
10
89.187500000000014
20
45.950226754312837
42
-0.41421356237308982
10
88.687500000000043
20
45.450226754312837
10
75.687500000000014
20
45.450226754312837
42
-0.4142135623730846
0
LWPOLYLINE
5
157
100
AcDbEntity
8
0
100
AcDbPolyline
90
8
70
1
43
0.0
10
46.325000000000017
20
78.000226754315818
10
46.325000000000031
20
65.000226754315918
42
-0.41421356237305862
10
45.825000000000024
20
64.500226754315904
10
32.825000000000024
20
64.500226754315904
42
-0.41421356237307944
10
32.325000000000017
20
65.000226754315918
10
32.325000000000031
20
78.000226754315818
42
-0.41421356237310025
10
32.825000000000024
20
78.500226754315818
10
45.825000000000024
20
78.500226754315818
42
-0.41421356237309503
0
LWPOLYLINE
5
158
100
AcDbEntity
8
0
100
AcDbPolyline
90
8
70
1
43
0.0
10
89.975000000000023
20
64.500226754315889
42
-0.41421356237314183
10
89.475000000000037
20
65.000226754315889
10
89.475000000000023
20
78.00022675431579
42
-0.41421356237304818
10
89.975000000000023
20
78.500226754315776
10
102.97499999999999
20
78.50022675431579
42
-0.41421356237308982
10
103.47500000000004
20
78.00022675431579
10
103.47500000000004
20
65.000226754315889
42
-0.41421356237311585
10
102.97500000000002
20
64.500226754315889
0
LWPOLYLINE
5
159
100
AcDbEntity
8
0
100
AcDbPolyline
90
8
70
1
43
0.0
10
117.26250000000002
20
40.400226754315796
42
-0.41421356237300916
10
117.76250000000005
20
39.900226754315774
10
117.76250000000005
20
26.900226754315891
42
-0.4142135623730378
10
117.26250000000002
20
26.400226754315895
10
104.26250000000003
20
26.400226754315899
42
-0.41421356237308721
10
103.76250000000002
20
26.900226754315891
10
103.76250000000002
20
39.900226754315774
42
-0.41421356237309503
10
104.26250000000003
20
40.400226754315781
0
LWPOLYLINE
5
160
100
AcDbEntity
8
0
100
AcDbPolyline
90
8
70
1
43
0.0
10
303.00000000000006
20
26.400226754315852
10
290.00000000000006
20
26.40022675431581
42
-0.4142135623730534
10
289.5
20
26.900226754315852
10
289.5
20
39.900226754315746
42
-0.41421356237307422
10
290.00000000000006
20
40.40022675431576
10
303.00000000000006
20
40.40022675431571
42
-0.41421356237306384
10
303.50000000000011
20
39.900226754315746
10
303.5
20
26.900226754315852
42
-0.41421356237317047
0
LWPOLYLINE
5
161
100
AcDbEntity
8
0
100
AcDbPolyline
90
8
70
1
43
0.0
10
70.925000000000026
20
78.500226754315818
10
83.925000000000054
20
78.500226754315818
42
-0.4142135623730846
10
84.425000000000026
20
78.00022675431579
10
84.425000000000026
20
65.000226754315889
42
-0.4142135623730846
10
83.925000000000054
20
64.500226754315904
10
70.925000000000026
20
64.500226754315889
42
-0.414213562373069
10
70.425000000000026
20
65.000226754315918
10
70.425000000000026
20
78.00022675431579
42
-0.41421356237311585
0
LWPOLYLINE
5
162
100
AcDbEntity
8
0
100
AcDbPolyline
90
8
70
1
43
0.0
10
150.59995000000001
20
21.350226754315781
42
-0.41421356237309503
10
151.09995000000001
20
20.850226754315774
10
151.09995000000004
20
7.8502267543158055
42
-0.41421356237311974
10
150.59994999999995
20
7.3502267543157984
10
125.69375000000001
20
7.3502267543157984
42
-0.41421356237310608
10
125.19374999999999
20
7.8502267543157878
10
125.19375000000004
20
20.850226754315795
42
-0.41421356237308721
10
125.69375000000002
20
21.350226754315802
0
LWPOLYLINE
5
163
100
AcDbEntity
8
0
100
AcDbPolyline
90
8
70
1
43
0.0
10
60.112500000000026
20
40.400226754315796
42
-0.41421356237310802
10
60.612500000000018
20
39.90022675431581
10
60.612500000000004
20
26.900226754315891
42
-0.41421356237307944
10
60.112500000000004
20
26.40022675431592
10
47.112499999999997
20
26.400226754315881
42
-0.41421356237312623
10
46.61249999999999
20
26.900226754315906
10
46.612500000000026
20
39.90022675431581
42
-0.41421356237307944
10
47.112499999999997
20
40.40022675431581
0
LWPOLYLINE
5
164
100
AcDbEntity
8
0
100
AcDbPolyline
90
8
70
1
43
0.0
10
170.43750000000003
20
58.950226754312823
42
-0.41421356237313667
10
170.93750000000003
20
59.450226754312823
10
183.93750000000009
20
59.450226754312865
42
-0.41421356237311585
10
184.43750000000009
20
58.950226754312823
10
184.43750000000006
20
45.950226754312823
42
-0.41421356237319906
10
183.93750000000009
20
45.45022675431283
10
170.9375
20
45.450226754312823
42
-0.41421356237307422
10
170.43750000000003
20
45.950226754312823
0
LWPOLYLINE
5
165
100
AcDbEntity
8
0
100
AcDbPolyline
90
8
70
1
43
0.0
10
79.950000000000031
20
97.050226754315787
42
-0.41421356237318868
10
80.450000000000031
20
97.550226754315773
10
93.450000000000003
20
97.550226754315759
42
-0.41421356237298057
10
93.950000000000031
20
97.050226754315787
10
93.950000000000017
20
84.050226754315872
42
-0.4142135623730846
10
93.450000000000003
20
83.550226754315872
10
80.450000000000031
20
83.550226754315915
42
-0.41421356237304302
10
79.950000000000031
20
84.050226754315943
0
LWPOLYLINE
5
166
100
AcDbEntity
8
0
100
AcDbPolyline
90
8
70
1
43
0.0
10
303.50000000000006
20
65.000226754315847
42
-0.41421356237318868
10
303.00000000000006
20
64.500226754315861
10
290.00000000000006
20
64.500226754315847
42
-0.414213562373069
10
289.5
20
65.000226754315847
10
289.5
20
78.000226754315747
42
-0.41421356237310025
10
290.00000000000006
20
78.500226754315733
10
303.00000000000006
20
78.500226754315776
42
-0.41421356237311063
10
303.50000000000011
20
78.000226754315747
0
LWPOLYLINE
5
167
100
AcDbEntity
8
0
100
AcDbPolyline
90
8
70
1
43
0.0
10
3.7500000000000275
20
97.050226754315801
42
-0.414213562373136
10
4.2500000000000338
20
97.550226754315887
10
17.250000000000018
20
97.550226754315815
42
-0.41421356237304169
10
17.750000000000036
20
97.050226754315801
10
17.750000000000007
20
84.050226754315943
42
-0.4142135623730534
10
17.250000000000018
20
83.550226754315958
10
4.2500000000000249
20
83.550226754315972
42
-0.41421356237306867
10
3.7500000000000213
20
84.050226754315943
0
LWPOLYLINE
5
168
100
AcDbEntity
8
0
100
AcDbPolyline
90
8
70
1
43
0.0
10
37.087500000000013
20
45.950226754312851
10
37.087500000000034
20
58.950226754312851
42
-0.4142135623730846
10
37.587500000000027
20
59.450226754312823
10
50.587500000000027
20
59.450226754312858
42
-0.414213562373069
10
51.08750000000002
20
58.950226754312851
10
51.08750000000002
20
45.950226754312851
42
-0.41421356237309503
10
50.587500000000027
20
45.450226754312851
10
37.587500000000027
20
45.450226754312837
42
-0.41421356237312362
0
LWPOLYLINE
5
169
100
AcDbEntity
8
0
100
AcDbPolyline
90
14
70
1
43
0.0
10
210.13125000000002
20
7.3502267543157798
10
197.13125000000005
20
7.3502267543157638
42
-0.41421356237307355
10
196.63125000000002
20
7.85022675431577
10
196.63125000000002
20
20.850226754315774
42
-0.41421356237314183
10
197.13125000000002
20
21.350226754315777
10
197.74375000000018
20
21.350226754315777
10
197.74375000000006
20
22.850226754315877
42
-0.41421356237314444
10
198.24375000000006
20
23.350226754315891
10
204.2817500000001
20
23.35022675431588
42
-0.41421356237307161
10
204.78175000000007
20
22.850226754315877
10
204.78174999999999
20
21.35022675431577
10
210.13125000000002
20
21.350226754315813
42
-0.41421356237305079
10
210.63124999999999
20
20.850226754315774
10
210.63125000000014
20
7.85022675431577
42
-0.41421356237319257
0
LWPOLYLINE
5
170
100
AcDbEntity
8
0
100
AcDbPolyline
90
8
70
1
43
0.0
10
85.21250000000002
20
40.400226754315796
10
98.212500000000006
20
40.400226754315796
42
-0.41421356237311324
10
98.712500000000034
20
39.900226754315774
10
98.712500000000034
20
26.900226754315891
42
-0.41421356237310542
10
98.212500000000048
20
26.400226754315888
10
85.21250000000002
20
26.400226754315899
42
-0.41421356237310802
10
84.712500000000006
20
26.900226754315891
10
84.712500000000006
20
39.900226754315774
42
-0.41421356237310542
0
LWPOLYLINE
5
171
100
AcDbEntity
8
0
100
AcDbPolyline
90
8
70
1
43
0.0
10
128.07500000000002
20
78.500226754315875
10
141.07500000000005
20
78.500226754315776
42
-0.41421356237310542
10
141.57500000000005
20
78.00022675431579
10
141.57500000000005
20
65.000226754315889
42
-0.41421356237311585
10
141.07500000000005
20
64.500226754315889
10
128.07500000000002
20
64.500226754315889
42
-0.41421356237310542
10
127.57500000000005
20
65.000226754315889
10
127.57499999999993
20
78.00022675431579
42
-0.41421356237302737
0
LWPOLYLINE
5
172
100
AcDbEntity
8
0
100
AcDbPolyline
90
8
70
1
43
0.0
10
146.33749999999904
20
58.950226754312823
10
146.3374999999991
20
45.950226754312823
42
-0.41421356237313667
10
145.83749999999901
20
45.45022675431283
10
132.83750000000003
20
45.45022675431283
42
-0.41421356237308982
10
132.33750000000001
20
45.950226754312823
10
132.33750000000003
20
58.950226754312823
42
-0.41421356237313145
10
132.83750000000003
20
59.450226754312823
10
145.83749999999901
20
59.450226754312816
42
-0.41421356237309503
0
LWPOLYLINE
5
173
100
AcDbEntity
8
0
100
AcDbPolyline
90
8
70
1
43
0.0
10
179.67499999999995
20
65.000226754315875
42
-0.41421356237311063
10
179.17500000000004
20
64.500226754315861
10
166.17500000000004
20
64.500226754315861
42
-0.41421356237313667
10
165.67500000000001
20
65.000226754315875
10
165.67500000000001
20
78.000226754315776
42
-0.41421356237321988
10
166.17500000000004
20
78.500226754315776
10
179.17500000000004
20
78.500226754315761
42
-0.41421356237297535
10
179.67500000000001
20
78.000226754315776
0
LWPOLYLINE
5
174
100
AcDbEntity
8
0
100
AcDbPolyline
90
8
70
1
43
0.0
10
155.86249999999902
20
39.900226754315774
10
155.86249999999902
20
26.900226754315881
42
-0.41421356237306123
10
155.36249999999905
20
26.400226754315913
10
142.36250000000001
20
26.400226754315888
42
-0.41421356237307161
10
141.86250000000004
20
26.900226754315891
10
141.86250000000004
20
39.900226754315774
42
-0.41421356237308721
10
142.36250000000001
20
40.400226754315781
10
155.36249999999905
20
40.400226754315767
42
-0.41421356237313928
0
LWPOLYLINE
5
175
100
AcDbEntity
8
0
100
AcDbPolyline
90
8
70
1
43
0.0
10
79.155750000000026
20
7.3502267543157975
42
-0.41421356237307488
10
78.655750000000054
20
7.8502267543158055
10
78.655750000000054
20
22.850226754315891
42
-0.41421356237307161
10
79.155750000000026
20
23.350226754315898
10
89.661949999999976
20
23.350226754315919
42
-0.41421356237309764
10
90.161950000000033
20
22.850226754315891
10
90.161950000000019
20
7.8502267543158055
42
-0.41421356237307422
10
89.661949999999976
20
7.3502267543157949
0
LWPOLYLINE
5
176
100
AcDbEntity
8
0
100
AcDbPolyline
90
8
70
1
43
0.0
10
122.8125
20
39.900226754315774
42
-0.41421356237307683
10
123.31250000000004
20
40.400226754315788
10
136.3125
20
40.400226754315796
42
-0.41421356237305862
10
136.81250000000003
20
39.900226754315774
10
136.81250000000003
20
26.900226754315891
42
-0.41421356237305601
10
136.31250000000003
20
26.400226754315881
10
123.31250000000004
20
26.400226754315895
42
-0.41421356237308982
10
122.8125
20
26.900226754315891
0
LWPOLYLINE
5
177
100
AcDbEntity
8
0
100
AcDbPolyline
90
8
70
1
43
0.0
10
126.78750000000005
20
59.450226754312816
42
-0.4142135623730846
10
127.28750000000005
20
58.950226754312823
10
127.28750000000005
20
45.950226754312823
42
-0.414213562373069
10
126.78750000000005
20
45.45022675431283
10
113.78750000000004
20
45.45022675431283
42
-0.41421356237308982
10
113.28749999999999
20
45.950226754312823
10
113.28749999999999
20
58.950226754312851
42
-0.41421356237308982
10
113.78750000000004
20
59.450226754312823
0
LWPOLYLINE
5
178
100
AcDbEntity
8
0
100
AcDbPolyline
90
8
70
1
43
0.0
10
189.19999999999999
20
84.050226754315872
42
-0.41421356237312623
10
188.70000000000005
20
83.550226754315872
10
175.69999999999999
20
83.550226754315872
42
-0.41421356237312623
10
175.20000000000007
20
84.050226754315872
10
175.20000000000005
20
97.050226754315787
42
-0.41421356237310542
10
175.70000000000005
20
97.55022675431573
10
188.70000000000005
20
97.550226754315787
42
-0.41421356237301177
10
189.20000000000005
20
97.050226754315787
0
CIRCLE
5
179
100
AcDbEntity
8
0
100
AcDbCircle
10
186.96249746000004
20
61.975229258614533
30
-6.3926294813221328e-13
40
1.45
210
0
220
0
230
1
0
CIRCLE
5
180
100
AcDbEntity
8
0
100
AcDbCircle
10
75.031049999999908
20
42.893476754316531
30
6.3548125095458374e-13
40
1.45
210
0
220
0
230
1
0
LWPOLYLINE
5
181
100
AcDbEntity
8
0
100
AcDbPolyline
90
8
70
1
43
0.0
10
242.37500000000011
20
21.350226754315766
10
245.85000000000002
20
21.350226754315749
42
-0.41421356237312362
10
246.35000000000002
20
20.850226754315763
10
246.35000000000005
20
7.85022675431577
42
-0.41421356237310347
10
245.85000000000002
20
7.3502267543157727
10
242.37500000000011
20
7.3502267543157895
42
-0.41421356237312101
10
241.87500000000003
20
7.85022675431577
10
241.875
20
20.850226754315763
42
-0.41421356237310281
0
ENDSEC
0
SECTION
2
OBJECTS
0
DICTIONARY
5
C
100
AcDbDictionary
3
ACAD_GROUP
350
D
3
ACAD_MLINESTYLE
350
17
0
DICTIONARY
5
D
100
AcDbDictionary
0
DICTIONARY
5
1A
330
C
100
AcDbDictionary
0
DICTIONARY
5
17
100
AcDbDictionary
0
ENDSEC
0
EOF
