M48
; DRILL file {KiCad (5.1.10)-1} date 08/06/21 12:50:23
; FORMAT={-:-/ absolute / metric / decimal}
; #@! TF.CreationDate,2021-08-06T12:50:23+02:00
; #@! TF.GenerationSoftware,Kicad,Pcbnew,(5.1.10)-1
; #@! TF.FileFunction,Plated,1,2,PTH
FMAT,2
METRIC
T1C0.400
T2C0.600
T3C1.040
T4C1.470
%
G90
G05
T1
X74.486Y-83.883
X78.041Y-89.218
X79.499Y-83.88
X81.534Y-93.535
X89.725Y-112.585
X105.283Y-129.921
X114.998Y-129.921
X132.905Y-149.225
X135.636Y-132.613
X140.081Y-151.066
X144.018Y-161.544
X144.691Y-160.804
X144.691Y-162.284
X146.177Y-166.56
X148.971Y-151.066
X152.971Y-149.225
X153.543Y-161.544
X153.543Y-163.068
X154.207Y-160.797
X154.25Y-162.269
X157.162Y-157.861
X158.178Y-163.512
X160.528Y-149.225
X163.703Y-147.13
X164.655Y-166.751
X167.957Y-149.225
X169.481Y-161.925
X169.989Y-149.987
X174.879Y-167.386
X175.498Y-92.059
X175.958Y-169.227
X178.816Y-158.623
X179.006Y-129.921
X182.118Y-149.225
X183.706Y-118.427
X190.881Y-129.921
X207.137Y-117.792
X208.026Y-149.161
X222.44Y-149.225
X226.314Y-115.506
X245.364Y-116.586
X267.399Y-134.175
X286.195Y-134.366
X302.387Y-134.366
X321.5Y-139.065
X324.866Y-137.224
X332.359Y-82.804
X343.662Y-136.779
X346.773Y-132.905
X347.599Y-111.887
X350.139Y-135.319
T3
X68.562Y-131.256
X71.112Y-131.256
X73.335Y-131.256
X75.875Y-131.256
T4
X63.651Y-85.536
X66.032Y-123.636
X66.032Y-142.686
X66.032Y-161.736
X68.414Y-104.586
X68.414Y-161.736
X70.001Y-82.996
X70.795Y-123.636
X72.382Y-121.096
X72.382Y-140.146
X72.382Y-159.196
X74.764Y-102.046
X74.764Y-159.196
X75.557Y-142.686
X77.145Y-121.096
X81.907Y-140.146
X82.701Y-85.536
X87.464Y-142.686
X89.051Y-82.996
X89.845Y-161.736
X92.226Y-104.586
X92.226Y-161.736
X93.814Y-140.146
X96.195Y-159.196
X96.989Y-123.636
X98.576Y-102.046
X98.576Y-159.196
X101.751Y-85.536
X103.339Y-121.096
X106.514Y-142.686
X108.101Y-82.996
X111.276Y-104.586
X112.864Y-140.146
X113.657Y-161.736
X116.039Y-123.636
X116.039Y-161.736
X117.626Y-102.046
X120.007Y-159.196
X120.801Y-85.536
X122.389Y-121.096
X122.389Y-159.196
X125.564Y-142.686
X127.151Y-82.996
X130.326Y-104.586
X131.914Y-140.146
X135.089Y-123.636
X136.676Y-102.046
X139.851Y-85.536
X141.439Y-121.096
X144.614Y-142.686
X146.201Y-82.996
X149.376Y-104.586
X150.964Y-140.146
X154.139Y-123.636
X155.726Y-102.046
X158.901Y-85.536
X160.489Y-121.096
X163.664Y-142.686
X165.251Y-82.996
X168.426Y-104.586
X170.014Y-140.146
X173.189Y-123.636
X174.776Y-102.046
X177.951Y-85.536
X179.539Y-121.096
X182.714Y-142.686
X184.301Y-82.996
X185.095Y-161.736
X187.476Y-104.586
X189.064Y-140.146
X191.445Y-159.196
X192.239Y-123.636
X193.826Y-102.046
X197.001Y-85.536
X197.001Y-161.736
X198.589Y-121.096
X201.764Y-142.686
X203.351Y-82.996
X203.351Y-159.196
X206.526Y-104.586
X208.114Y-140.146
X211.289Y-123.636
X212.876Y-102.046
X216.051Y-85.536
X217.639Y-121.096
X220.814Y-142.686
X222.401Y-82.996
X225.576Y-104.586
X227.164Y-140.146
X230.339Y-123.636
X231.926Y-102.046
X235.101Y-85.536
X236.689Y-121.096
X239.864Y-142.686
X241.451Y-82.996
X244.626Y-104.586
X246.214Y-140.146
X249.389Y-123.636
X250.976Y-102.046
X254.151Y-85.536
X255.739Y-121.096
X256.532Y-161.736
X258.914Y-142.686
X260.501Y-82.996
X262.882Y-159.196
X263.676Y-104.586
X265.264Y-140.146
X268.439Y-123.636
X270.026Y-102.046
X273.201Y-85.536
X274.789Y-121.096
X277.964Y-142.686
X277.964Y-161.736
X279.551Y-82.996
X280.345Y-161.736
X282.726Y-104.586
X284.314Y-140.146
X284.314Y-159.196
X286.695Y-159.196
X287.489Y-123.636
X289.076Y-102.046
X292.251Y-85.536
X293.839Y-121.096
X298.601Y-82.996
X301.776Y-104.586
X304.157Y-142.686
X306.539Y-123.636
X308.126Y-102.046
X310.507Y-140.146
X311.301Y-85.536
X311.301Y-161.736
X312.889Y-121.096
X317.651Y-82.996
X317.651Y-159.196
X318.445Y-123.636
X320.826Y-85.536
X324.795Y-121.096
X325.589Y-104.586
X327.176Y-82.996
X327.97Y-114.111
X330.351Y-85.536
X330.351Y-142.686
X330.351Y-161.736
X331.939Y-102.046
X334.32Y-111.571
X336.701Y-82.996
X336.701Y-140.146
X336.701Y-159.196
X349.401Y-85.536
X349.401Y-104.586
X349.401Y-123.636
X349.401Y-142.686
X349.401Y-161.736
X355.751Y-82.996
X355.751Y-102.046
X355.751Y-121.096
X355.751Y-140.146
X355.751Y-159.196
T2
G00X72.657Y-75.343
M15
G01X72.657Y-75.943
M16
G05
G00X72.657Y-79.273
M15
G01X72.657Y-80.373
M16
G05
G00X81.297Y-75.343
M15
G01X81.297Y-75.943
M16
G05
G00X81.297Y-79.273
M15
G01X81.297Y-80.373
M16
G05
T0
M30
