%TF.GenerationSoftware,KiCad,Pcbnew,(5.1.10)-1*%
%TF.CreationDate,2021-08-06T12:50:21+02:00*%
%TF.ProjectId,67_E,36375f45-2e6b-4696-9361-645f70636258,rev?*%
%TF.SameCoordinates,Original*%
%TF.FileFunction,Soldermask,Bot*%
%TF.FilePolarity,Negative*%
%FSLAX46Y46*%
G04 Gerber Fmt 4.6, Leading zero omitted, Abs format (unit mm)*
G04 Created by KiCad (PCBNEW (5.1.10)-1) date 2021-08-06 12:50:21*
%MOMM*%
%LPD*%
G01*
G04 APERTURE LIST*
%ADD10R,0.800000X0.900000*%
%ADD11C,2.250000*%
%ADD12C,3.987800*%
%ADD13C,1.750000*%
%ADD14C,3.048000*%
%ADD15C,0.100000*%
%ADD16R,1.700000X1.000000*%
%ADD17R,1.905000X1.905000*%
%ADD18C,1.905000*%
%ADD19R,0.600000X1.450000*%
%ADD20R,0.300000X1.450000*%
%ADD21O,1.000000X2.100000*%
%ADD22C,0.650000*%
%ADD23O,1.000000X1.600000*%
%ADD24R,1.060000X0.650000*%
G04 APERTURE END LIST*
D10*
%TO.C,D34*%
X130685500Y-166640000D03*
X132585500Y-166640000D03*
X131635500Y-168640000D03*
%TD*%
%TO.C,D31*%
X342712000Y-108982000D03*
X344612000Y-108982000D03*
X343662000Y-110982000D03*
%TD*%
D11*
%TO.C,MX20*%
X98576130Y-102045770D03*
D12*
X96036130Y-107125770D03*
D11*
X92226130Y-104585770D03*
D13*
X90956130Y-107125770D03*
X101116130Y-107125770D03*
%TD*%
D10*
%TO.C,D1*%
X95062000Y-90059000D03*
X96962000Y-90059000D03*
X96012000Y-92059000D03*
%TD*%
D12*
%TO.C,MX48*%
X334161130Y-134430770D03*
X310348630Y-134430770D03*
D14*
X334161130Y-119190770D03*
X310348630Y-119190770D03*
D13*
X327334880Y-126175770D03*
X317174880Y-126175770D03*
D11*
X318444880Y-123635770D03*
D12*
X322254880Y-126175770D03*
D11*
X324794880Y-121095770D03*
%TD*%
%TO.C,MX74*%
X191444880Y-159195770D03*
D12*
X188904880Y-164275770D03*
D11*
X185094880Y-161735770D03*
D13*
X183824880Y-164275770D03*
X193984880Y-164275770D03*
D14*
X138904980Y-171260770D03*
X238904780Y-171260770D03*
D12*
X138904980Y-156020770D03*
X238904780Y-156020770D03*
%TD*%
D15*
%TO.C,U1*%
G36*
X168117298Y-165781060D02*
G01*
X168506206Y-165392152D01*
X169566866Y-166452812D01*
X169177958Y-166841720D01*
X168117298Y-165781060D01*
G37*
G36*
X168682983Y-165215374D02*
G01*
X169071891Y-164826466D01*
X170132551Y-165887126D01*
X169743643Y-166276034D01*
X168682983Y-165215374D01*
G37*
G36*
X169248668Y-164649689D02*
G01*
X169637576Y-164260781D01*
X170698236Y-165321441D01*
X170309328Y-165710349D01*
X169248668Y-164649689D01*
G37*
G36*
X169814354Y-164084004D02*
G01*
X170203262Y-163695096D01*
X171263922Y-164755756D01*
X170875014Y-165144664D01*
X169814354Y-164084004D01*
G37*
G36*
X170380039Y-163518318D02*
G01*
X170768947Y-163129410D01*
X171829607Y-164190070D01*
X171440699Y-164578978D01*
X170380039Y-163518318D01*
G37*
G36*
X170945725Y-162952633D02*
G01*
X171334633Y-162563725D01*
X172395293Y-163624385D01*
X172006385Y-164013293D01*
X170945725Y-162952633D01*
G37*
G36*
X171511410Y-162386947D02*
G01*
X171900318Y-161998039D01*
X172960978Y-163058699D01*
X172572070Y-163447607D01*
X171511410Y-162386947D01*
G37*
G36*
X172077096Y-161821262D02*
G01*
X172466004Y-161432354D01*
X173526664Y-162493014D01*
X173137756Y-162881922D01*
X172077096Y-161821262D01*
G37*
G36*
X172642781Y-161255576D02*
G01*
X173031689Y-160866668D01*
X174092349Y-161927328D01*
X173703441Y-162316236D01*
X172642781Y-161255576D01*
G37*
G36*
X173208466Y-160689891D02*
G01*
X173597374Y-160300983D01*
X174658034Y-161361643D01*
X174269126Y-161750551D01*
X173208466Y-160689891D01*
G37*
G36*
X173774152Y-160124206D02*
G01*
X174163060Y-159735298D01*
X175223720Y-160795958D01*
X174834812Y-161184866D01*
X173774152Y-160124206D01*
G37*
G36*
X174163060Y-158780702D02*
G01*
X173774152Y-158391794D01*
X174834812Y-157331134D01*
X175223720Y-157720042D01*
X174163060Y-158780702D01*
G37*
G36*
X173597374Y-158215017D02*
G01*
X173208466Y-157826109D01*
X174269126Y-156765449D01*
X174658034Y-157154357D01*
X173597374Y-158215017D01*
G37*
G36*
X173031689Y-157649332D02*
G01*
X172642781Y-157260424D01*
X173703441Y-156199764D01*
X174092349Y-156588672D01*
X173031689Y-157649332D01*
G37*
G36*
X172466004Y-157083646D02*
G01*
X172077096Y-156694738D01*
X173137756Y-155634078D01*
X173526664Y-156022986D01*
X172466004Y-157083646D01*
G37*
G36*
X171900318Y-156517961D02*
G01*
X171511410Y-156129053D01*
X172572070Y-155068393D01*
X172960978Y-155457301D01*
X171900318Y-156517961D01*
G37*
G36*
X171334633Y-155952275D02*
G01*
X170945725Y-155563367D01*
X172006385Y-154502707D01*
X172395293Y-154891615D01*
X171334633Y-155952275D01*
G37*
G36*
X170768947Y-155386590D02*
G01*
X170380039Y-154997682D01*
X171440699Y-153937022D01*
X171829607Y-154325930D01*
X170768947Y-155386590D01*
G37*
G36*
X170203262Y-154820904D02*
G01*
X169814354Y-154431996D01*
X170875014Y-153371336D01*
X171263922Y-153760244D01*
X170203262Y-154820904D01*
G37*
G36*
X169637576Y-154255219D02*
G01*
X169248668Y-153866311D01*
X170309328Y-152805651D01*
X170698236Y-153194559D01*
X169637576Y-154255219D01*
G37*
G36*
X169071891Y-153689534D02*
G01*
X168682983Y-153300626D01*
X169743643Y-152239966D01*
X170132551Y-152628874D01*
X169071891Y-153689534D01*
G37*
G36*
X168506206Y-153123848D02*
G01*
X168117298Y-152734940D01*
X169177958Y-151674280D01*
X169566866Y-152063188D01*
X168506206Y-153123848D01*
G37*
G36*
X165713134Y-152063188D02*
G01*
X166102042Y-151674280D01*
X167162702Y-152734940D01*
X166773794Y-153123848D01*
X165713134Y-152063188D01*
G37*
G36*
X165147449Y-152628874D02*
G01*
X165536357Y-152239966D01*
X166597017Y-153300626D01*
X166208109Y-153689534D01*
X165147449Y-152628874D01*
G37*
G36*
X164581764Y-153194559D02*
G01*
X164970672Y-152805651D01*
X166031332Y-153866311D01*
X165642424Y-154255219D01*
X164581764Y-153194559D01*
G37*
G36*
X164016078Y-153760244D02*
G01*
X164404986Y-153371336D01*
X165465646Y-154431996D01*
X165076738Y-154820904D01*
X164016078Y-153760244D01*
G37*
G36*
X163450393Y-154325930D02*
G01*
X163839301Y-153937022D01*
X164899961Y-154997682D01*
X164511053Y-155386590D01*
X163450393Y-154325930D01*
G37*
G36*
X162884707Y-154891615D02*
G01*
X163273615Y-154502707D01*
X164334275Y-155563367D01*
X163945367Y-155952275D01*
X162884707Y-154891615D01*
G37*
G36*
X162319022Y-155457301D02*
G01*
X162707930Y-155068393D01*
X163768590Y-156129053D01*
X163379682Y-156517961D01*
X162319022Y-155457301D01*
G37*
G36*
X161753336Y-156022986D02*
G01*
X162142244Y-155634078D01*
X163202904Y-156694738D01*
X162813996Y-157083646D01*
X161753336Y-156022986D01*
G37*
G36*
X161187651Y-156588672D02*
G01*
X161576559Y-156199764D01*
X162637219Y-157260424D01*
X162248311Y-157649332D01*
X161187651Y-156588672D01*
G37*
G36*
X160621966Y-157154357D02*
G01*
X161010874Y-156765449D01*
X162071534Y-157826109D01*
X161682626Y-158215017D01*
X160621966Y-157154357D01*
G37*
G36*
X160056280Y-157720042D02*
G01*
X160445188Y-157331134D01*
X161505848Y-158391794D01*
X161116940Y-158780702D01*
X160056280Y-157720042D01*
G37*
G36*
X160445188Y-161184866D02*
G01*
X160056280Y-160795958D01*
X161116940Y-159735298D01*
X161505848Y-160124206D01*
X160445188Y-161184866D01*
G37*
G36*
X161010874Y-161750551D02*
G01*
X160621966Y-161361643D01*
X161682626Y-160300983D01*
X162071534Y-160689891D01*
X161010874Y-161750551D01*
G37*
G36*
X161576559Y-162316236D02*
G01*
X161187651Y-161927328D01*
X162248311Y-160866668D01*
X162637219Y-161255576D01*
X161576559Y-162316236D01*
G37*
G36*
X162142244Y-162881922D02*
G01*
X161753336Y-162493014D01*
X162813996Y-161432354D01*
X163202904Y-161821262D01*
X162142244Y-162881922D01*
G37*
G36*
X162707930Y-163447607D02*
G01*
X162319022Y-163058699D01*
X163379682Y-161998039D01*
X163768590Y-162386947D01*
X162707930Y-163447607D01*
G37*
G36*
X163273615Y-164013293D02*
G01*
X162884707Y-163624385D01*
X163945367Y-162563725D01*
X164334275Y-162952633D01*
X163273615Y-164013293D01*
G37*
G36*
X163839301Y-164578978D02*
G01*
X163450393Y-164190070D01*
X164511053Y-163129410D01*
X164899961Y-163518318D01*
X163839301Y-164578978D01*
G37*
G36*
X164404986Y-165144664D02*
G01*
X164016078Y-164755756D01*
X165076738Y-163695096D01*
X165465646Y-164084004D01*
X164404986Y-165144664D01*
G37*
G36*
X164970672Y-165710349D02*
G01*
X164581764Y-165321441D01*
X165642424Y-164260781D01*
X166031332Y-164649689D01*
X164970672Y-165710349D01*
G37*
G36*
X165536357Y-166276034D02*
G01*
X165147449Y-165887126D01*
X166208109Y-164826466D01*
X166597017Y-165215374D01*
X165536357Y-166276034D01*
G37*
G36*
X166102042Y-166841720D02*
G01*
X165713134Y-166452812D01*
X166773794Y-165392152D01*
X167162702Y-165781060D01*
X166102042Y-166841720D01*
G37*
%TD*%
D16*
%TO.C,RESET*%
X218719000Y-163888500D03*
X225019000Y-163888500D03*
X218719000Y-160088500D03*
X225019000Y-160088500D03*
%TD*%
D12*
%TO.C,MX35*%
X323524880Y-104712770D03*
X323524880Y-128588770D03*
D14*
X338764880Y-104712770D03*
X338764880Y-128588770D03*
D13*
X336859880Y-116650770D03*
X326699880Y-116650770D03*
D11*
X327969880Y-114110770D03*
D12*
X331779880Y-116650770D03*
D11*
X334319880Y-111570770D03*
%TD*%
D17*
%TO.C,MX34*%
X68562380Y-131255770D03*
D13*
X74922380Y-126175770D03*
X64762380Y-126175770D03*
D18*
X71112380Y-131255770D03*
D11*
X66032380Y-123635770D03*
D12*
X69842380Y-126175770D03*
D11*
X72382380Y-121095770D03*
%TD*%
D10*
%TO.C,D36*%
X342712000Y-166132000D03*
X344612000Y-166132000D03*
X343662000Y-168132000D03*
%TD*%
%TO.C,D35*%
X300040000Y-166132000D03*
X301940000Y-166132000D03*
X300990000Y-168132000D03*
%TD*%
%TO.C,D33*%
X246573000Y-166132000D03*
X248473000Y-166132000D03*
X247523000Y-168132000D03*
%TD*%
%TO.C,D32*%
X82108000Y-166640000D03*
X84008000Y-166640000D03*
X83058000Y-168640000D03*
%TD*%
%TO.C,D30*%
X320487000Y-147209000D03*
X322387000Y-147209000D03*
X321437000Y-149209000D03*
%TD*%
%TO.C,D29*%
X271338000Y-147209000D03*
X273238000Y-147209000D03*
X272288000Y-149209000D03*
%TD*%
%TO.C,D28*%
X233238000Y-147209000D03*
X235138000Y-147209000D03*
X234188000Y-149209000D03*
%TD*%
%TO.C,D27*%
X195138000Y-147209000D03*
X197038000Y-147209000D03*
X196088000Y-149209000D03*
%TD*%
%TO.C,D26*%
X157038000Y-147209000D03*
X158938000Y-147209000D03*
X157988000Y-149209000D03*
%TD*%
%TO.C,D25*%
X119065000Y-147209000D03*
X120965000Y-147209000D03*
X120015000Y-149209000D03*
%TD*%
%TO.C,D24*%
X100015000Y-147209000D03*
X101915000Y-147209000D03*
X100965000Y-149209000D03*
%TD*%
%TO.C,D23*%
X343791500Y-127968500D03*
X345691500Y-127968500D03*
X344741500Y-129968500D03*
%TD*%
%TO.C,D22*%
X280863000Y-127905000D03*
X282763000Y-127905000D03*
X281813000Y-129905000D03*
%TD*%
%TO.C,D21*%
X242763000Y-127905000D03*
X244663000Y-127905000D03*
X243713000Y-129905000D03*
%TD*%
%TO.C,D20*%
X204663000Y-127905000D03*
X206563000Y-127905000D03*
X205613000Y-129905000D03*
%TD*%
%TO.C,D19*%
X166563000Y-127905000D03*
X168463000Y-127905000D03*
X167513000Y-129905000D03*
%TD*%
%TO.C,D18*%
X128463000Y-127905000D03*
X130363000Y-127905000D03*
X129413000Y-129905000D03*
%TD*%
%TO.C,D17*%
X86807000Y-127905000D03*
X88707000Y-127905000D03*
X87757000Y-129905000D03*
%TD*%
%TO.C,D15*%
X314137000Y-108982000D03*
X316037000Y-108982000D03*
X315087000Y-110982000D03*
%TD*%
%TO.C,D14*%
X276100500Y-108982000D03*
X278000500Y-108982000D03*
X277050500Y-110982000D03*
%TD*%
%TO.C,D13*%
X238000500Y-108982000D03*
X239900500Y-108982000D03*
X238950500Y-110982000D03*
%TD*%
%TO.C,D12*%
X199900500Y-108982000D03*
X201800500Y-108982000D03*
X200850500Y-110982000D03*
%TD*%
%TO.C,D11*%
X161800500Y-108982000D03*
X163700500Y-108982000D03*
X162750500Y-110982000D03*
%TD*%
%TO.C,D10*%
X123700500Y-108982000D03*
X125600500Y-108982000D03*
X124650500Y-110982000D03*
%TD*%
%TO.C,D9*%
X104587000Y-108982000D03*
X106487000Y-108982000D03*
X105537000Y-110982000D03*
%TD*%
%TO.C,D8*%
X342712000Y-90059000D03*
X344612000Y-90059000D03*
X343662000Y-92059000D03*
%TD*%
%TO.C,D7*%
X304612000Y-90059000D03*
X306512000Y-90059000D03*
X305562000Y-92059000D03*
%TD*%
%TO.C,D6*%
X266512000Y-90059000D03*
X268412000Y-90059000D03*
X267462000Y-92059000D03*
%TD*%
%TO.C,D5*%
X228412000Y-90059000D03*
X230312000Y-90059000D03*
X229362000Y-92059000D03*
%TD*%
%TO.C,D4*%
X190312000Y-90059000D03*
X192212000Y-90059000D03*
X191262000Y-92059000D03*
%TD*%
%TO.C,D3*%
X152212000Y-90059000D03*
X154112000Y-90059000D03*
X153162000Y-92059000D03*
%TD*%
%TO.C,D2*%
X114112000Y-90059000D03*
X116012000Y-90059000D03*
X115062000Y-92059000D03*
%TD*%
D15*
%TO.C,X1*%
G36*
X162930069Y-151049984D02*
G01*
X163778597Y-151898512D01*
X162788647Y-152888462D01*
X161940119Y-152039934D01*
X162930069Y-151049984D01*
G37*
G36*
X161374434Y-152605619D02*
G01*
X162222962Y-153454147D01*
X161233012Y-154444097D01*
X160384484Y-153595569D01*
X161374434Y-152605619D01*
G37*
G36*
X160172353Y-151403538D02*
G01*
X161020881Y-152252066D01*
X160030931Y-153242016D01*
X159182403Y-152393488D01*
X160172353Y-151403538D01*
G37*
G36*
X161727988Y-149847903D02*
G01*
X162576516Y-150696431D01*
X161586566Y-151686381D01*
X160738038Y-150837853D01*
X161727988Y-149847903D01*
G37*
%TD*%
D19*
%TO.C,USB1*%
X80227240Y-80737760D03*
X79427240Y-80737760D03*
X74527240Y-80737760D03*
X73727240Y-80737760D03*
X73727240Y-80737760D03*
X74527240Y-80737760D03*
X79427240Y-80737760D03*
X80227240Y-80737760D03*
D20*
X75227240Y-80737760D03*
X75727240Y-80737760D03*
X76227240Y-80737760D03*
X77227240Y-80737760D03*
X77727240Y-80737760D03*
X78227240Y-80737760D03*
X78727240Y-80737760D03*
X76727240Y-80737760D03*
D21*
X81297240Y-79822760D03*
X72657240Y-79822760D03*
D22*
X74087240Y-79292760D03*
D23*
X72657240Y-75642760D03*
D22*
X79867240Y-79292760D03*
D23*
X81297240Y-75642760D03*
%TD*%
D24*
%TO.C,U2*%
X75417500Y-92453500D03*
X75417500Y-91503500D03*
X75417500Y-90553500D03*
X77617500Y-90553500D03*
X77617500Y-92453500D03*
X77617500Y-91503500D03*
%TD*%
%TO.C,R7*%
G36*
G01*
X80299500Y-132974502D02*
X80299500Y-132074498D01*
G75*
G02*
X80549498Y-131824500I249998J0D01*
G01*
X81074502Y-131824500D01*
G75*
G02*
X81324500Y-132074498I0J-249998D01*
G01*
X81324500Y-132974502D01*
G75*
G02*
X81074502Y-133224500I-249998J0D01*
G01*
X80549498Y-133224500D01*
G75*
G02*
X80299500Y-132974502I0J249998D01*
G01*
G37*
G36*
G01*
X82124500Y-132974502D02*
X82124500Y-132074498D01*
G75*
G02*
X82374498Y-131824500I249998J0D01*
G01*
X82899502Y-131824500D01*
G75*
G02*
X83149500Y-132074498I0J-249998D01*
G01*
X83149500Y-132974502D01*
G75*
G02*
X82899502Y-133224500I-249998J0D01*
G01*
X82374498Y-133224500D01*
G75*
G02*
X82124500Y-132974502I0J249998D01*
G01*
G37*
%TD*%
%TO.C,R6*%
G36*
G01*
X173982326Y-169027927D02*
X173345927Y-169664326D01*
G75*
G02*
X172992377Y-169664326I-176775J176775D01*
G01*
X172621144Y-169293093D01*
G75*
G02*
X172621144Y-168939543I176775J176775D01*
G01*
X173257543Y-168303144D01*
G75*
G02*
X173611093Y-168303144I176775J-176775D01*
G01*
X173982326Y-168674377D01*
G75*
G02*
X173982326Y-169027927I-176775J-176775D01*
G01*
G37*
G36*
G01*
X172691856Y-167737457D02*
X172055457Y-168373856D01*
G75*
G02*
X171701907Y-168373856I-176775J176775D01*
G01*
X171330674Y-168002623D01*
G75*
G02*
X171330674Y-167649073I176775J176775D01*
G01*
X171967073Y-167012674D01*
G75*
G02*
X172320623Y-167012674I176775J-176775D01*
G01*
X172691856Y-167383907D01*
G75*
G02*
X172691856Y-167737457I-176775J-176775D01*
G01*
G37*
%TD*%
%TO.C,R5*%
G36*
G01*
X177566421Y-153942021D02*
X178202820Y-154578420D01*
G75*
G02*
X178202820Y-154931970I-176775J-176775D01*
G01*
X177831587Y-155303203D01*
G75*
G02*
X177478037Y-155303203I-176775J176775D01*
G01*
X176841638Y-154666804D01*
G75*
G02*
X176841638Y-154313254I176775J176775D01*
G01*
X177212871Y-153942021D01*
G75*
G02*
X177566421Y-153942021I176775J-176775D01*
G01*
G37*
G36*
G01*
X176275951Y-155232491D02*
X176912350Y-155868890D01*
G75*
G02*
X176912350Y-156222440I-176775J-176775D01*
G01*
X176541117Y-156593673D01*
G75*
G02*
X176187567Y-156593673I-176775J176775D01*
G01*
X175551168Y-155957274D01*
G75*
G02*
X175551168Y-155603724I176775J176775D01*
G01*
X175922401Y-155232491D01*
G75*
G02*
X176275951Y-155232491I176775J-176775D01*
G01*
G37*
%TD*%
%TO.C,R4*%
G36*
G01*
X84893998Y-105699500D02*
X85794002Y-105699500D01*
G75*
G02*
X86044000Y-105949498I0J-249998D01*
G01*
X86044000Y-106474502D01*
G75*
G02*
X85794002Y-106724500I-249998J0D01*
G01*
X84893998Y-106724500D01*
G75*
G02*
X84644000Y-106474502I0J249998D01*
G01*
X84644000Y-105949498D01*
G75*
G02*
X84893998Y-105699500I249998J0D01*
G01*
G37*
G36*
G01*
X84893998Y-107524500D02*
X85794002Y-107524500D01*
G75*
G02*
X86044000Y-107774498I0J-249998D01*
G01*
X86044000Y-108299502D01*
G75*
G02*
X85794002Y-108549500I-249998J0D01*
G01*
X84893998Y-108549500D01*
G75*
G02*
X84644000Y-108299502I0J249998D01*
G01*
X84644000Y-107774498D01*
G75*
G02*
X84893998Y-107524500I249998J0D01*
G01*
G37*
%TD*%
%TO.C,R3*%
G36*
G01*
X86989498Y-105699500D02*
X87889502Y-105699500D01*
G75*
G02*
X88139500Y-105949498I0J-249998D01*
G01*
X88139500Y-106474502D01*
G75*
G02*
X87889502Y-106724500I-249998J0D01*
G01*
X86989498Y-106724500D01*
G75*
G02*
X86739500Y-106474502I0J249998D01*
G01*
X86739500Y-105949498D01*
G75*
G02*
X86989498Y-105699500I249998J0D01*
G01*
G37*
G36*
G01*
X86989498Y-107524500D02*
X87889502Y-107524500D01*
G75*
G02*
X88139500Y-107774498I0J-249998D01*
G01*
X88139500Y-108299502D01*
G75*
G02*
X87889502Y-108549500I-249998J0D01*
G01*
X86989498Y-108549500D01*
G75*
G02*
X86739500Y-108299502I0J249998D01*
G01*
X86739500Y-107774498D01*
G75*
G02*
X86989498Y-107524500I249998J0D01*
G01*
G37*
%TD*%
%TO.C,R2*%
G36*
G01*
X78491502Y-88293000D02*
X77591498Y-88293000D01*
G75*
G02*
X77341500Y-88043002I0J249998D01*
G01*
X77341500Y-87517998D01*
G75*
G02*
X77591498Y-87268000I249998J0D01*
G01*
X78491502Y-87268000D01*
G75*
G02*
X78741500Y-87517998I0J-249998D01*
G01*
X78741500Y-88043002D01*
G75*
G02*
X78491502Y-88293000I-249998J0D01*
G01*
G37*
G36*
G01*
X78491502Y-86468000D02*
X77591498Y-86468000D01*
G75*
G02*
X77341500Y-86218002I0J249998D01*
G01*
X77341500Y-85692998D01*
G75*
G02*
X77591498Y-85443000I249998J0D01*
G01*
X78491502Y-85443000D01*
G75*
G02*
X78741500Y-85692998I0J-249998D01*
G01*
X78741500Y-86218002D01*
G75*
G02*
X78491502Y-86468000I-249998J0D01*
G01*
G37*
%TD*%
%TO.C,R1*%
G36*
G01*
X75443502Y-88293000D02*
X74543498Y-88293000D01*
G75*
G02*
X74293500Y-88043002I0J249998D01*
G01*
X74293500Y-87517998D01*
G75*
G02*
X74543498Y-87268000I249998J0D01*
G01*
X75443502Y-87268000D01*
G75*
G02*
X75693500Y-87517998I0J-249998D01*
G01*
X75693500Y-88043002D01*
G75*
G02*
X75443502Y-88293000I-249998J0D01*
G01*
G37*
G36*
G01*
X75443502Y-86468000D02*
X74543498Y-86468000D01*
G75*
G02*
X74293500Y-86218002I0J249998D01*
G01*
X74293500Y-85692998D01*
G75*
G02*
X74543498Y-85443000I249998J0D01*
G01*
X75443502Y-85443000D01*
G75*
G02*
X75693500Y-85692998I0J-249998D01*
G01*
X75693500Y-86218002D01*
G75*
G02*
X75443502Y-86468000I-249998J0D01*
G01*
G37*
%TD*%
D11*
%TO.C,MX79*%
X355751130Y-159195770D03*
D12*
X353211130Y-164275770D03*
D11*
X349401130Y-161735770D03*
D13*
X348131130Y-164275770D03*
X358291130Y-164275770D03*
%TD*%
D11*
%TO.C,MX78*%
X336701130Y-159195770D03*
D12*
X334161130Y-164275770D03*
D11*
X330351130Y-161735770D03*
D13*
X329081130Y-164275770D03*
X339241130Y-164275770D03*
%TD*%
D11*
%TO.C,MX77*%
X317651130Y-159195770D03*
D12*
X315111130Y-164275770D03*
D11*
X311301130Y-161735770D03*
D13*
X310031130Y-164275770D03*
X320191130Y-164275770D03*
%TD*%
D11*
%TO.C,MX76*%
X286694880Y-159195770D03*
D12*
X284154880Y-164275770D03*
D11*
X280344880Y-161735770D03*
D13*
X279074880Y-164275770D03*
X289234880Y-164275770D03*
%TD*%
D11*
%TO.C,MX75*%
X262882380Y-159195770D03*
D12*
X260342380Y-164275770D03*
D11*
X256532380Y-161735770D03*
D13*
X255262380Y-164275770D03*
X265422380Y-164275770D03*
%TD*%
D11*
%TO.C,MX73*%
X120007380Y-159195770D03*
D12*
X117467380Y-164275770D03*
D11*
X113657380Y-161735770D03*
D13*
X112387380Y-164275770D03*
X122547380Y-164275770D03*
%TD*%
D11*
%TO.C,MX72*%
X96194880Y-159195770D03*
D12*
X93654880Y-164275770D03*
D11*
X89844880Y-161735770D03*
D13*
X88574880Y-164275770D03*
X98734880Y-164275770D03*
%TD*%
D11*
%TO.C,MX71*%
X72382380Y-159195770D03*
D12*
X69842380Y-164275770D03*
D11*
X66032380Y-161735770D03*
D13*
X64762380Y-164275770D03*
X74922380Y-164275770D03*
%TD*%
D11*
%TO.C,MX70*%
X284313630Y-159195770D03*
D12*
X281773630Y-164275770D03*
D11*
X277963630Y-161735770D03*
D13*
X276693630Y-164275770D03*
X286853630Y-164275770D03*
%TD*%
D11*
%TO.C,MX69*%
X203351130Y-159195770D03*
D12*
X200811130Y-164275770D03*
D11*
X197001130Y-161735770D03*
D13*
X195731130Y-164275770D03*
X205891130Y-164275770D03*
D14*
X143661130Y-171260770D03*
X257961130Y-171260770D03*
D12*
X143661130Y-156020770D03*
X257961130Y-156020770D03*
%TD*%
D11*
%TO.C,MX68*%
X122388630Y-159195770D03*
D12*
X119848630Y-164275770D03*
D11*
X116038630Y-161735770D03*
D13*
X114768630Y-164275770D03*
X124928630Y-164275770D03*
%TD*%
D11*
%TO.C,MX67*%
X98576130Y-159195770D03*
D12*
X96036130Y-164275770D03*
D11*
X92226130Y-161735770D03*
D13*
X90956130Y-164275770D03*
X101116130Y-164275770D03*
%TD*%
D11*
%TO.C,MX66*%
X74763630Y-159195770D03*
D12*
X72223630Y-164275770D03*
D11*
X68413630Y-161735770D03*
D13*
X67143630Y-164275770D03*
X77303630Y-164275770D03*
%TD*%
D11*
%TO.C,MX65*%
X355751130Y-140145770D03*
D12*
X353211130Y-145225770D03*
D11*
X349401130Y-142685770D03*
D13*
X348131130Y-145225770D03*
X358291130Y-145225770D03*
%TD*%
D11*
%TO.C,MX64*%
X336701130Y-140145770D03*
D12*
X334161130Y-145225770D03*
D11*
X330351130Y-142685770D03*
D13*
X329081130Y-145225770D03*
X339241130Y-145225770D03*
%TD*%
D11*
%TO.C,MX63*%
X310507380Y-140145770D03*
D12*
X307967380Y-145225770D03*
D11*
X304157380Y-142685770D03*
D13*
X302887380Y-145225770D03*
X313047380Y-145225770D03*
%TD*%
D11*
%TO.C,MX62*%
X284313630Y-140145770D03*
D12*
X281773630Y-145225770D03*
D11*
X277963630Y-142685770D03*
D13*
X276693630Y-145225770D03*
X286853630Y-145225770D03*
%TD*%
D11*
%TO.C,MX61*%
X265263630Y-140145770D03*
D12*
X262723630Y-145225770D03*
D11*
X258913630Y-142685770D03*
D13*
X257643630Y-145225770D03*
X267803630Y-145225770D03*
%TD*%
D11*
%TO.C,MX60*%
X246213630Y-140145770D03*
D12*
X243673630Y-145225770D03*
D11*
X239863630Y-142685770D03*
D13*
X238593630Y-145225770D03*
X248753630Y-145225770D03*
%TD*%
D11*
%TO.C,MX59*%
X227163630Y-140145770D03*
D12*
X224623630Y-145225770D03*
D11*
X220813630Y-142685770D03*
D13*
X219543630Y-145225770D03*
X229703630Y-145225770D03*
%TD*%
D11*
%TO.C,MX58*%
X208113630Y-140145770D03*
D12*
X205573630Y-145225770D03*
D11*
X201763630Y-142685770D03*
D13*
X200493630Y-145225770D03*
X210653630Y-145225770D03*
%TD*%
D11*
%TO.C,MX57*%
X189063630Y-140145770D03*
D12*
X186523630Y-145225770D03*
D11*
X182713630Y-142685770D03*
D13*
X181443630Y-145225770D03*
X191603630Y-145225770D03*
%TD*%
D11*
%TO.C,MX56*%
X170013630Y-140145770D03*
D12*
X167473630Y-145225770D03*
D11*
X163663630Y-142685770D03*
D13*
X162393630Y-145225770D03*
X172553630Y-145225770D03*
%TD*%
D11*
%TO.C,MX55*%
X150963630Y-140145770D03*
D12*
X148423630Y-145225770D03*
D11*
X144613630Y-142685770D03*
D13*
X143343630Y-145225770D03*
X153503630Y-145225770D03*
%TD*%
D11*
%TO.C,MX54*%
X131913630Y-140145770D03*
D12*
X129373630Y-145225770D03*
D11*
X125563630Y-142685770D03*
D13*
X124293630Y-145225770D03*
X134453630Y-145225770D03*
%TD*%
D11*
%TO.C,MX53*%
X112863630Y-140145770D03*
D12*
X110323630Y-145225770D03*
D11*
X106513630Y-142685770D03*
D13*
X105243630Y-145225770D03*
X115403630Y-145225770D03*
%TD*%
D11*
%TO.C,MX52*%
X93813630Y-140145770D03*
D12*
X91273630Y-145225770D03*
D11*
X87463630Y-142685770D03*
D13*
X86193630Y-145225770D03*
X96353630Y-145225770D03*
%TD*%
D11*
%TO.C,MX51*%
X81907380Y-140145770D03*
D12*
X79367380Y-145225770D03*
D11*
X75557380Y-142685770D03*
D13*
X74287380Y-145225770D03*
X84447380Y-145225770D03*
D14*
X67461130Y-138240770D03*
X91273630Y-138240770D03*
D12*
X67461130Y-153480770D03*
X91273630Y-153480770D03*
%TD*%
D11*
%TO.C,MX50*%
X72382380Y-140145770D03*
D12*
X69842380Y-145225770D03*
D11*
X66032380Y-142685770D03*
D13*
X64762380Y-145225770D03*
X74922380Y-145225770D03*
%TD*%
D11*
%TO.C,MX49*%
X355751130Y-121095770D03*
D12*
X353211130Y-126175770D03*
D11*
X349401130Y-123635770D03*
D13*
X348131130Y-126175770D03*
X358291130Y-126175770D03*
%TD*%
D11*
%TO.C,MX47*%
X293838630Y-121095770D03*
D12*
X291298630Y-126175770D03*
D11*
X287488630Y-123635770D03*
D13*
X286218630Y-126175770D03*
X296378630Y-126175770D03*
%TD*%
D11*
%TO.C,MX46*%
X274788630Y-121095770D03*
D12*
X272248630Y-126175770D03*
D11*
X268438630Y-123635770D03*
D13*
X267168630Y-126175770D03*
X277328630Y-126175770D03*
%TD*%
D11*
%TO.C,MX45*%
X255738630Y-121095770D03*
D12*
X253198630Y-126175770D03*
D11*
X249388630Y-123635770D03*
D13*
X248118630Y-126175770D03*
X258278630Y-126175770D03*
%TD*%
D11*
%TO.C,MX44*%
X236688630Y-121095770D03*
D12*
X234148630Y-126175770D03*
D11*
X230338630Y-123635770D03*
D13*
X229068630Y-126175770D03*
X239228630Y-126175770D03*
%TD*%
D11*
%TO.C,MX43*%
X217638630Y-121095770D03*
D12*
X215098630Y-126175770D03*
D11*
X211288630Y-123635770D03*
D13*
X210018630Y-126175770D03*
X220178630Y-126175770D03*
%TD*%
D11*
%TO.C,MX42*%
X198588630Y-121095770D03*
D12*
X196048630Y-126175770D03*
D11*
X192238630Y-123635770D03*
D13*
X190968630Y-126175770D03*
X201128630Y-126175770D03*
%TD*%
D11*
%TO.C,MX41*%
X179538630Y-121095770D03*
D12*
X176998630Y-126175770D03*
D11*
X173188630Y-123635770D03*
D13*
X171918630Y-126175770D03*
X182078630Y-126175770D03*
%TD*%
D11*
%TO.C,MX40*%
X160488630Y-121095770D03*
D12*
X157948630Y-126175770D03*
D11*
X154138630Y-123635770D03*
D13*
X152868630Y-126175770D03*
X163028630Y-126175770D03*
%TD*%
D11*
%TO.C,MX39*%
X141438630Y-121095770D03*
D12*
X138898630Y-126175770D03*
D11*
X135088630Y-123635770D03*
D13*
X133818630Y-126175770D03*
X143978630Y-126175770D03*
%TD*%
D11*
%TO.C,MX38*%
X122388630Y-121095770D03*
D12*
X119848630Y-126175770D03*
D11*
X116038630Y-123635770D03*
D13*
X114768630Y-126175770D03*
X124928630Y-126175770D03*
%TD*%
D11*
%TO.C,MX37*%
X103338630Y-121095770D03*
D12*
X100798630Y-126175770D03*
D11*
X96988630Y-123635770D03*
D13*
X95718630Y-126175770D03*
X105878630Y-126175770D03*
%TD*%
%TO.C,MX36*%
X79684880Y-126175770D03*
X69524880Y-126175770D03*
D17*
X75874880Y-131255770D03*
D18*
X73334880Y-131255770D03*
D11*
X70794880Y-123635770D03*
D12*
X74604880Y-126175770D03*
D11*
X77144880Y-121095770D03*
%TD*%
%TO.C,MX33*%
X355751130Y-102045770D03*
D12*
X353211130Y-107125770D03*
D11*
X349401130Y-104585770D03*
D13*
X348131130Y-107125770D03*
X358291130Y-107125770D03*
%TD*%
D11*
%TO.C,MX32*%
X331938630Y-102045770D03*
D12*
X329398630Y-107125770D03*
D11*
X325588630Y-104585770D03*
D13*
X324318630Y-107125770D03*
X334478630Y-107125770D03*
%TD*%
D11*
%TO.C,MX31*%
X308126130Y-102045770D03*
D12*
X305586130Y-107125770D03*
D11*
X301776130Y-104585770D03*
D13*
X300506130Y-107125770D03*
X310666130Y-107125770D03*
%TD*%
D11*
%TO.C,MX30*%
X289076130Y-102045770D03*
D12*
X286536130Y-107125770D03*
D11*
X282726130Y-104585770D03*
D13*
X281456130Y-107125770D03*
X291616130Y-107125770D03*
%TD*%
D11*
%TO.C,MX29*%
X270026130Y-102045770D03*
D12*
X267486130Y-107125770D03*
D11*
X263676130Y-104585770D03*
D13*
X262406130Y-107125770D03*
X272566130Y-107125770D03*
%TD*%
D11*
%TO.C,MX28*%
X250976130Y-102045770D03*
D12*
X248436130Y-107125770D03*
D11*
X244626130Y-104585770D03*
D13*
X243356130Y-107125770D03*
X253516130Y-107125770D03*
%TD*%
D11*
%TO.C,MX27*%
X231926130Y-102045770D03*
D12*
X229386130Y-107125770D03*
D11*
X225576130Y-104585770D03*
D13*
X224306130Y-107125770D03*
X234466130Y-107125770D03*
%TD*%
D11*
%TO.C,MX26*%
X212876130Y-102045770D03*
D12*
X210336130Y-107125770D03*
D11*
X206526130Y-104585770D03*
D13*
X205256130Y-107125770D03*
X215416130Y-107125770D03*
%TD*%
D11*
%TO.C,MX25*%
X193826130Y-102045770D03*
D12*
X191286130Y-107125770D03*
D11*
X187476130Y-104585770D03*
D13*
X186206130Y-107125770D03*
X196366130Y-107125770D03*
%TD*%
D11*
%TO.C,MX24*%
X174776130Y-102045770D03*
D12*
X172236130Y-107125770D03*
D11*
X168426130Y-104585770D03*
D13*
X167156130Y-107125770D03*
X177316130Y-107125770D03*
%TD*%
D11*
%TO.C,MX23*%
X155726130Y-102045770D03*
D12*
X153186130Y-107125770D03*
D11*
X149376130Y-104585770D03*
D13*
X148106130Y-107125770D03*
X158266130Y-107125770D03*
%TD*%
D11*
%TO.C,MX22*%
X136676130Y-102045770D03*
D12*
X134136130Y-107125770D03*
D11*
X130326130Y-104585770D03*
D13*
X129056130Y-107125770D03*
X139216130Y-107125770D03*
%TD*%
D11*
%TO.C,MX21*%
X117626130Y-102045770D03*
D12*
X115086130Y-107125770D03*
D11*
X111276130Y-104585770D03*
D13*
X110006130Y-107125770D03*
X120166130Y-107125770D03*
%TD*%
D11*
%TO.C,MX19*%
X74763630Y-102045770D03*
D12*
X72223630Y-107125770D03*
D11*
X68413630Y-104585770D03*
D13*
X67143630Y-107125770D03*
X77303630Y-107125770D03*
%TD*%
D11*
%TO.C,MX18*%
X312888630Y-121095770D03*
D12*
X310348630Y-126175770D03*
D11*
X306538630Y-123635770D03*
D13*
X305268630Y-126175770D03*
X315428630Y-126175770D03*
%TD*%
D11*
%TO.C,MX17*%
X355751130Y-82995770D03*
D12*
X353211130Y-88075770D03*
D11*
X349401130Y-85535770D03*
D13*
X348131130Y-88075770D03*
X358291130Y-88075770D03*
%TD*%
D11*
%TO.C,MX16*%
X336701130Y-82995770D03*
D12*
X334161130Y-88075770D03*
D11*
X330351130Y-85535770D03*
D13*
X329081130Y-88075770D03*
X339241130Y-88075770D03*
%TD*%
D11*
%TO.C,MX15*%
X317651130Y-82995770D03*
D12*
X315111130Y-88075770D03*
D11*
X311301130Y-85535770D03*
D13*
X310031130Y-88075770D03*
X320191130Y-88075770D03*
%TD*%
D11*
%TO.C,MX14*%
X298601130Y-82995770D03*
D12*
X296061130Y-88075770D03*
D11*
X292251130Y-85535770D03*
D13*
X290981130Y-88075770D03*
X301141130Y-88075770D03*
%TD*%
D11*
%TO.C,MX13*%
X279551130Y-82995770D03*
D12*
X277011130Y-88075770D03*
D11*
X273201130Y-85535770D03*
D13*
X271931130Y-88075770D03*
X282091130Y-88075770D03*
%TD*%
D11*
%TO.C,MX12*%
X260501130Y-82995770D03*
D12*
X257961130Y-88075770D03*
D11*
X254151130Y-85535770D03*
D13*
X252881130Y-88075770D03*
X263041130Y-88075770D03*
%TD*%
D11*
%TO.C,MX11*%
X241451130Y-82995770D03*
D12*
X238911130Y-88075770D03*
D11*
X235101130Y-85535770D03*
D13*
X233831130Y-88075770D03*
X243991130Y-88075770D03*
%TD*%
D11*
%TO.C,MX10*%
X222401130Y-82995770D03*
D12*
X219861130Y-88075770D03*
D11*
X216051130Y-85535770D03*
D13*
X214781130Y-88075770D03*
X224941130Y-88075770D03*
%TD*%
D11*
%TO.C,MX9*%
X203351130Y-82995770D03*
D12*
X200811130Y-88075770D03*
D11*
X197001130Y-85535770D03*
D13*
X195731130Y-88075770D03*
X205891130Y-88075770D03*
%TD*%
D11*
%TO.C,MX8*%
X184301130Y-82995770D03*
D12*
X181761130Y-88075770D03*
D11*
X177951130Y-85535770D03*
D13*
X176681130Y-88075770D03*
X186841130Y-88075770D03*
%TD*%
D11*
%TO.C,MX7*%
X165251130Y-82995770D03*
D12*
X162711130Y-88075770D03*
D11*
X158901130Y-85535770D03*
D13*
X157631130Y-88075770D03*
X167791130Y-88075770D03*
%TD*%
D11*
%TO.C,MX6*%
X146201130Y-82995770D03*
D12*
X143661130Y-88075770D03*
D11*
X139851130Y-85535770D03*
D13*
X138581130Y-88075770D03*
X148741130Y-88075770D03*
%TD*%
D11*
%TO.C,MX5*%
X127151130Y-82995770D03*
D12*
X124611130Y-88075770D03*
D11*
X120801130Y-85535770D03*
D13*
X119531130Y-88075770D03*
X129691130Y-88075770D03*
%TD*%
D11*
%TO.C,MX4*%
X108101130Y-82995770D03*
D12*
X105561130Y-88075770D03*
D11*
X101751130Y-85535770D03*
D13*
X100481130Y-88075770D03*
X110641130Y-88075770D03*
%TD*%
D11*
%TO.C,MX3*%
X89051130Y-82995770D03*
D12*
X86511130Y-88075770D03*
D11*
X82701130Y-85535770D03*
D13*
X81431130Y-88075770D03*
X91591130Y-88075770D03*
%TD*%
D11*
%TO.C,MX2*%
X70001130Y-82995770D03*
D12*
X67461130Y-88075770D03*
D11*
X63651130Y-85535770D03*
D13*
X62381130Y-88075770D03*
X72541130Y-88075770D03*
%TD*%
D11*
%TO.C,MX1*%
X327176130Y-82995770D03*
D12*
X324636130Y-88075770D03*
D11*
X320826130Y-85535770D03*
D13*
X319556130Y-88075770D03*
X329716130Y-88075770D03*
D14*
X312729880Y-81090770D03*
X336542380Y-81090770D03*
D12*
X312729880Y-96330770D03*
X336542380Y-96330770D03*
%TD*%
%TO.C,F1*%
G36*
G01*
X74429000Y-95938500D02*
X74429000Y-94688500D01*
G75*
G02*
X74679000Y-94438500I250000J0D01*
G01*
X75429000Y-94438500D01*
G75*
G02*
X75679000Y-94688500I0J-250000D01*
G01*
X75679000Y-95938500D01*
G75*
G02*
X75429000Y-96188500I-250000J0D01*
G01*
X74679000Y-96188500D01*
G75*
G02*
X74429000Y-95938500I0J250000D01*
G01*
G37*
G36*
G01*
X77229000Y-95938500D02*
X77229000Y-94688500D01*
G75*
G02*
X77479000Y-94438500I250000J0D01*
G01*
X78229000Y-94438500D01*
G75*
G02*
X78479000Y-94688500I0J-250000D01*
G01*
X78479000Y-95938500D01*
G75*
G02*
X78229000Y-96188500I-250000J0D01*
G01*
X77479000Y-96188500D01*
G75*
G02*
X77229000Y-95938500I0J250000D01*
G01*
G37*
%TD*%
%TO.C,C9*%
G36*
G01*
X157769820Y-153806071D02*
X158441571Y-153134320D01*
G75*
G02*
X158795125Y-153134320I176777J-176777D01*
G01*
X159148678Y-153487873D01*
G75*
G02*
X159148678Y-153841427I-176777J-176777D01*
G01*
X158476927Y-154513178D01*
G75*
G02*
X158123373Y-154513178I-176777J176777D01*
G01*
X157769820Y-154159625D01*
G75*
G02*
X157769820Y-153806071I176777J176777D01*
G01*
G37*
G36*
G01*
X159113322Y-155149573D02*
X159785073Y-154477822D01*
G75*
G02*
X160138627Y-154477822I176777J-176777D01*
G01*
X160492180Y-154831375D01*
G75*
G02*
X160492180Y-155184929I-176777J-176777D01*
G01*
X159820429Y-155856680D01*
G75*
G02*
X159466875Y-155856680I-176777J176777D01*
G01*
X159113322Y-155503127D01*
G75*
G02*
X159113322Y-155149573I176777J176777D01*
G01*
G37*
%TD*%
%TO.C,C8*%
G36*
G01*
X165191180Y-150485929D02*
X164519429Y-151157680D01*
G75*
G02*
X164165875Y-151157680I-176777J176777D01*
G01*
X163812322Y-150804127D01*
G75*
G02*
X163812322Y-150450573I176777J176777D01*
G01*
X164484073Y-149778822D01*
G75*
G02*
X164837627Y-149778822I176777J-176777D01*
G01*
X165191180Y-150132375D01*
G75*
G02*
X165191180Y-150485929I-176777J-176777D01*
G01*
G37*
G36*
G01*
X163847678Y-149142427D02*
X163175927Y-149814178D01*
G75*
G02*
X162822373Y-149814178I-176777J176777D01*
G01*
X162468820Y-149460625D01*
G75*
G02*
X162468820Y-149107071I176777J176777D01*
G01*
X163140571Y-148435320D01*
G75*
G02*
X163494125Y-148435320I176777J-176777D01*
G01*
X163847678Y-148788873D01*
G75*
G02*
X163847678Y-149142427I-176777J-176777D01*
G01*
G37*
%TD*%
%TO.C,C7*%
G36*
G01*
X161788929Y-165008820D02*
X162460680Y-165680571D01*
G75*
G02*
X162460680Y-166034125I-176777J-176777D01*
G01*
X162107127Y-166387678D01*
G75*
G02*
X161753573Y-166387678I-176777J176777D01*
G01*
X161081822Y-165715927D01*
G75*
G02*
X161081822Y-165362373I176777J176777D01*
G01*
X161435375Y-165008820D01*
G75*
G02*
X161788929Y-165008820I176777J-176777D01*
G01*
G37*
G36*
G01*
X160445427Y-166352322D02*
X161117178Y-167024073D01*
G75*
G02*
X161117178Y-167377627I-176777J-176777D01*
G01*
X160763625Y-167731180D01*
G75*
G02*
X160410071Y-167731180I-176777J176777D01*
G01*
X159738320Y-167059429D01*
G75*
G02*
X159738320Y-166705875I176777J176777D01*
G01*
X160091873Y-166352322D01*
G75*
G02*
X160445427Y-166352322I176777J-176777D01*
G01*
G37*
%TD*%
%TO.C,C5*%
G36*
G01*
X160228178Y-163458071D02*
X160899929Y-164129822D01*
G75*
G02*
X160899929Y-164483376I-176777J-176777D01*
G01*
X160546376Y-164836929D01*
G75*
G02*
X160192822Y-164836929I-176777J176777D01*
G01*
X159521071Y-164165178D01*
G75*
G02*
X159521071Y-163811624I176777J176777D01*
G01*
X159874624Y-163458071D01*
G75*
G02*
X160228178Y-163458071I176777J-176777D01*
G01*
G37*
G36*
G01*
X158884676Y-164801573D02*
X159556427Y-165473324D01*
G75*
G02*
X159556427Y-165826878I-176777J-176777D01*
G01*
X159202874Y-166180431D01*
G75*
G02*
X158849320Y-166180431I-176777J176777D01*
G01*
X158177569Y-165508680D01*
G75*
G02*
X158177569Y-165155126I176777J176777D01*
G01*
X158531122Y-164801573D01*
G75*
G02*
X158884676Y-164801573I176777J-176777D01*
G01*
G37*
%TD*%
%TO.C,C4*%
G36*
G01*
X177669307Y-158110770D02*
X176997556Y-157439019D01*
G75*
G02*
X176997556Y-157085465I176777J176777D01*
G01*
X177351109Y-156731912D01*
G75*
G02*
X177704663Y-156731912I176777J-176777D01*
G01*
X178376414Y-157403663D01*
G75*
G02*
X178376414Y-157757217I-176777J-176777D01*
G01*
X178022861Y-158110770D01*
G75*
G02*
X177669307Y-158110770I-176777J176777D01*
G01*
G37*
G36*
G01*
X179012809Y-156767268D02*
X178341058Y-156095517D01*
G75*
G02*
X178341058Y-155741963I176777J176777D01*
G01*
X178694611Y-155388410D01*
G75*
G02*
X179048165Y-155388410I176777J-176777D01*
G01*
X179719916Y-156060161D01*
G75*
G02*
X179719916Y-156413715I-176777J-176777D01*
G01*
X179366363Y-156767268D01*
G75*
G02*
X179012809Y-156767268I-176777J176777D01*
G01*
G37*
%TD*%
%TO.C,C3*%
G36*
G01*
X171268571Y-151919680D02*
X170596820Y-151247929D01*
G75*
G02*
X170596820Y-150894375I176777J176777D01*
G01*
X170950373Y-150540822D01*
G75*
G02*
X171303927Y-150540822I176777J-176777D01*
G01*
X171975678Y-151212573D01*
G75*
G02*
X171975678Y-151566127I-176777J-176777D01*
G01*
X171622125Y-151919680D01*
G75*
G02*
X171268571Y-151919680I-176777J176777D01*
G01*
G37*
G36*
G01*
X172612073Y-150576178D02*
X171940322Y-149904427D01*
G75*
G02*
X171940322Y-149550873I176777J176777D01*
G01*
X172293875Y-149197320D01*
G75*
G02*
X172647429Y-149197320I176777J-176777D01*
G01*
X173319180Y-149869071D01*
G75*
G02*
X173319180Y-150222625I-176777J-176777D01*
G01*
X172965627Y-150576178D01*
G75*
G02*
X172612073Y-150576178I-176777J176777D01*
G01*
G37*
%TD*%
%TO.C,C2*%
G36*
G01*
X157624678Y-155428926D02*
X156952927Y-156100677D01*
G75*
G02*
X156599373Y-156100677I-176777J176777D01*
G01*
X156245820Y-155747124D01*
G75*
G02*
X156245820Y-155393570I176777J176777D01*
G01*
X156917571Y-154721819D01*
G75*
G02*
X157271125Y-154721819I176777J-176777D01*
G01*
X157624678Y-155075372D01*
G75*
G02*
X157624678Y-155428926I-176777J-176777D01*
G01*
G37*
G36*
G01*
X158968180Y-156772428D02*
X158296429Y-157444179D01*
G75*
G02*
X157942875Y-157444179I-176777J176777D01*
G01*
X157589322Y-157090626D01*
G75*
G02*
X157589322Y-156737072I176777J176777D01*
G01*
X158261073Y-156065321D01*
G75*
G02*
X158614627Y-156065321I176777J-176777D01*
G01*
X158968180Y-156418874D01*
G75*
G02*
X158968180Y-156772428I-176777J-176777D01*
G01*
G37*
%TD*%
%TO.C,C1*%
G36*
G01*
X162976820Y-168030071D02*
X163648571Y-167358320D01*
G75*
G02*
X164002125Y-167358320I176777J-176777D01*
G01*
X164355678Y-167711873D01*
G75*
G02*
X164355678Y-168065427I-176777J-176777D01*
G01*
X163683927Y-168737178D01*
G75*
G02*
X163330373Y-168737178I-176777J176777D01*
G01*
X162976820Y-168383625D01*
G75*
G02*
X162976820Y-168030071I176777J176777D01*
G01*
G37*
G36*
G01*
X164320322Y-169373573D02*
X164992073Y-168701822D01*
G75*
G02*
X165345627Y-168701822I176777J-176777D01*
G01*
X165699180Y-169055375D01*
G75*
G02*
X165699180Y-169408929I-176777J-176777D01*
G01*
X165027429Y-170080680D01*
G75*
G02*
X164673875Y-170080680I-176777J176777D01*
G01*
X164320322Y-169727127D01*
G75*
G02*
X164320322Y-169373573I176777J176777D01*
G01*
G37*
%TD*%
M02*
