M48
; DRILL file {KiCad (5.1.10)-1} date 07/23/21 21:16:22
; FORMAT={-:-/ absolute / metric / decimal}
; #@! TF.CreationDate,2021-07-23T21:16:22+02:00
; #@! TF.GenerationSoftware,Kicad,Pcbnew,(5.1.10)-1
; #@! TF.FileFunction,NonPlated,1,2,NPTH
FMAT,2
METRIC
T1C0.650
T2C1.750
T3C3.048
T4C3.988
%
G90
G05
T1
X74.087Y-79.293
X79.867Y-79.293
T2
X62.381Y-88.076
X64.762Y-126.176
X64.762Y-145.226
X64.762Y-164.276
X67.144Y-107.126
X67.144Y-164.276
X69.525Y-126.176
X72.541Y-88.076
X74.287Y-145.226
X74.922Y-126.176
X74.922Y-145.226
X74.922Y-164.276
X77.304Y-107.126
X77.304Y-164.276
X79.685Y-126.176
X81.431Y-88.076
X84.447Y-145.226
X86.194Y-145.226
X88.575Y-164.276
X90.956Y-107.126
X90.956Y-164.276
X91.591Y-88.076
X95.719Y-126.176
X96.354Y-145.226
X98.735Y-164.276
X100.481Y-88.076
X101.116Y-107.126
X101.116Y-164.276
X105.244Y-145.226
X105.879Y-126.176
X110.006Y-107.126
X110.641Y-88.076
X112.387Y-164.276
X114.769Y-126.176
X114.769Y-164.276
X115.404Y-145.226
X119.531Y-88.076
X120.166Y-107.126
X122.547Y-164.276
X124.294Y-145.226
X124.929Y-126.176
X124.929Y-164.276
X129.056Y-107.126
X129.691Y-88.076
X133.819Y-126.176
X134.454Y-145.226
X138.581Y-88.076
X139.216Y-107.126
X143.344Y-145.226
X143.979Y-126.176
X148.106Y-107.126
X148.741Y-88.076
X152.869Y-126.176
X153.504Y-145.226
X157.631Y-88.076
X158.266Y-107.126
X162.394Y-145.226
X163.029Y-126.176
X167.156Y-107.126
X167.791Y-88.076
X171.919Y-126.176
X172.554Y-145.226
X176.681Y-88.076
X177.316Y-107.126
X181.444Y-145.226
X182.079Y-126.176
X183.825Y-164.276
X186.206Y-107.126
X186.841Y-88.076
X190.969Y-126.176
X191.604Y-145.226
X193.985Y-164.276
X195.731Y-88.076
X195.731Y-164.276
X196.366Y-107.126
X200.494Y-145.226
X201.129Y-126.176
X205.256Y-107.126
X205.891Y-88.076
X205.891Y-164.276
X210.019Y-126.176
X210.654Y-145.226
X214.781Y-88.076
X215.416Y-107.126
X219.544Y-145.226
X220.179Y-126.176
X224.306Y-107.126
X224.941Y-88.076
X229.069Y-126.176
X229.704Y-145.226
X233.831Y-88.076
X234.466Y-107.126
X238.594Y-145.226
X239.229Y-126.176
X243.356Y-107.126
X243.991Y-88.076
X248.119Y-126.176
X248.754Y-145.226
X252.881Y-88.076
X253.516Y-107.126
X255.262Y-164.276
X257.644Y-145.226
X258.279Y-126.176
X262.406Y-107.126
X263.041Y-88.076
X265.422Y-164.276
X267.169Y-126.176
X267.804Y-145.226
X271.931Y-88.076
X272.566Y-107.126
X276.694Y-145.226
X276.694Y-164.276
X277.329Y-126.176
X279.075Y-164.276
X281.456Y-107.126
X282.091Y-88.076
X286.219Y-126.176
X286.854Y-145.226
X286.854Y-164.276
X289.235Y-164.276
X290.981Y-88.076
X291.616Y-107.126
X296.379Y-126.176
X300.506Y-107.126
X301.141Y-88.076
X302.887Y-145.226
X305.269Y-126.176
X310.031Y-88.076
X310.031Y-164.276
X310.666Y-107.126
X313.047Y-145.226
X315.429Y-126.176
X317.175Y-126.176
X319.556Y-88.076
X320.191Y-88.076
X320.191Y-164.276
X324.319Y-107.126
X326.7Y-116.651
X327.335Y-126.176
X329.081Y-88.076
X329.081Y-145.226
X329.081Y-164.276
X329.716Y-88.076
X334.479Y-107.126
X336.86Y-116.651
X339.241Y-88.076
X339.241Y-145.226
X339.241Y-164.276
X348.131Y-88.076
X348.131Y-107.126
X348.131Y-126.176
X348.131Y-145.226
X348.131Y-164.276
X358.291Y-88.076
X358.291Y-107.126
X358.291Y-126.176
X358.291Y-145.226
X358.291Y-164.276
T3
X67.461Y-138.241
X91.274Y-138.241
X138.905Y-171.261
X143.661Y-171.261
X238.905Y-171.261
X257.961Y-171.261
X310.349Y-119.191
X312.73Y-81.091
X334.161Y-119.191
X336.542Y-81.091
X338.765Y-104.713
X338.765Y-128.589
T4
X67.461Y-88.076
X67.461Y-153.481
X69.842Y-126.176
X69.842Y-145.226
X69.842Y-164.276
X72.224Y-107.126
X72.224Y-164.276
X74.605Y-126.176
X79.367Y-145.226
X86.511Y-88.076
X91.274Y-145.226
X91.274Y-153.481
X93.655Y-164.276
X96.036Y-107.126
X96.036Y-164.276
X100.799Y-126.176
X105.561Y-88.076
X110.324Y-145.226
X115.086Y-107.126
X117.467Y-164.276
X119.849Y-126.176
X119.849Y-164.276
X124.611Y-88.076
X129.374Y-145.226
X134.136Y-107.126
X138.899Y-126.176
X138.905Y-156.021
X143.661Y-88.076
X143.661Y-156.021
X148.424Y-145.226
X153.186Y-107.126
X157.949Y-126.176
X162.711Y-88.076
X167.474Y-145.226
X172.236Y-107.126
X176.999Y-126.176
X181.761Y-88.076
X186.524Y-145.226
X188.905Y-164.276
X191.286Y-107.126
X196.049Y-126.176
X200.811Y-88.076
X200.811Y-164.276
X205.574Y-145.226
X210.336Y-107.126
X215.099Y-126.176
X219.861Y-88.076
X224.624Y-145.226
X229.386Y-107.126
X234.149Y-126.176
X238.905Y-156.021
X238.911Y-88.076
X243.674Y-145.226
X248.436Y-107.126
X253.199Y-126.176
X257.961Y-88.076
X257.961Y-156.021
X260.342Y-164.276
X262.724Y-145.226
X267.486Y-107.126
X272.249Y-126.176
X277.011Y-88.076
X281.774Y-145.226
X281.774Y-164.276
X284.155Y-164.276
X286.536Y-107.126
X291.299Y-126.176
X296.061Y-88.076
X305.586Y-107.126
X307.967Y-145.226
X310.349Y-126.176
X310.349Y-134.431
X312.73Y-96.331
X315.111Y-88.076
X315.111Y-164.276
X322.255Y-126.176
X323.525Y-104.713
X323.525Y-128.589
X324.636Y-88.076
X329.399Y-107.126
X331.78Y-116.651
X334.161Y-88.076
X334.161Y-134.431
X334.161Y-145.226
X334.161Y-164.276
X336.542Y-96.331
X353.211Y-88.076
X353.211Y-107.126
X353.211Y-126.176
X353.211Y-145.226
X353.211Y-164.276
T0
M30
