%TF.GenerationSoftware,KiCad,Pcbnew,(5.1.10)-1*%
%TF.CreationDate,2021-08-06T12:50:21+02:00*%
%TF.ProjectId,67_E,36375f45-2e6b-4696-9361-645f70636258,rev?*%
%TF.SameCoordinates,Original*%
%TF.FileFunction,Soldermask,Top*%
%TF.FilePolarity,Negative*%
%FSLAX46Y46*%
G04 Gerber Fmt 4.6, Leading zero omitted, Abs format (unit mm)*
G04 Created by KiCad (PCBNEW (5.1.10)-1) date 2021-08-06 12:50:21*
%MOMM*%
%LPD*%
G01*
G04 APERTURE LIST*
%ADD10C,0.010000*%
%ADD11C,3.987800*%
%ADD12C,1.750000*%
%ADD13C,3.048000*%
%ADD14O,1.000000X2.100000*%
%ADD15C,0.650000*%
%ADD16O,1.000000X1.600000*%
G04 APERTURE END LIST*
D10*
%TO.C,G\u002A\u002A\u002A*%
G36*
X221948405Y-154035749D02*
G01*
X222123965Y-154074893D01*
X222129827Y-154076801D01*
X222234336Y-154113027D01*
X222335531Y-154150924D01*
X222402400Y-154178389D01*
X222482178Y-154211670D01*
X222553674Y-154238052D01*
X222567500Y-154242436D01*
X222619153Y-154263486D01*
X222681414Y-154301331D01*
X222763238Y-154362067D01*
X222867291Y-154446562D01*
X222935996Y-154501906D01*
X222997574Y-154548651D01*
X223014912Y-154560862D01*
X223058727Y-154599876D01*
X223122448Y-154667803D01*
X223195891Y-154752625D01*
X223268870Y-154842328D01*
X223331198Y-154924895D01*
X223361858Y-154970129D01*
X223490012Y-155212063D01*
X223589831Y-155479104D01*
X223655025Y-155752331D01*
X223674950Y-155911950D01*
X223683002Y-156017012D01*
X223694000Y-156085467D01*
X223717484Y-156126257D01*
X223762995Y-156148325D01*
X223840076Y-156160614D01*
X223951800Y-156171432D01*
X224084422Y-156186159D01*
X224237762Y-156205941D01*
X224397378Y-156228642D01*
X224548826Y-156252123D01*
X224677662Y-156274246D01*
X224764600Y-156291745D01*
X224966853Y-156315828D01*
X225191445Y-156302269D01*
X225403812Y-156258273D01*
X225511057Y-156229312D01*
X225611067Y-156203211D01*
X225684415Y-156185029D01*
X225691700Y-156183346D01*
X225768361Y-156164654D01*
X225831794Y-156147164D01*
X225833852Y-156146527D01*
X225882745Y-156147231D01*
X225939471Y-156183882D01*
X225967202Y-156210010D01*
X226021732Y-156276493D01*
X226046312Y-156347433D01*
X226051745Y-156408803D01*
X226052521Y-156563788D01*
X226040564Y-156678489D01*
X226014475Y-156762143D01*
X225992414Y-156799938D01*
X225961055Y-156847190D01*
X225949719Y-156870991D01*
X225950320Y-156871613D01*
X225976712Y-156878392D01*
X226040849Y-156895578D01*
X226131483Y-156920145D01*
X226187000Y-156935284D01*
X226311121Y-156969070D01*
X226438046Y-157003413D01*
X226545021Y-157032162D01*
X226568000Y-157038291D01*
X226655417Y-157064850D01*
X226726119Y-157092216D01*
X226758500Y-157110137D01*
X226807578Y-157140090D01*
X226876973Y-157171774D01*
X226885500Y-157175076D01*
X227004900Y-157234645D01*
X227123701Y-157319080D01*
X227234761Y-157420160D01*
X227330940Y-157529668D01*
X227405096Y-157639386D01*
X227450087Y-157741093D01*
X227458772Y-157826573D01*
X227457493Y-157833354D01*
X227433810Y-157897807D01*
X227404567Y-157938555D01*
X227373577Y-157974426D01*
X227368099Y-157990214D01*
X227385263Y-158015636D01*
X227431724Y-158067868D01*
X227499939Y-158138749D01*
X227564949Y-158203243D01*
X227657154Y-158290974D01*
X227728765Y-158351237D01*
X227794378Y-158393203D01*
X227868586Y-158426044D01*
X227965985Y-158458931D01*
X227977700Y-158462618D01*
X228095922Y-158504947D01*
X228190558Y-158549028D01*
X228248891Y-158588890D01*
X228250750Y-158590795D01*
X228297015Y-158674388D01*
X228305837Y-158778518D01*
X228276409Y-158888526D01*
X228268130Y-158905629D01*
X228219058Y-158987094D01*
X228152462Y-159080979D01*
X228081136Y-159170620D01*
X228017876Y-159239353D01*
X227998799Y-159256374D01*
X227973850Y-159278827D01*
X227966403Y-159300256D01*
X227981027Y-159329937D01*
X228022290Y-159377141D01*
X228094715Y-159451100D01*
X228238258Y-159616468D01*
X228359676Y-159796840D01*
X228452777Y-159980829D01*
X228511369Y-160157048D01*
X228526483Y-160245005D01*
X228524882Y-160364239D01*
X228489491Y-160447808D01*
X228417904Y-160499993D01*
X228375435Y-160513840D01*
X228313395Y-160533897D01*
X228290786Y-160558485D01*
X228294146Y-160590040D01*
X228336292Y-160744873D01*
X228363463Y-160868153D01*
X228378410Y-160975933D01*
X228383887Y-161084264D01*
X228384100Y-161114619D01*
X228372152Y-161287499D01*
X228338844Y-161450607D01*
X228287979Y-161588331D01*
X228254498Y-161646726D01*
X228219894Y-161705640D01*
X228176920Y-161789968D01*
X228146602Y-161855337D01*
X228105231Y-161939786D01*
X228063892Y-161989267D01*
X228006283Y-162015610D01*
X227916099Y-162030641D01*
X227902816Y-162032189D01*
X227870636Y-162039259D01*
X227851177Y-162058821D01*
X227840293Y-162102103D01*
X227833835Y-162180329D01*
X227831500Y-162225180D01*
X227834769Y-162369082D01*
X227856201Y-162508276D01*
X227892418Y-162627640D01*
X227940041Y-162712050D01*
X227940337Y-162712400D01*
X227992235Y-162786240D01*
X228042085Y-162877701D01*
X228081581Y-162969109D01*
X228102419Y-163042796D01*
X228103786Y-163060188D01*
X228078969Y-163148627D01*
X228013541Y-163227046D01*
X227917526Y-163289555D01*
X227800946Y-163330265D01*
X227673821Y-163343287D01*
X227627494Y-163340073D01*
X227547850Y-163329856D01*
X227486309Y-163320583D01*
X227470165Y-163317506D01*
X227445379Y-163329471D01*
X227423850Y-163381599D01*
X227406224Y-163461700D01*
X227389001Y-163549611D01*
X227373067Y-163620494D01*
X227364114Y-163652200D01*
X227347688Y-163699952D01*
X227324530Y-163771367D01*
X227318055Y-163791900D01*
X227257009Y-163950307D01*
X227170830Y-164125682D01*
X227070107Y-164298873D01*
X226965425Y-164450724D01*
X226928233Y-164497163D01*
X226850926Y-164579624D01*
X226757064Y-164666150D01*
X226658702Y-164746969D01*
X226567894Y-164812311D01*
X226496695Y-164852406D01*
X226484165Y-164857092D01*
X226442520Y-164886190D01*
X226387644Y-164944837D01*
X226341619Y-165005925D01*
X226222945Y-165161454D01*
X226078039Y-165321339D01*
X225913320Y-165480865D01*
X225735207Y-165635319D01*
X225550121Y-165779989D01*
X225364479Y-165910160D01*
X225184700Y-166021119D01*
X225017206Y-166108154D01*
X224868413Y-166166551D01*
X224744742Y-166191597D01*
X224725987Y-166192200D01*
X224659196Y-166209708D01*
X224596613Y-166251144D01*
X224473577Y-166356660D01*
X224334496Y-166452772D01*
X224189672Y-166534347D01*
X224049408Y-166596254D01*
X223924005Y-166633362D01*
X223823765Y-166640539D01*
X223816746Y-166639607D01*
X223739350Y-166637851D01*
X223658976Y-166660190D01*
X223563741Y-166711159D01*
X223478496Y-166768703D01*
X223411267Y-166814455D01*
X223360663Y-166844927D01*
X223342119Y-166852600D01*
X223312231Y-166864728D01*
X223252379Y-166896429D01*
X223180422Y-166937956D01*
X223060551Y-166998960D01*
X222904050Y-167062998D01*
X222724493Y-167125341D01*
X222535453Y-167181260D01*
X222358646Y-167224296D01*
X222203443Y-167246357D01*
X222022286Y-167254645D01*
X221833191Y-167249745D01*
X221654171Y-167232239D01*
X221503243Y-167202711D01*
X221479286Y-167195808D01*
X221399305Y-167173036D01*
X221344856Y-167167441D01*
X221293175Y-167180438D01*
X221225286Y-167211598D01*
X221105299Y-167250932D01*
X220951871Y-167272595D01*
X220779466Y-167275818D01*
X220602546Y-167259833D01*
X220535500Y-167248236D01*
X220415034Y-167221785D01*
X220284096Y-167189349D01*
X220211230Y-167169418D01*
X220123861Y-167145655D01*
X220071580Y-167137226D01*
X220041189Y-167143688D01*
X220020730Y-167163016D01*
X219948147Y-167215790D01*
X219839208Y-167243509D01*
X219700874Y-167247654D01*
X219540108Y-167229703D01*
X219363872Y-167191138D01*
X219179130Y-167133438D01*
X218992842Y-167058082D01*
X218811973Y-166966552D01*
X218664023Y-166874628D01*
X218598051Y-166832648D01*
X218547515Y-166806330D01*
X218531935Y-166801800D01*
X218496368Y-166783103D01*
X218485712Y-166770050D01*
X218451307Y-166730194D01*
X218396746Y-166680639D01*
X218333160Y-166629722D01*
X218271682Y-166585783D01*
X218223443Y-166557159D01*
X218199575Y-166552189D01*
X218198700Y-166555051D01*
X218175399Y-166612979D01*
X218110452Y-166653813D01*
X218011287Y-166673574D01*
X217975029Y-166674800D01*
X217847289Y-166659432D01*
X217695223Y-166617087D01*
X217533458Y-166553398D01*
X217376618Y-166473998D01*
X217258900Y-166398937D01*
X217202199Y-166352868D01*
X217126260Y-166283871D01*
X217038485Y-166199539D01*
X216946275Y-166107469D01*
X216857031Y-166015254D01*
X216778153Y-165930490D01*
X216717044Y-165860770D01*
X216681103Y-165813690D01*
X216674699Y-165799463D01*
X216660252Y-165786234D01*
X216613005Y-165794690D01*
X216527102Y-165825929D01*
X216521619Y-165828136D01*
X216358890Y-165876613D01*
X216170103Y-165903931D01*
X216159215Y-165904741D01*
X216049620Y-165910727D01*
X215972525Y-165905868D01*
X215922217Y-165882980D01*
X215892983Y-165834878D01*
X215879109Y-165754380D01*
X215874882Y-165634301D01*
X215874600Y-165546890D01*
X215873558Y-165419289D01*
X215868848Y-165328498D01*
X215858093Y-165260545D01*
X215838915Y-165201457D01*
X215808936Y-165137259D01*
X215802886Y-165125400D01*
X215757166Y-165035831D01*
X215715029Y-164952446D01*
X215693616Y-164909500D01*
X215660292Y-164844426D01*
X215633031Y-164795200D01*
X215596562Y-164728613D01*
X215552127Y-164638874D01*
X215507077Y-164541933D01*
X215468762Y-164453739D01*
X215444532Y-164390241D01*
X215441303Y-164379182D01*
X215415569Y-164318233D01*
X215389507Y-164285131D01*
X215358687Y-164242782D01*
X215353899Y-164222088D01*
X215337051Y-164179478D01*
X215293110Y-164174010D01*
X215246692Y-164196828D01*
X215164787Y-164231146D01*
X215081744Y-164229230D01*
X215016357Y-164191520D01*
X215016282Y-164191437D01*
X214990107Y-164148258D01*
X214954118Y-164070307D01*
X214914312Y-163971087D01*
X214895442Y-163919393D01*
X214861120Y-163816602D01*
X214837253Y-163726899D01*
X214821367Y-163635135D01*
X214810988Y-163526160D01*
X214803641Y-163384822D01*
X214802206Y-163348406D01*
X214798259Y-163151546D01*
X214803647Y-162987423D01*
X214819207Y-162838691D01*
X214830209Y-162769538D01*
X214848230Y-162662855D01*
X214862231Y-162573047D01*
X214870203Y-162513350D01*
X214871300Y-162498898D01*
X214849215Y-162470301D01*
X214793412Y-162439979D01*
X214763350Y-162429060D01*
X214662108Y-162373227D01*
X214597202Y-162284470D01*
X214572176Y-162168663D01*
X214574185Y-162115500D01*
X214596409Y-162009070D01*
X214955792Y-162009070D01*
X214957137Y-162019303D01*
X214996365Y-162025411D01*
X215056791Y-161995659D01*
X215130202Y-161935606D01*
X215208382Y-161850810D01*
X215211130Y-161847429D01*
X215290993Y-161757442D01*
X215353429Y-161709713D01*
X215404708Y-161701565D01*
X215451100Y-161730322D01*
X215460851Y-161740850D01*
X215504861Y-161819171D01*
X215517499Y-161920334D01*
X215498470Y-162049385D01*
X215447475Y-162211374D01*
X215430651Y-162255200D01*
X215335041Y-162514993D01*
X215265562Y-162747707D01*
X215218844Y-162967618D01*
X215191521Y-163189004D01*
X215184339Y-163299289D01*
X215179849Y-163428692D01*
X215179075Y-163545791D01*
X215181889Y-163637887D01*
X215188162Y-163692282D01*
X215188345Y-163692989D01*
X215207936Y-163766500D01*
X215241672Y-163690300D01*
X215266151Y-163620029D01*
X215276554Y-163562066D01*
X215294051Y-163516005D01*
X215337982Y-163451820D01*
X215380243Y-163403316D01*
X215458885Y-163330221D01*
X215517665Y-163298347D01*
X215559153Y-163309605D01*
X215585917Y-163365904D01*
X215600526Y-163469156D01*
X215604896Y-163570377D01*
X215618295Y-163736011D01*
X215653365Y-163907988D01*
X215712488Y-164092777D01*
X215798051Y-164296846D01*
X215912439Y-164526664D01*
X216047139Y-164769800D01*
X216138673Y-164934708D01*
X216204690Y-165069159D01*
X216249344Y-165183929D01*
X216276792Y-165289795D01*
X216291190Y-165397531D01*
X216291705Y-165403977D01*
X216306400Y-165593655D01*
X216351676Y-165524260D01*
X216380550Y-165461056D01*
X216385946Y-165384419D01*
X216380860Y-165333558D01*
X216378078Y-165213563D01*
X216401392Y-165116376D01*
X216447108Y-165050379D01*
X216511532Y-165023953D01*
X216517358Y-165023800D01*
X216561432Y-165030732D01*
X216602967Y-165057291D01*
X216652190Y-165112117D01*
X216702804Y-165180489D01*
X216887757Y-165426864D01*
X217072716Y-165647785D01*
X217252092Y-165837159D01*
X217420294Y-165988888D01*
X217500200Y-166049972D01*
X217588663Y-166109854D01*
X217678663Y-166165827D01*
X217758163Y-166210913D01*
X217815121Y-166238139D01*
X217833346Y-166243000D01*
X217835299Y-166219981D01*
X217832649Y-166159922D01*
X217826696Y-166084250D01*
X217820404Y-165995123D01*
X217824570Y-165939592D01*
X217843216Y-165900861D01*
X217879730Y-165862721D01*
X217947256Y-165799943D01*
X218066522Y-165862721D01*
X218149562Y-165915656D01*
X218243127Y-165988828D01*
X218310646Y-166050608D01*
X218406720Y-166142607D01*
X218516061Y-166240520D01*
X218628926Y-166336319D01*
X218735569Y-166421976D01*
X218826246Y-166489461D01*
X218891211Y-166530747D01*
X218896841Y-166533571D01*
X218968761Y-166573730D01*
X219047587Y-166625553D01*
X219060884Y-166635222D01*
X219119932Y-166675400D01*
X219163076Y-166698226D01*
X219171346Y-166700200D01*
X219208128Y-166710263D01*
X219267297Y-166734825D01*
X219274361Y-166738131D01*
X219347815Y-166767418D01*
X219441491Y-166797838D01*
X219483778Y-166809580D01*
X219613157Y-166843098D01*
X219579185Y-166777999D01*
X219549633Y-166704280D01*
X219554286Y-166644130D01*
X219586709Y-166583802D01*
X219625869Y-166539700D01*
X219674433Y-166531548D01*
X219706686Y-166537161D01*
X219780702Y-166562643D01*
X219861737Y-166603135D01*
X219874426Y-166610854D01*
X219948444Y-166652521D01*
X220016750Y-166683184D01*
X220027500Y-166686815D01*
X220089965Y-166709282D01*
X220171343Y-166742597D01*
X220201754Y-166755938D01*
X220268762Y-166778783D01*
X220371977Y-166805765D01*
X220497292Y-166834040D01*
X220630595Y-166860764D01*
X220757777Y-166883093D01*
X220864729Y-166898185D01*
X220932587Y-166903231D01*
X220984046Y-166881991D01*
X221000059Y-166852600D01*
X221029358Y-166811273D01*
X221057350Y-166801800D01*
X221096752Y-166805758D01*
X221171457Y-166816348D01*
X221269952Y-166831639D01*
X221380721Y-166849700D01*
X221492250Y-166868601D01*
X221593026Y-166886412D01*
X221671534Y-166901203D01*
X221716260Y-166911043D01*
X221722228Y-166913261D01*
X221750009Y-166916254D01*
X221817554Y-166916977D01*
X221913895Y-166915768D01*
X222028062Y-166912969D01*
X222149089Y-166908921D01*
X222266005Y-166903963D01*
X222367842Y-166898437D01*
X222443633Y-166892684D01*
X222465900Y-166890168D01*
X222597215Y-166861320D01*
X222757674Y-166809145D01*
X222934921Y-166739321D01*
X223116601Y-166657527D01*
X223290360Y-166569438D01*
X223443842Y-166480733D01*
X223564692Y-166397090D01*
X223596200Y-166370771D01*
X223678161Y-166307388D01*
X223770153Y-166250794D01*
X223856397Y-166209569D01*
X223921113Y-166192291D01*
X223924633Y-166192200D01*
X223981889Y-166207492D01*
X224010427Y-166233390D01*
X224028007Y-166252572D01*
X224056321Y-166251406D01*
X224106234Y-166226712D01*
X224171724Y-166186145D01*
X224243800Y-166133196D01*
X224338572Y-166053927D01*
X224443861Y-165958956D01*
X224547489Y-165858898D01*
X224549985Y-165856392D01*
X224703989Y-165707614D01*
X224832619Y-165596252D01*
X224934598Y-165523252D01*
X225008652Y-165489562D01*
X225043370Y-165489943D01*
X225071626Y-165524277D01*
X225081425Y-165583663D01*
X225071726Y-165645432D01*
X225052043Y-165678696D01*
X225033356Y-165711730D01*
X225036569Y-165723335D01*
X225067277Y-165720543D01*
X225127151Y-165689458D01*
X225207887Y-165636090D01*
X225301178Y-165566445D01*
X225398719Y-165486532D01*
X225492204Y-165402359D01*
X225526523Y-165368921D01*
X225614768Y-165277910D01*
X225701657Y-165183566D01*
X225780125Y-165094124D01*
X225843106Y-165017822D01*
X225883534Y-164962894D01*
X225894900Y-164939527D01*
X225907964Y-164913578D01*
X225941831Y-164858817D01*
X225978656Y-164802842D01*
X226039567Y-164692082D01*
X226098561Y-164549398D01*
X226148867Y-164393433D01*
X226183714Y-164242832D01*
X226185209Y-164234112D01*
X226214163Y-164153327D01*
X226262997Y-164084217D01*
X226264730Y-164082562D01*
X226317760Y-164045669D01*
X226364707Y-164046461D01*
X226411664Y-164088385D01*
X226464725Y-164174892D01*
X226479883Y-164204338D01*
X226544167Y-164332252D01*
X226606883Y-164277406D01*
X226730486Y-164140904D01*
X226834018Y-163964307D01*
X226918163Y-163745774D01*
X226983600Y-163483466D01*
X227031013Y-163175540D01*
X227037767Y-163114345D01*
X227053260Y-162989728D01*
X227071877Y-162875896D01*
X227091031Y-162787133D01*
X227104831Y-162744150D01*
X227153635Y-162678260D01*
X227217812Y-162659793D01*
X227294692Y-162688684D01*
X227368095Y-162750495D01*
X227439981Y-162818290D01*
X227516314Y-162880273D01*
X227586429Y-162928960D01*
X227639664Y-162956865D01*
X227664100Y-162958265D01*
X227663327Y-162928249D01*
X227641231Y-162883751D01*
X227612560Y-162830850D01*
X227574081Y-162748125D01*
X227534005Y-162653249D01*
X227533076Y-162650930D01*
X227507799Y-162586083D01*
X227489784Y-162530949D01*
X227478098Y-162475528D01*
X227471805Y-162409820D01*
X227469971Y-162323821D01*
X227471661Y-162207533D01*
X227475941Y-162050953D01*
X227476196Y-162042222D01*
X227485490Y-161827020D01*
X227500329Y-161657843D01*
X227522209Y-161530079D01*
X227552625Y-161439113D01*
X227593074Y-161380333D01*
X227645048Y-161349125D01*
X227703532Y-161340800D01*
X227758056Y-161350329D01*
X227794275Y-161388028D01*
X227814236Y-161429700D01*
X227843421Y-161487059D01*
X227868958Y-161517240D01*
X227873353Y-161518600D01*
X227888133Y-161495183D01*
X227904509Y-161432649D01*
X227920760Y-161342572D01*
X227935163Y-161236526D01*
X227945996Y-161126087D01*
X227951538Y-161022827D01*
X227951910Y-160990512D01*
X227938275Y-160833202D01*
X227901110Y-160651406D01*
X227844900Y-160463015D01*
X227776618Y-160291325D01*
X227727393Y-160175303D01*
X227704026Y-160094396D01*
X227705715Y-160040475D01*
X227731658Y-160005413D01*
X227747430Y-159995493D01*
X227791894Y-159976037D01*
X227830429Y-159975870D01*
X227874554Y-159999978D01*
X227935790Y-160053346D01*
X227980144Y-160096200D01*
X228066296Y-160173263D01*
X228130745Y-160215606D01*
X228169985Y-160221473D01*
X228180900Y-160196771D01*
X228162740Y-160148562D01*
X228112732Y-160074425D01*
X228037586Y-159981506D01*
X227944011Y-159876952D01*
X227838714Y-159767912D01*
X227728405Y-159661533D01*
X227619793Y-159564962D01*
X227519586Y-159485347D01*
X227499837Y-159471169D01*
X227379498Y-159381958D01*
X227299621Y-159310506D01*
X227255306Y-159251701D01*
X227241664Y-159201743D01*
X227254752Y-159161397D01*
X227299619Y-159131942D01*
X227382859Y-159110604D01*
X227492025Y-159096447D01*
X227629363Y-159070092D01*
X227744590Y-159023416D01*
X227826356Y-158961747D01*
X227850539Y-158928100D01*
X227858470Y-158897047D01*
X227837699Y-158870009D01*
X227779609Y-158837365D01*
X227761594Y-158828770D01*
X227691680Y-158797718D01*
X227640931Y-158778473D01*
X227627549Y-158775400D01*
X227581634Y-158759308D01*
X227511492Y-158717181D01*
X227429470Y-158658236D01*
X227347915Y-158591693D01*
X227279175Y-158526771D01*
X227250138Y-158493613D01*
X227161891Y-158388108D01*
X227060606Y-158278665D01*
X226956024Y-158174718D01*
X226857881Y-158085696D01*
X226775916Y-158021033D01*
X226737941Y-157997537D01*
X226619496Y-157928941D01*
X226529985Y-157860186D01*
X226473320Y-157796175D01*
X226453412Y-157741814D01*
X226474173Y-157702008D01*
X226493947Y-157691561D01*
X226543982Y-157688581D01*
X226630626Y-157699585D01*
X226742327Y-157722390D01*
X226867535Y-157754812D01*
X226934257Y-157774782D01*
X227002506Y-157793896D01*
X227047261Y-157802055D01*
X227055578Y-157800988D01*
X227043581Y-157780604D01*
X227003083Y-157737751D01*
X226963454Y-157700507D01*
X226862222Y-157624855D01*
X226726880Y-157545743D01*
X226572902Y-157470770D01*
X226415762Y-157407532D01*
X226283646Y-157366735D01*
X226189484Y-157341226D01*
X226110224Y-157316498D01*
X226063921Y-157298305D01*
X226039379Y-157287832D01*
X226000500Y-157276121D01*
X225941827Y-157262061D01*
X225857900Y-157244544D01*
X225743262Y-157222460D01*
X225592453Y-157194700D01*
X225400015Y-157160154D01*
X225274726Y-157137908D01*
X225145690Y-157113768D01*
X225034355Y-157090513D01*
X224950453Y-157070357D01*
X224903715Y-157055518D01*
X224898090Y-157052150D01*
X224883725Y-157011915D01*
X224883264Y-156958150D01*
X224908514Y-156900531D01*
X224971087Y-156859566D01*
X225074653Y-156833953D01*
X225222881Y-156822387D01*
X225267919Y-156821532D01*
X225369158Y-156817495D01*
X225454843Y-156808596D01*
X225508676Y-156796629D01*
X225513299Y-156794521D01*
X225550616Y-156761725D01*
X225596788Y-156705788D01*
X225638874Y-156644504D01*
X225663933Y-156595668D01*
X225666300Y-156584137D01*
X225644698Y-156583393D01*
X225589439Y-156596331D01*
X225545650Y-156609547D01*
X225440564Y-156632069D01*
X225300962Y-156646238D01*
X225142438Y-156652043D01*
X224980586Y-156649470D01*
X224831000Y-156638508D01*
X224709276Y-156619143D01*
X224675700Y-156610243D01*
X224519662Y-156571910D01*
X224321007Y-156539068D01*
X224087730Y-156512851D01*
X223881950Y-156497436D01*
X223634300Y-156482608D01*
X223634300Y-156548990D01*
X223619015Y-156645990D01*
X223576778Y-156771992D01*
X223513009Y-156916853D01*
X223433133Y-157070429D01*
X223342570Y-157222575D01*
X223246743Y-157363147D01*
X223151075Y-157482002D01*
X223115247Y-157520010D01*
X223007925Y-157620520D01*
X222888917Y-157720451D01*
X222772395Y-157808642D01*
X222672533Y-157873933D01*
X222650050Y-157886300D01*
X222586919Y-157922383D01*
X222548047Y-157950989D01*
X222542100Y-157959774D01*
X222557237Y-157987952D01*
X222595479Y-158038916D01*
X222617267Y-158065159D01*
X222662620Y-158121590D01*
X222689959Y-158162093D01*
X222693467Y-158171022D01*
X222707223Y-158201160D01*
X222740751Y-158256412D01*
X222759328Y-158284473D01*
X222858404Y-158454902D01*
X222952460Y-158662481D01*
X223036622Y-158893559D01*
X223106018Y-159134488D01*
X223155777Y-159371617D01*
X223162408Y-159413758D01*
X223187095Y-159734942D01*
X223169232Y-160062752D01*
X223111027Y-160387589D01*
X223014688Y-160699855D01*
X222882423Y-160989950D01*
X222751173Y-161201100D01*
X222656877Y-161321729D01*
X222545382Y-161445740D01*
X222425289Y-161565267D01*
X222305199Y-161672444D01*
X222193714Y-161759406D01*
X222099436Y-161818287D01*
X222056525Y-161836321D01*
X221992569Y-161864631D01*
X221957768Y-161888213D01*
X221903026Y-161918661D01*
X221809975Y-161952792D01*
X221690657Y-161987551D01*
X221557115Y-162019883D01*
X221421391Y-162046731D01*
X221295526Y-162065041D01*
X221241565Y-162069939D01*
X221005375Y-162070328D01*
X220758761Y-162043746D01*
X220528252Y-161993254D01*
X220497400Y-161984023D01*
X220365175Y-161934733D01*
X220211100Y-161864819D01*
X220054162Y-161783866D01*
X219913353Y-161701463D01*
X219840390Y-161652335D01*
X219668730Y-161511699D01*
X219497661Y-161343174D01*
X219339170Y-161160307D01*
X219205239Y-160976644D01*
X219129020Y-160848245D01*
X219082434Y-160761001D01*
X219043035Y-160689933D01*
X219018226Y-160648340D01*
X219015907Y-160645045D01*
X218994529Y-160602996D01*
X218963033Y-160524513D01*
X218925711Y-160421871D01*
X218886856Y-160307348D01*
X218850762Y-160193221D01*
X218821721Y-160091768D01*
X218819554Y-160083500D01*
X218801903Y-159994051D01*
X218785214Y-159871764D01*
X218771664Y-159734583D01*
X218764867Y-159632650D01*
X218755414Y-159491938D01*
X218743687Y-159394292D01*
X218739996Y-159380259D01*
X219092707Y-159380259D01*
X219095919Y-159572244D01*
X219110756Y-159760067D01*
X219136730Y-159925976D01*
X219148290Y-159975304D01*
X219185292Y-160105438D01*
X219226736Y-160232817D01*
X219268301Y-160345665D01*
X219305664Y-160432209D01*
X219333218Y-160479200D01*
X219361494Y-160527586D01*
X219367100Y-160552401D01*
X219381299Y-160597800D01*
X219418541Y-160669431D01*
X219470793Y-160753342D01*
X219530018Y-160835579D01*
X219530544Y-160836251D01*
X219579638Y-160898749D01*
X219639469Y-160974707D01*
X219659200Y-160999711D01*
X219854075Y-161210678D01*
X220077843Y-161390383D01*
X220322841Y-161534883D01*
X220581404Y-161640234D01*
X220845871Y-161702493D01*
X221056200Y-161718624D01*
X221187719Y-161714934D01*
X221326576Y-161704720D01*
X221446016Y-161690048D01*
X221462600Y-161687234D01*
X221684424Y-161624649D01*
X221907519Y-161519540D01*
X222121226Y-161378761D01*
X222314883Y-161209165D01*
X222454005Y-161049788D01*
X222561450Y-160880811D01*
X222659659Y-160671147D01*
X222744553Y-160430648D01*
X222804538Y-160203400D01*
X222825557Y-160066475D01*
X222836203Y-159899895D01*
X222836927Y-159718739D01*
X222828180Y-159538088D01*
X222810411Y-159373022D01*
X222784071Y-159238620D01*
X222774784Y-159207200D01*
X222746954Y-159115291D01*
X222727275Y-159036615D01*
X222720227Y-158990601D01*
X222705624Y-158930246D01*
X222680991Y-158883553D01*
X222647280Y-158823308D01*
X222612729Y-158743965D01*
X222605793Y-158725148D01*
X222531610Y-158565847D01*
X222421325Y-158395769D01*
X222283405Y-158223368D01*
X222126316Y-158057097D01*
X221958525Y-157905411D01*
X221788499Y-157776763D01*
X221624704Y-157679607D01*
X221511649Y-157632687D01*
X221424203Y-157601132D01*
X221326463Y-157561085D01*
X221297500Y-157548168D01*
X221202067Y-157519701D01*
X221071577Y-157501688D01*
X220918452Y-157493702D01*
X220755116Y-157495315D01*
X220593992Y-157506100D01*
X220447503Y-157525630D01*
X220328073Y-157553478D01*
X220256100Y-157583984D01*
X220199593Y-157613968D01*
X220179900Y-157622643D01*
X220019903Y-157696085D01*
X219880804Y-157782612D01*
X219745007Y-157894210D01*
X219657368Y-157978619D01*
X219569059Y-158071406D01*
X219490040Y-158161670D01*
X219430195Y-158237708D01*
X219403181Y-158279616D01*
X219359336Y-158363638D01*
X219316167Y-158445055D01*
X219311310Y-158454096D01*
X219269889Y-158547554D01*
X219223961Y-158679150D01*
X219177279Y-158836896D01*
X219133601Y-159008807D01*
X219123098Y-159054800D01*
X219101605Y-159201861D01*
X219092707Y-159380259D01*
X218739996Y-159380259D01*
X218730122Y-159342725D01*
X218721872Y-159335100D01*
X218685489Y-159339127D01*
X218612171Y-159349111D01*
X218515179Y-159363216D01*
X218471836Y-159369734D01*
X218167292Y-159390721D01*
X217861716Y-159362994D01*
X217563960Y-159287668D01*
X217436700Y-159239308D01*
X217222377Y-159138545D01*
X217045966Y-159033890D01*
X216964064Y-158973087D01*
X216848995Y-158878675D01*
X216679297Y-159020061D01*
X216606928Y-159083947D01*
X216508549Y-159175895D01*
X216393198Y-159287188D01*
X216269911Y-159409111D01*
X216151443Y-159529131D01*
X216027996Y-159655141D01*
X215933513Y-159749162D01*
X215862034Y-159816099D01*
X215807599Y-159860856D01*
X215764249Y-159888335D01*
X215726023Y-159903441D01*
X215687274Y-159911035D01*
X215606389Y-159927247D01*
X215572205Y-159946440D01*
X215586041Y-159966215D01*
X215647235Y-159983807D01*
X215742882Y-159988324D01*
X215871204Y-159975216D01*
X216018013Y-159946470D01*
X216131061Y-159916042D01*
X216228313Y-159896647D01*
X216288864Y-159909853D01*
X216315985Y-159956909D01*
X216318188Y-159987452D01*
X216303397Y-160044637D01*
X216255717Y-160107640D01*
X216200221Y-160159700D01*
X215882172Y-160468055D01*
X215590848Y-160816636D01*
X215330162Y-161200278D01*
X215113324Y-161594800D01*
X215070008Y-161688600D01*
X215028337Y-161788506D01*
X214992571Y-161882939D01*
X214966969Y-161960320D01*
X214955792Y-162009070D01*
X214596409Y-162009070D01*
X214596501Y-162008631D01*
X214643034Y-161867885D01*
X214710051Y-161701805D01*
X214793818Y-161518932D01*
X214890601Y-161327809D01*
X214996668Y-161136978D01*
X215016882Y-161102604D01*
X215072601Y-161006973D01*
X215116962Y-160927524D01*
X215144450Y-160874336D01*
X215150700Y-160858064D01*
X215167938Y-160827843D01*
X215188800Y-160807399D01*
X215221095Y-160763795D01*
X215226899Y-160740112D01*
X215242242Y-160705359D01*
X215283173Y-160643398D01*
X215342041Y-160565443D01*
X215367510Y-160533976D01*
X215508121Y-160363507D01*
X215437360Y-160340449D01*
X215318609Y-160284540D01*
X215214893Y-160203927D01*
X215134920Y-160108686D01*
X215087403Y-160008894D01*
X215079246Y-159926178D01*
X215091786Y-159889024D01*
X215124437Y-159850870D01*
X215183380Y-159807374D01*
X215274794Y-159754196D01*
X215404860Y-159686994D01*
X215455500Y-159661894D01*
X215549434Y-159609971D01*
X215646130Y-159543740D01*
X215752763Y-159457318D01*
X215876505Y-159344821D01*
X216024530Y-159200364D01*
X216053354Y-159171472D01*
X216160529Y-159065259D01*
X216269756Y-158959683D01*
X216369010Y-158866205D01*
X216446266Y-158796291D01*
X216453404Y-158790101D01*
X216523206Y-158726769D01*
X216574627Y-158674018D01*
X216598006Y-158641887D01*
X216598499Y-158639336D01*
X216583192Y-158607623D01*
X216543388Y-158551084D01*
X216496899Y-158493077D01*
X216443164Y-158423795D01*
X216406337Y-158365689D01*
X216395299Y-158336118D01*
X216380884Y-158290427D01*
X216349692Y-158239075D01*
X216314391Y-158175652D01*
X216273000Y-158076069D01*
X216230043Y-157953847D01*
X216190049Y-157822504D01*
X216157543Y-157695560D01*
X216142091Y-157619030D01*
X216126291Y-157457112D01*
X216126917Y-157266515D01*
X216128888Y-157242015D01*
X216449193Y-157242015D01*
X216452275Y-157389275D01*
X216459633Y-157530389D01*
X216470038Y-157636316D01*
X216486332Y-157722667D01*
X216511354Y-157805054D01*
X216542740Y-157886400D01*
X216659146Y-158140456D01*
X216786038Y-158353130D01*
X216930245Y-158533706D01*
X217098596Y-158691469D01*
X217182700Y-158756505D01*
X217412221Y-158894612D01*
X217668398Y-158995804D01*
X217940609Y-159057670D01*
X218218226Y-159077803D01*
X218490628Y-159053793D01*
X218492485Y-159053465D01*
X218627565Y-159027192D01*
X218719378Y-159002708D01*
X218775209Y-158976827D01*
X218802346Y-158946365D01*
X218808300Y-158915420D01*
X218816938Y-158859720D01*
X218839909Y-158770406D01*
X218872794Y-158661080D01*
X218911175Y-158545342D01*
X218950635Y-158436792D01*
X218986756Y-158349030D01*
X219003309Y-158315085D01*
X219052206Y-158231782D01*
X219105766Y-158150453D01*
X219106750Y-158149072D01*
X219143564Y-158093065D01*
X219162997Y-158054795D01*
X219163900Y-158050194D01*
X219180086Y-158018548D01*
X219223358Y-157959682D01*
X219285781Y-157883179D01*
X219359424Y-157798622D01*
X219436354Y-157715594D01*
X219466108Y-157685120D01*
X219574302Y-157585394D01*
X219690840Y-157492953D01*
X219801211Y-157418572D01*
X219881450Y-157376719D01*
X219937728Y-157345774D01*
X219946270Y-157314148D01*
X219913200Y-157276800D01*
X219881222Y-157239275D01*
X219875100Y-157221195D01*
X219861109Y-157186989D01*
X219826375Y-157131974D01*
X219815102Y-157116355D01*
X219763384Y-157027362D01*
X219709305Y-156901583D01*
X219657372Y-156752569D01*
X219612091Y-156593866D01*
X219577968Y-156439024D01*
X219566852Y-156369887D01*
X219549051Y-156255543D01*
X219529910Y-156177480D01*
X219504353Y-156121317D01*
X219489772Y-156102170D01*
X219856452Y-156102170D01*
X219888747Y-156391002D01*
X219968805Y-156681870D01*
X220096668Y-156971605D01*
X220176477Y-157111700D01*
X220224002Y-157167487D01*
X220277918Y-157181506D01*
X220284100Y-157180948D01*
X220411491Y-157169704D01*
X220560309Y-157161747D01*
X220718329Y-157157176D01*
X220873328Y-157156090D01*
X221013081Y-157158590D01*
X221125362Y-157164776D01*
X221192623Y-157173533D01*
X221370120Y-157217804D01*
X221543035Y-157272605D01*
X221694442Y-157332148D01*
X221780100Y-157374406D01*
X221857229Y-157417286D01*
X221923346Y-157453569D01*
X221945557Y-157465534D01*
X222024468Y-157513177D01*
X222112683Y-157574613D01*
X222189249Y-157634777D01*
X222219239Y-157662311D01*
X222260006Y-157694597D01*
X222304747Y-157704273D01*
X222363584Y-157689392D01*
X222446640Y-157648004D01*
X222521404Y-157604157D01*
X222760693Y-157431337D01*
X222964814Y-157225634D01*
X223130987Y-156992247D01*
X223256433Y-156736373D01*
X223338372Y-156463211D01*
X223374025Y-156177959D01*
X223372585Y-156012204D01*
X223358020Y-155834058D01*
X223333825Y-155686802D01*
X223294795Y-155550720D01*
X223235726Y-155406098D01*
X223184057Y-155298049D01*
X223031709Y-155046105D01*
X222841952Y-154825075D01*
X222619773Y-154639343D01*
X222370156Y-154493291D01*
X222182123Y-154417130D01*
X222090331Y-154387868D01*
X222010591Y-154367800D01*
X221929176Y-154355169D01*
X221832359Y-154348217D01*
X221706412Y-154345188D01*
X221615000Y-154344537D01*
X221471681Y-154344503D01*
X221365875Y-154347036D01*
X221284298Y-154354067D01*
X221213666Y-154367530D01*
X221140697Y-154389355D01*
X221052105Y-154421475D01*
X221030800Y-154429510D01*
X220917481Y-154475414D01*
X220810346Y-154524111D01*
X220726744Y-154567525D01*
X220703318Y-154581910D01*
X220633657Y-154627742D01*
X220575676Y-154664784D01*
X220560895Y-154673833D01*
X220466421Y-154744328D01*
X220358132Y-154848614D01*
X220246733Y-154975993D01*
X220204071Y-155030523D01*
X220045731Y-155279548D01*
X219934986Y-155543276D01*
X219871880Y-155818538D01*
X219856452Y-156102170D01*
X219489772Y-156102170D01*
X219467306Y-156072672D01*
X219458578Y-156063125D01*
X219389207Y-155999468D01*
X219290050Y-155921824D01*
X219175898Y-155840565D01*
X219061544Y-155766064D01*
X218961779Y-155708694D01*
X218933009Y-155694564D01*
X218753559Y-155630155D01*
X218546465Y-155585459D01*
X218324489Y-155560852D01*
X218100396Y-155556712D01*
X217886951Y-155573419D01*
X217696920Y-155611348D01*
X217576400Y-155654422D01*
X217285101Y-155810235D01*
X217037069Y-155992649D01*
X216832275Y-156201691D01*
X216670695Y-156437383D01*
X216623796Y-156527314D01*
X216542740Y-156712234D01*
X216488955Y-156881261D01*
X216458940Y-157051989D01*
X216449193Y-157242015D01*
X216128888Y-157242015D01*
X216143026Y-157066299D01*
X216173676Y-156875526D01*
X216180358Y-156845000D01*
X216211847Y-156728997D01*
X216254373Y-156601371D01*
X216302580Y-156475646D01*
X216351113Y-156365347D01*
X216394616Y-156284000D01*
X216412479Y-156258799D01*
X216440191Y-156216876D01*
X216446100Y-156198330D01*
X216463890Y-156161759D01*
X216512157Y-156099263D01*
X216583248Y-156018481D01*
X216669507Y-155927053D01*
X216763279Y-155832619D01*
X216856912Y-155742818D01*
X216942750Y-155665290D01*
X217013138Y-155607674D01*
X217060422Y-155577611D01*
X217070639Y-155574999D01*
X217101056Y-155561062D01*
X217153373Y-155526519D01*
X217167602Y-155516069D01*
X217229001Y-155480382D01*
X217323957Y-155436849D01*
X217439258Y-155390289D01*
X217561698Y-155345524D01*
X217678066Y-155307375D01*
X217775154Y-155280664D01*
X217839753Y-155270212D01*
X217841213Y-155270200D01*
X217917648Y-155261447D01*
X217991139Y-155242514D01*
X218067729Y-155229623D01*
X218180964Y-155227732D01*
X218318216Y-155235475D01*
X218466855Y-155251490D01*
X218614254Y-155274410D01*
X218747785Y-155302873D01*
X218854819Y-155335514D01*
X218855948Y-155335947D01*
X219059217Y-155420012D01*
X219227039Y-155503206D01*
X219374075Y-155593025D01*
X219416649Y-155622615D01*
X219554613Y-155721153D01*
X219634247Y-155475724D01*
X219758825Y-155167691D01*
X219922122Y-154892404D01*
X220124322Y-154649671D01*
X220365607Y-154439298D01*
X220646162Y-154261092D01*
X220903800Y-154139587D01*
X221086061Y-154081383D01*
X221296323Y-154041146D01*
X221519914Y-154019627D01*
X221742165Y-154017578D01*
X221948405Y-154035749D01*
G37*
X221948405Y-154035749D02*
X222123965Y-154074893D01*
X222129827Y-154076801D01*
X222234336Y-154113027D01*
X222335531Y-154150924D01*
X222402400Y-154178389D01*
X222482178Y-154211670D01*
X222553674Y-154238052D01*
X222567500Y-154242436D01*
X222619153Y-154263486D01*
X222681414Y-154301331D01*
X222763238Y-154362067D01*
X222867291Y-154446562D01*
X222935996Y-154501906D01*
X222997574Y-154548651D01*
X223014912Y-154560862D01*
X223058727Y-154599876D01*
X223122448Y-154667803D01*
X223195891Y-154752625D01*
X223268870Y-154842328D01*
X223331198Y-154924895D01*
X223361858Y-154970129D01*
X223490012Y-155212063D01*
X223589831Y-155479104D01*
X223655025Y-155752331D01*
X223674950Y-155911950D01*
X223683002Y-156017012D01*
X223694000Y-156085467D01*
X223717484Y-156126257D01*
X223762995Y-156148325D01*
X223840076Y-156160614D01*
X223951800Y-156171432D01*
X224084422Y-156186159D01*
X224237762Y-156205941D01*
X224397378Y-156228642D01*
X224548826Y-156252123D01*
X224677662Y-156274246D01*
X224764600Y-156291745D01*
X224966853Y-156315828D01*
X225191445Y-156302269D01*
X225403812Y-156258273D01*
X225511057Y-156229312D01*
X225611067Y-156203211D01*
X225684415Y-156185029D01*
X225691700Y-156183346D01*
X225768361Y-156164654D01*
X225831794Y-156147164D01*
X225833852Y-156146527D01*
X225882745Y-156147231D01*
X225939471Y-156183882D01*
X225967202Y-156210010D01*
X226021732Y-156276493D01*
X226046312Y-156347433D01*
X226051745Y-156408803D01*
X226052521Y-156563788D01*
X226040564Y-156678489D01*
X226014475Y-156762143D01*
X225992414Y-156799938D01*
X225961055Y-156847190D01*
X225949719Y-156870991D01*
X225950320Y-156871613D01*
X225976712Y-156878392D01*
X226040849Y-156895578D01*
X226131483Y-156920145D01*
X226187000Y-156935284D01*
X226311121Y-156969070D01*
X226438046Y-157003413D01*
X226545021Y-157032162D01*
X226568000Y-157038291D01*
X226655417Y-157064850D01*
X226726119Y-157092216D01*
X226758500Y-157110137D01*
X226807578Y-157140090D01*
X226876973Y-157171774D01*
X226885500Y-157175076D01*
X227004900Y-157234645D01*
X227123701Y-157319080D01*
X227234761Y-157420160D01*
X227330940Y-157529668D01*
X227405096Y-157639386D01*
X227450087Y-157741093D01*
X227458772Y-157826573D01*
X227457493Y-157833354D01*
X227433810Y-157897807D01*
X227404567Y-157938555D01*
X227373577Y-157974426D01*
X227368099Y-157990214D01*
X227385263Y-158015636D01*
X227431724Y-158067868D01*
X227499939Y-158138749D01*
X227564949Y-158203243D01*
X227657154Y-158290974D01*
X227728765Y-158351237D01*
X227794378Y-158393203D01*
X227868586Y-158426044D01*
X227965985Y-158458931D01*
X227977700Y-158462618D01*
X228095922Y-158504947D01*
X228190558Y-158549028D01*
X228248891Y-158588890D01*
X228250750Y-158590795D01*
X228297015Y-158674388D01*
X228305837Y-158778518D01*
X228276409Y-158888526D01*
X228268130Y-158905629D01*
X228219058Y-158987094D01*
X228152462Y-159080979D01*
X228081136Y-159170620D01*
X228017876Y-159239353D01*
X227998799Y-159256374D01*
X227973850Y-159278827D01*
X227966403Y-159300256D01*
X227981027Y-159329937D01*
X228022290Y-159377141D01*
X228094715Y-159451100D01*
X228238258Y-159616468D01*
X228359676Y-159796840D01*
X228452777Y-159980829D01*
X228511369Y-160157048D01*
X228526483Y-160245005D01*
X228524882Y-160364239D01*
X228489491Y-160447808D01*
X228417904Y-160499993D01*
X228375435Y-160513840D01*
X228313395Y-160533897D01*
X228290786Y-160558485D01*
X228294146Y-160590040D01*
X228336292Y-160744873D01*
X228363463Y-160868153D01*
X228378410Y-160975933D01*
X228383887Y-161084264D01*
X228384100Y-161114619D01*
X228372152Y-161287499D01*
X228338844Y-161450607D01*
X228287979Y-161588331D01*
X228254498Y-161646726D01*
X228219894Y-161705640D01*
X228176920Y-161789968D01*
X228146602Y-161855337D01*
X228105231Y-161939786D01*
X228063892Y-161989267D01*
X228006283Y-162015610D01*
X227916099Y-162030641D01*
X227902816Y-162032189D01*
X227870636Y-162039259D01*
X227851177Y-162058821D01*
X227840293Y-162102103D01*
X227833835Y-162180329D01*
X227831500Y-162225180D01*
X227834769Y-162369082D01*
X227856201Y-162508276D01*
X227892418Y-162627640D01*
X227940041Y-162712050D01*
X227940337Y-162712400D01*
X227992235Y-162786240D01*
X228042085Y-162877701D01*
X228081581Y-162969109D01*
X228102419Y-163042796D01*
X228103786Y-163060188D01*
X228078969Y-163148627D01*
X228013541Y-163227046D01*
X227917526Y-163289555D01*
X227800946Y-163330265D01*
X227673821Y-163343287D01*
X227627494Y-163340073D01*
X227547850Y-163329856D01*
X227486309Y-163320583D01*
X227470165Y-163317506D01*
X227445379Y-163329471D01*
X227423850Y-163381599D01*
X227406224Y-163461700D01*
X227389001Y-163549611D01*
X227373067Y-163620494D01*
X227364114Y-163652200D01*
X227347688Y-163699952D01*
X227324530Y-163771367D01*
X227318055Y-163791900D01*
X227257009Y-163950307D01*
X227170830Y-164125682D01*
X227070107Y-164298873D01*
X226965425Y-164450724D01*
X226928233Y-164497163D01*
X226850926Y-164579624D01*
X226757064Y-164666150D01*
X226658702Y-164746969D01*
X226567894Y-164812311D01*
X226496695Y-164852406D01*
X226484165Y-164857092D01*
X226442520Y-164886190D01*
X226387644Y-164944837D01*
X226341619Y-165005925D01*
X226222945Y-165161454D01*
X226078039Y-165321339D01*
X225913320Y-165480865D01*
X225735207Y-165635319D01*
X225550121Y-165779989D01*
X225364479Y-165910160D01*
X225184700Y-166021119D01*
X225017206Y-166108154D01*
X224868413Y-166166551D01*
X224744742Y-166191597D01*
X224725987Y-166192200D01*
X224659196Y-166209708D01*
X224596613Y-166251144D01*
X224473577Y-166356660D01*
X224334496Y-166452772D01*
X224189672Y-166534347D01*
X224049408Y-166596254D01*
X223924005Y-166633362D01*
X223823765Y-166640539D01*
X223816746Y-166639607D01*
X223739350Y-166637851D01*
X223658976Y-166660190D01*
X223563741Y-166711159D01*
X223478496Y-166768703D01*
X223411267Y-166814455D01*
X223360663Y-166844927D01*
X223342119Y-166852600D01*
X223312231Y-166864728D01*
X223252379Y-166896429D01*
X223180422Y-166937956D01*
X223060551Y-166998960D01*
X222904050Y-167062998D01*
X222724493Y-167125341D01*
X222535453Y-167181260D01*
X222358646Y-167224296D01*
X222203443Y-167246357D01*
X222022286Y-167254645D01*
X221833191Y-167249745D01*
X221654171Y-167232239D01*
X221503243Y-167202711D01*
X221479286Y-167195808D01*
X221399305Y-167173036D01*
X221344856Y-167167441D01*
X221293175Y-167180438D01*
X221225286Y-167211598D01*
X221105299Y-167250932D01*
X220951871Y-167272595D01*
X220779466Y-167275818D01*
X220602546Y-167259833D01*
X220535500Y-167248236D01*
X220415034Y-167221785D01*
X220284096Y-167189349D01*
X220211230Y-167169418D01*
X220123861Y-167145655D01*
X220071580Y-167137226D01*
X220041189Y-167143688D01*
X220020730Y-167163016D01*
X219948147Y-167215790D01*
X219839208Y-167243509D01*
X219700874Y-167247654D01*
X219540108Y-167229703D01*
X219363872Y-167191138D01*
X219179130Y-167133438D01*
X218992842Y-167058082D01*
X218811973Y-166966552D01*
X218664023Y-166874628D01*
X218598051Y-166832648D01*
X218547515Y-166806330D01*
X218531935Y-166801800D01*
X218496368Y-166783103D01*
X218485712Y-166770050D01*
X218451307Y-166730194D01*
X218396746Y-166680639D01*
X218333160Y-166629722D01*
X218271682Y-166585783D01*
X218223443Y-166557159D01*
X218199575Y-166552189D01*
X218198700Y-166555051D01*
X218175399Y-166612979D01*
X218110452Y-166653813D01*
X218011287Y-166673574D01*
X217975029Y-166674800D01*
X217847289Y-166659432D01*
X217695223Y-166617087D01*
X217533458Y-166553398D01*
X217376618Y-166473998D01*
X217258900Y-166398937D01*
X217202199Y-166352868D01*
X217126260Y-166283871D01*
X217038485Y-166199539D01*
X216946275Y-166107469D01*
X216857031Y-166015254D01*
X216778153Y-165930490D01*
X216717044Y-165860770D01*
X216681103Y-165813690D01*
X216674699Y-165799463D01*
X216660252Y-165786234D01*
X216613005Y-165794690D01*
X216527102Y-165825929D01*
X216521619Y-165828136D01*
X216358890Y-165876613D01*
X216170103Y-165903931D01*
X216159215Y-165904741D01*
X216049620Y-165910727D01*
X215972525Y-165905868D01*
X215922217Y-165882980D01*
X215892983Y-165834878D01*
X215879109Y-165754380D01*
X215874882Y-165634301D01*
X215874600Y-165546890D01*
X215873558Y-165419289D01*
X215868848Y-165328498D01*
X215858093Y-165260545D01*
X215838915Y-165201457D01*
X215808936Y-165137259D01*
X215802886Y-165125400D01*
X215757166Y-165035831D01*
X215715029Y-164952446D01*
X215693616Y-164909500D01*
X215660292Y-164844426D01*
X215633031Y-164795200D01*
X215596562Y-164728613D01*
X215552127Y-164638874D01*
X215507077Y-164541933D01*
X215468762Y-164453739D01*
X215444532Y-164390241D01*
X215441303Y-164379182D01*
X215415569Y-164318233D01*
X215389507Y-164285131D01*
X215358687Y-164242782D01*
X215353899Y-164222088D01*
X215337051Y-164179478D01*
X215293110Y-164174010D01*
X215246692Y-164196828D01*
X215164787Y-164231146D01*
X215081744Y-164229230D01*
X215016357Y-164191520D01*
X215016282Y-164191437D01*
X214990107Y-164148258D01*
X214954118Y-164070307D01*
X214914312Y-163971087D01*
X214895442Y-163919393D01*
X214861120Y-163816602D01*
X214837253Y-163726899D01*
X214821367Y-163635135D01*
X214810988Y-163526160D01*
X214803641Y-163384822D01*
X214802206Y-163348406D01*
X214798259Y-163151546D01*
X214803647Y-162987423D01*
X214819207Y-162838691D01*
X214830209Y-162769538D01*
X214848230Y-162662855D01*
X214862231Y-162573047D01*
X214870203Y-162513350D01*
X214871300Y-162498898D01*
X214849215Y-162470301D01*
X214793412Y-162439979D01*
X214763350Y-162429060D01*
X214662108Y-162373227D01*
X214597202Y-162284470D01*
X214572176Y-162168663D01*
X214574185Y-162115500D01*
X214596409Y-162009070D01*
X214955792Y-162009070D01*
X214957137Y-162019303D01*
X214996365Y-162025411D01*
X215056791Y-161995659D01*
X215130202Y-161935606D01*
X215208382Y-161850810D01*
X215211130Y-161847429D01*
X215290993Y-161757442D01*
X215353429Y-161709713D01*
X215404708Y-161701565D01*
X215451100Y-161730322D01*
X215460851Y-161740850D01*
X215504861Y-161819171D01*
X215517499Y-161920334D01*
X215498470Y-162049385D01*
X215447475Y-162211374D01*
X215430651Y-162255200D01*
X215335041Y-162514993D01*
X215265562Y-162747707D01*
X215218844Y-162967618D01*
X215191521Y-163189004D01*
X215184339Y-163299289D01*
X215179849Y-163428692D01*
X215179075Y-163545791D01*
X215181889Y-163637887D01*
X215188162Y-163692282D01*
X215188345Y-163692989D01*
X215207936Y-163766500D01*
X215241672Y-163690300D01*
X215266151Y-163620029D01*
X215276554Y-163562066D01*
X215294051Y-163516005D01*
X215337982Y-163451820D01*
X215380243Y-163403316D01*
X215458885Y-163330221D01*
X215517665Y-163298347D01*
X215559153Y-163309605D01*
X215585917Y-163365904D01*
X215600526Y-163469156D01*
X215604896Y-163570377D01*
X215618295Y-163736011D01*
X215653365Y-163907988D01*
X215712488Y-164092777D01*
X215798051Y-164296846D01*
X215912439Y-164526664D01*
X216047139Y-164769800D01*
X216138673Y-164934708D01*
X216204690Y-165069159D01*
X216249344Y-165183929D01*
X216276792Y-165289795D01*
X216291190Y-165397531D01*
X216291705Y-165403977D01*
X216306400Y-165593655D01*
X216351676Y-165524260D01*
X216380550Y-165461056D01*
X216385946Y-165384419D01*
X216380860Y-165333558D01*
X216378078Y-165213563D01*
X216401392Y-165116376D01*
X216447108Y-165050379D01*
X216511532Y-165023953D01*
X216517358Y-165023800D01*
X216561432Y-165030732D01*
X216602967Y-165057291D01*
X216652190Y-165112117D01*
X216702804Y-165180489D01*
X216887757Y-165426864D01*
X217072716Y-165647785D01*
X217252092Y-165837159D01*
X217420294Y-165988888D01*
X217500200Y-166049972D01*
X217588663Y-166109854D01*
X217678663Y-166165827D01*
X217758163Y-166210913D01*
X217815121Y-166238139D01*
X217833346Y-166243000D01*
X217835299Y-166219981D01*
X217832649Y-166159922D01*
X217826696Y-166084250D01*
X217820404Y-165995123D01*
X217824570Y-165939592D01*
X217843216Y-165900861D01*
X217879730Y-165862721D01*
X217947256Y-165799943D01*
X218066522Y-165862721D01*
X218149562Y-165915656D01*
X218243127Y-165988828D01*
X218310646Y-166050608D01*
X218406720Y-166142607D01*
X218516061Y-166240520D01*
X218628926Y-166336319D01*
X218735569Y-166421976D01*
X218826246Y-166489461D01*
X218891211Y-166530747D01*
X218896841Y-166533571D01*
X218968761Y-166573730D01*
X219047587Y-166625553D01*
X219060884Y-166635222D01*
X219119932Y-166675400D01*
X219163076Y-166698226D01*
X219171346Y-166700200D01*
X219208128Y-166710263D01*
X219267297Y-166734825D01*
X219274361Y-166738131D01*
X219347815Y-166767418D01*
X219441491Y-166797838D01*
X219483778Y-166809580D01*
X219613157Y-166843098D01*
X219579185Y-166777999D01*
X219549633Y-166704280D01*
X219554286Y-166644130D01*
X219586709Y-166583802D01*
X219625869Y-166539700D01*
X219674433Y-166531548D01*
X219706686Y-166537161D01*
X219780702Y-166562643D01*
X219861737Y-166603135D01*
X219874426Y-166610854D01*
X219948444Y-166652521D01*
X220016750Y-166683184D01*
X220027500Y-166686815D01*
X220089965Y-166709282D01*
X220171343Y-166742597D01*
X220201754Y-166755938D01*
X220268762Y-166778783D01*
X220371977Y-166805765D01*
X220497292Y-166834040D01*
X220630595Y-166860764D01*
X220757777Y-166883093D01*
X220864729Y-166898185D01*
X220932587Y-166903231D01*
X220984046Y-166881991D01*
X221000059Y-166852600D01*
X221029358Y-166811273D01*
X221057350Y-166801800D01*
X221096752Y-166805758D01*
X221171457Y-166816348D01*
X221269952Y-166831639D01*
X221380721Y-166849700D01*
X221492250Y-166868601D01*
X221593026Y-166886412D01*
X221671534Y-166901203D01*
X221716260Y-166911043D01*
X221722228Y-166913261D01*
X221750009Y-166916254D01*
X221817554Y-166916977D01*
X221913895Y-166915768D01*
X222028062Y-166912969D01*
X222149089Y-166908921D01*
X222266005Y-166903963D01*
X222367842Y-166898437D01*
X222443633Y-166892684D01*
X222465900Y-166890168D01*
X222597215Y-166861320D01*
X222757674Y-166809145D01*
X222934921Y-166739321D01*
X223116601Y-166657527D01*
X223290360Y-166569438D01*
X223443842Y-166480733D01*
X223564692Y-166397090D01*
X223596200Y-166370771D01*
X223678161Y-166307388D01*
X223770153Y-166250794D01*
X223856397Y-166209569D01*
X223921113Y-166192291D01*
X223924633Y-166192200D01*
X223981889Y-166207492D01*
X224010427Y-166233390D01*
X224028007Y-166252572D01*
X224056321Y-166251406D01*
X224106234Y-166226712D01*
X224171724Y-166186145D01*
X224243800Y-166133196D01*
X224338572Y-166053927D01*
X224443861Y-165958956D01*
X224547489Y-165858898D01*
X224549985Y-165856392D01*
X224703989Y-165707614D01*
X224832619Y-165596252D01*
X224934598Y-165523252D01*
X225008652Y-165489562D01*
X225043370Y-165489943D01*
X225071626Y-165524277D01*
X225081425Y-165583663D01*
X225071726Y-165645432D01*
X225052043Y-165678696D01*
X225033356Y-165711730D01*
X225036569Y-165723335D01*
X225067277Y-165720543D01*
X225127151Y-165689458D01*
X225207887Y-165636090D01*
X225301178Y-165566445D01*
X225398719Y-165486532D01*
X225492204Y-165402359D01*
X225526523Y-165368921D01*
X225614768Y-165277910D01*
X225701657Y-165183566D01*
X225780125Y-165094124D01*
X225843106Y-165017822D01*
X225883534Y-164962894D01*
X225894900Y-164939527D01*
X225907964Y-164913578D01*
X225941831Y-164858817D01*
X225978656Y-164802842D01*
X226039567Y-164692082D01*
X226098561Y-164549398D01*
X226148867Y-164393433D01*
X226183714Y-164242832D01*
X226185209Y-164234112D01*
X226214163Y-164153327D01*
X226262997Y-164084217D01*
X226264730Y-164082562D01*
X226317760Y-164045669D01*
X226364707Y-164046461D01*
X226411664Y-164088385D01*
X226464725Y-164174892D01*
X226479883Y-164204338D01*
X226544167Y-164332252D01*
X226606883Y-164277406D01*
X226730486Y-164140904D01*
X226834018Y-163964307D01*
X226918163Y-163745774D01*
X226983600Y-163483466D01*
X227031013Y-163175540D01*
X227037767Y-163114345D01*
X227053260Y-162989728D01*
X227071877Y-162875896D01*
X227091031Y-162787133D01*
X227104831Y-162744150D01*
X227153635Y-162678260D01*
X227217812Y-162659793D01*
X227294692Y-162688684D01*
X227368095Y-162750495D01*
X227439981Y-162818290D01*
X227516314Y-162880273D01*
X227586429Y-162928960D01*
X227639664Y-162956865D01*
X227664100Y-162958265D01*
X227663327Y-162928249D01*
X227641231Y-162883751D01*
X227612560Y-162830850D01*
X227574081Y-162748125D01*
X227534005Y-162653249D01*
X227533076Y-162650930D01*
X227507799Y-162586083D01*
X227489784Y-162530949D01*
X227478098Y-162475528D01*
X227471805Y-162409820D01*
X227469971Y-162323821D01*
X227471661Y-162207533D01*
X227475941Y-162050953D01*
X227476196Y-162042222D01*
X227485490Y-161827020D01*
X227500329Y-161657843D01*
X227522209Y-161530079D01*
X227552625Y-161439113D01*
X227593074Y-161380333D01*
X227645048Y-161349125D01*
X227703532Y-161340800D01*
X227758056Y-161350329D01*
X227794275Y-161388028D01*
X227814236Y-161429700D01*
X227843421Y-161487059D01*
X227868958Y-161517240D01*
X227873353Y-161518600D01*
X227888133Y-161495183D01*
X227904509Y-161432649D01*
X227920760Y-161342572D01*
X227935163Y-161236526D01*
X227945996Y-161126087D01*
X227951538Y-161022827D01*
X227951910Y-160990512D01*
X227938275Y-160833202D01*
X227901110Y-160651406D01*
X227844900Y-160463015D01*
X227776618Y-160291325D01*
X227727393Y-160175303D01*
X227704026Y-160094396D01*
X227705715Y-160040475D01*
X227731658Y-160005413D01*
X227747430Y-159995493D01*
X227791894Y-159976037D01*
X227830429Y-159975870D01*
X227874554Y-159999978D01*
X227935790Y-160053346D01*
X227980144Y-160096200D01*
X228066296Y-160173263D01*
X228130745Y-160215606D01*
X228169985Y-160221473D01*
X228180900Y-160196771D01*
X228162740Y-160148562D01*
X228112732Y-160074425D01*
X228037586Y-159981506D01*
X227944011Y-159876952D01*
X227838714Y-159767912D01*
X227728405Y-159661533D01*
X227619793Y-159564962D01*
X227519586Y-159485347D01*
X227499837Y-159471169D01*
X227379498Y-159381958D01*
X227299621Y-159310506D01*
X227255306Y-159251701D01*
X227241664Y-159201743D01*
X227254752Y-159161397D01*
X227299619Y-159131942D01*
X227382859Y-159110604D01*
X227492025Y-159096447D01*
X227629363Y-159070092D01*
X227744590Y-159023416D01*
X227826356Y-158961747D01*
X227850539Y-158928100D01*
X227858470Y-158897047D01*
X227837699Y-158870009D01*
X227779609Y-158837365D01*
X227761594Y-158828770D01*
X227691680Y-158797718D01*
X227640931Y-158778473D01*
X227627549Y-158775400D01*
X227581634Y-158759308D01*
X227511492Y-158717181D01*
X227429470Y-158658236D01*
X227347915Y-158591693D01*
X227279175Y-158526771D01*
X227250138Y-158493613D01*
X227161891Y-158388108D01*
X227060606Y-158278665D01*
X226956024Y-158174718D01*
X226857881Y-158085696D01*
X226775916Y-158021033D01*
X226737941Y-157997537D01*
X226619496Y-157928941D01*
X226529985Y-157860186D01*
X226473320Y-157796175D01*
X226453412Y-157741814D01*
X226474173Y-157702008D01*
X226493947Y-157691561D01*
X226543982Y-157688581D01*
X226630626Y-157699585D01*
X226742327Y-157722390D01*
X226867535Y-157754812D01*
X226934257Y-157774782D01*
X227002506Y-157793896D01*
X227047261Y-157802055D01*
X227055578Y-157800988D01*
X227043581Y-157780604D01*
X227003083Y-157737751D01*
X226963454Y-157700507D01*
X226862222Y-157624855D01*
X226726880Y-157545743D01*
X226572902Y-157470770D01*
X226415762Y-157407532D01*
X226283646Y-157366735D01*
X226189484Y-157341226D01*
X226110224Y-157316498D01*
X226063921Y-157298305D01*
X226039379Y-157287832D01*
X226000500Y-157276121D01*
X225941827Y-157262061D01*
X225857900Y-157244544D01*
X225743262Y-157222460D01*
X225592453Y-157194700D01*
X225400015Y-157160154D01*
X225274726Y-157137908D01*
X225145690Y-157113768D01*
X225034355Y-157090513D01*
X224950453Y-157070357D01*
X224903715Y-157055518D01*
X224898090Y-157052150D01*
X224883725Y-157011915D01*
X224883264Y-156958150D01*
X224908514Y-156900531D01*
X224971087Y-156859566D01*
X225074653Y-156833953D01*
X225222881Y-156822387D01*
X225267919Y-156821532D01*
X225369158Y-156817495D01*
X225454843Y-156808596D01*
X225508676Y-156796629D01*
X225513299Y-156794521D01*
X225550616Y-156761725D01*
X225596788Y-156705788D01*
X225638874Y-156644504D01*
X225663933Y-156595668D01*
X225666300Y-156584137D01*
X225644698Y-156583393D01*
X225589439Y-156596331D01*
X225545650Y-156609547D01*
X225440564Y-156632069D01*
X225300962Y-156646238D01*
X225142438Y-156652043D01*
X224980586Y-156649470D01*
X224831000Y-156638508D01*
X224709276Y-156619143D01*
X224675700Y-156610243D01*
X224519662Y-156571910D01*
X224321007Y-156539068D01*
X224087730Y-156512851D01*
X223881950Y-156497436D01*
X223634300Y-156482608D01*
X223634300Y-156548990D01*
X223619015Y-156645990D01*
X223576778Y-156771992D01*
X223513009Y-156916853D01*
X223433133Y-157070429D01*
X223342570Y-157222575D01*
X223246743Y-157363147D01*
X223151075Y-157482002D01*
X223115247Y-157520010D01*
X223007925Y-157620520D01*
X222888917Y-157720451D01*
X222772395Y-157808642D01*
X222672533Y-157873933D01*
X222650050Y-157886300D01*
X222586919Y-157922383D01*
X222548047Y-157950989D01*
X222542100Y-157959774D01*
X222557237Y-157987952D01*
X222595479Y-158038916D01*
X222617267Y-158065159D01*
X222662620Y-158121590D01*
X222689959Y-158162093D01*
X222693467Y-158171022D01*
X222707223Y-158201160D01*
X222740751Y-158256412D01*
X222759328Y-158284473D01*
X222858404Y-158454902D01*
X222952460Y-158662481D01*
X223036622Y-158893559D01*
X223106018Y-159134488D01*
X223155777Y-159371617D01*
X223162408Y-159413758D01*
X223187095Y-159734942D01*
X223169232Y-160062752D01*
X223111027Y-160387589D01*
X223014688Y-160699855D01*
X222882423Y-160989950D01*
X222751173Y-161201100D01*
X222656877Y-161321729D01*
X222545382Y-161445740D01*
X222425289Y-161565267D01*
X222305199Y-161672444D01*
X222193714Y-161759406D01*
X222099436Y-161818287D01*
X222056525Y-161836321D01*
X221992569Y-161864631D01*
X221957768Y-161888213D01*
X221903026Y-161918661D01*
X221809975Y-161952792D01*
X221690657Y-161987551D01*
X221557115Y-162019883D01*
X221421391Y-162046731D01*
X221295526Y-162065041D01*
X221241565Y-162069939D01*
X221005375Y-162070328D01*
X220758761Y-162043746D01*
X220528252Y-161993254D01*
X220497400Y-161984023D01*
X220365175Y-161934733D01*
X220211100Y-161864819D01*
X220054162Y-161783866D01*
X219913353Y-161701463D01*
X219840390Y-161652335D01*
X219668730Y-161511699D01*
X219497661Y-161343174D01*
X219339170Y-161160307D01*
X219205239Y-160976644D01*
X219129020Y-160848245D01*
X219082434Y-160761001D01*
X219043035Y-160689933D01*
X219018226Y-160648340D01*
X219015907Y-160645045D01*
X218994529Y-160602996D01*
X218963033Y-160524513D01*
X218925711Y-160421871D01*
X218886856Y-160307348D01*
X218850762Y-160193221D01*
X218821721Y-160091768D01*
X218819554Y-160083500D01*
X218801903Y-159994051D01*
X218785214Y-159871764D01*
X218771664Y-159734583D01*
X218764867Y-159632650D01*
X218755414Y-159491938D01*
X218743687Y-159394292D01*
X218739996Y-159380259D01*
X219092707Y-159380259D01*
X219095919Y-159572244D01*
X219110756Y-159760067D01*
X219136730Y-159925976D01*
X219148290Y-159975304D01*
X219185292Y-160105438D01*
X219226736Y-160232817D01*
X219268301Y-160345665D01*
X219305664Y-160432209D01*
X219333218Y-160479200D01*
X219361494Y-160527586D01*
X219367100Y-160552401D01*
X219381299Y-160597800D01*
X219418541Y-160669431D01*
X219470793Y-160753342D01*
X219530018Y-160835579D01*
X219530544Y-160836251D01*
X219579638Y-160898749D01*
X219639469Y-160974707D01*
X219659200Y-160999711D01*
X219854075Y-161210678D01*
X220077843Y-161390383D01*
X220322841Y-161534883D01*
X220581404Y-161640234D01*
X220845871Y-161702493D01*
X221056200Y-161718624D01*
X221187719Y-161714934D01*
X221326576Y-161704720D01*
X221446016Y-161690048D01*
X221462600Y-161687234D01*
X221684424Y-161624649D01*
X221907519Y-161519540D01*
X222121226Y-161378761D01*
X222314883Y-161209165D01*
X222454005Y-161049788D01*
X222561450Y-160880811D01*
X222659659Y-160671147D01*
X222744553Y-160430648D01*
X222804538Y-160203400D01*
X222825557Y-160066475D01*
X222836203Y-159899895D01*
X222836927Y-159718739D01*
X222828180Y-159538088D01*
X222810411Y-159373022D01*
X222784071Y-159238620D01*
X222774784Y-159207200D01*
X222746954Y-159115291D01*
X222727275Y-159036615D01*
X222720227Y-158990601D01*
X222705624Y-158930246D01*
X222680991Y-158883553D01*
X222647280Y-158823308D01*
X222612729Y-158743965D01*
X222605793Y-158725148D01*
X222531610Y-158565847D01*
X222421325Y-158395769D01*
X222283405Y-158223368D01*
X222126316Y-158057097D01*
X221958525Y-157905411D01*
X221788499Y-157776763D01*
X221624704Y-157679607D01*
X221511649Y-157632687D01*
X221424203Y-157601132D01*
X221326463Y-157561085D01*
X221297500Y-157548168D01*
X221202067Y-157519701D01*
X221071577Y-157501688D01*
X220918452Y-157493702D01*
X220755116Y-157495315D01*
X220593992Y-157506100D01*
X220447503Y-157525630D01*
X220328073Y-157553478D01*
X220256100Y-157583984D01*
X220199593Y-157613968D01*
X220179900Y-157622643D01*
X220019903Y-157696085D01*
X219880804Y-157782612D01*
X219745007Y-157894210D01*
X219657368Y-157978619D01*
X219569059Y-158071406D01*
X219490040Y-158161670D01*
X219430195Y-158237708D01*
X219403181Y-158279616D01*
X219359336Y-158363638D01*
X219316167Y-158445055D01*
X219311310Y-158454096D01*
X219269889Y-158547554D01*
X219223961Y-158679150D01*
X219177279Y-158836896D01*
X219133601Y-159008807D01*
X219123098Y-159054800D01*
X219101605Y-159201861D01*
X219092707Y-159380259D01*
X218739996Y-159380259D01*
X218730122Y-159342725D01*
X218721872Y-159335100D01*
X218685489Y-159339127D01*
X218612171Y-159349111D01*
X218515179Y-159363216D01*
X218471836Y-159369734D01*
X218167292Y-159390721D01*
X217861716Y-159362994D01*
X217563960Y-159287668D01*
X217436700Y-159239308D01*
X217222377Y-159138545D01*
X217045966Y-159033890D01*
X216964064Y-158973087D01*
X216848995Y-158878675D01*
X216679297Y-159020061D01*
X216606928Y-159083947D01*
X216508549Y-159175895D01*
X216393198Y-159287188D01*
X216269911Y-159409111D01*
X216151443Y-159529131D01*
X216027996Y-159655141D01*
X215933513Y-159749162D01*
X215862034Y-159816099D01*
X215807599Y-159860856D01*
X215764249Y-159888335D01*
X215726023Y-159903441D01*
X215687274Y-159911035D01*
X215606389Y-159927247D01*
X215572205Y-159946440D01*
X215586041Y-159966215D01*
X215647235Y-159983807D01*
X215742882Y-159988324D01*
X215871204Y-159975216D01*
X216018013Y-159946470D01*
X216131061Y-159916042D01*
X216228313Y-159896647D01*
X216288864Y-159909853D01*
X216315985Y-159956909D01*
X216318188Y-159987452D01*
X216303397Y-160044637D01*
X216255717Y-160107640D01*
X216200221Y-160159700D01*
X215882172Y-160468055D01*
X215590848Y-160816636D01*
X215330162Y-161200278D01*
X215113324Y-161594800D01*
X215070008Y-161688600D01*
X215028337Y-161788506D01*
X214992571Y-161882939D01*
X214966969Y-161960320D01*
X214955792Y-162009070D01*
X214596409Y-162009070D01*
X214596501Y-162008631D01*
X214643034Y-161867885D01*
X214710051Y-161701805D01*
X214793818Y-161518932D01*
X214890601Y-161327809D01*
X214996668Y-161136978D01*
X215016882Y-161102604D01*
X215072601Y-161006973D01*
X215116962Y-160927524D01*
X215144450Y-160874336D01*
X215150700Y-160858064D01*
X215167938Y-160827843D01*
X215188800Y-160807399D01*
X215221095Y-160763795D01*
X215226899Y-160740112D01*
X215242242Y-160705359D01*
X215283173Y-160643398D01*
X215342041Y-160565443D01*
X215367510Y-160533976D01*
X215508121Y-160363507D01*
X215437360Y-160340449D01*
X215318609Y-160284540D01*
X215214893Y-160203927D01*
X215134920Y-160108686D01*
X215087403Y-160008894D01*
X215079246Y-159926178D01*
X215091786Y-159889024D01*
X215124437Y-159850870D01*
X215183380Y-159807374D01*
X215274794Y-159754196D01*
X215404860Y-159686994D01*
X215455500Y-159661894D01*
X215549434Y-159609971D01*
X215646130Y-159543740D01*
X215752763Y-159457318D01*
X215876505Y-159344821D01*
X216024530Y-159200364D01*
X216053354Y-159171472D01*
X216160529Y-159065259D01*
X216269756Y-158959683D01*
X216369010Y-158866205D01*
X216446266Y-158796291D01*
X216453404Y-158790101D01*
X216523206Y-158726769D01*
X216574627Y-158674018D01*
X216598006Y-158641887D01*
X216598499Y-158639336D01*
X216583192Y-158607623D01*
X216543388Y-158551084D01*
X216496899Y-158493077D01*
X216443164Y-158423795D01*
X216406337Y-158365689D01*
X216395299Y-158336118D01*
X216380884Y-158290427D01*
X216349692Y-158239075D01*
X216314391Y-158175652D01*
X216273000Y-158076069D01*
X216230043Y-157953847D01*
X216190049Y-157822504D01*
X216157543Y-157695560D01*
X216142091Y-157619030D01*
X216126291Y-157457112D01*
X216126917Y-157266515D01*
X216128888Y-157242015D01*
X216449193Y-157242015D01*
X216452275Y-157389275D01*
X216459633Y-157530389D01*
X216470038Y-157636316D01*
X216486332Y-157722667D01*
X216511354Y-157805054D01*
X216542740Y-157886400D01*
X216659146Y-158140456D01*
X216786038Y-158353130D01*
X216930245Y-158533706D01*
X217098596Y-158691469D01*
X217182700Y-158756505D01*
X217412221Y-158894612D01*
X217668398Y-158995804D01*
X217940609Y-159057670D01*
X218218226Y-159077803D01*
X218490628Y-159053793D01*
X218492485Y-159053465D01*
X218627565Y-159027192D01*
X218719378Y-159002708D01*
X218775209Y-158976827D01*
X218802346Y-158946365D01*
X218808300Y-158915420D01*
X218816938Y-158859720D01*
X218839909Y-158770406D01*
X218872794Y-158661080D01*
X218911175Y-158545342D01*
X218950635Y-158436792D01*
X218986756Y-158349030D01*
X219003309Y-158315085D01*
X219052206Y-158231782D01*
X219105766Y-158150453D01*
X219106750Y-158149072D01*
X219143564Y-158093065D01*
X219162997Y-158054795D01*
X219163900Y-158050194D01*
X219180086Y-158018548D01*
X219223358Y-157959682D01*
X219285781Y-157883179D01*
X219359424Y-157798622D01*
X219436354Y-157715594D01*
X219466108Y-157685120D01*
X219574302Y-157585394D01*
X219690840Y-157492953D01*
X219801211Y-157418572D01*
X219881450Y-157376719D01*
X219937728Y-157345774D01*
X219946270Y-157314148D01*
X219913200Y-157276800D01*
X219881222Y-157239275D01*
X219875100Y-157221195D01*
X219861109Y-157186989D01*
X219826375Y-157131974D01*
X219815102Y-157116355D01*
X219763384Y-157027362D01*
X219709305Y-156901583D01*
X219657372Y-156752569D01*
X219612091Y-156593866D01*
X219577968Y-156439024D01*
X219566852Y-156369887D01*
X219549051Y-156255543D01*
X219529910Y-156177480D01*
X219504353Y-156121317D01*
X219489772Y-156102170D01*
X219856452Y-156102170D01*
X219888747Y-156391002D01*
X219968805Y-156681870D01*
X220096668Y-156971605D01*
X220176477Y-157111700D01*
X220224002Y-157167487D01*
X220277918Y-157181506D01*
X220284100Y-157180948D01*
X220411491Y-157169704D01*
X220560309Y-157161747D01*
X220718329Y-157157176D01*
X220873328Y-157156090D01*
X221013081Y-157158590D01*
X221125362Y-157164776D01*
X221192623Y-157173533D01*
X221370120Y-157217804D01*
X221543035Y-157272605D01*
X221694442Y-157332148D01*
X221780100Y-157374406D01*
X221857229Y-157417286D01*
X221923346Y-157453569D01*
X221945557Y-157465534D01*
X222024468Y-157513177D01*
X222112683Y-157574613D01*
X222189249Y-157634777D01*
X222219239Y-157662311D01*
X222260006Y-157694597D01*
X222304747Y-157704273D01*
X222363584Y-157689392D01*
X222446640Y-157648004D01*
X222521404Y-157604157D01*
X222760693Y-157431337D01*
X222964814Y-157225634D01*
X223130987Y-156992247D01*
X223256433Y-156736373D01*
X223338372Y-156463211D01*
X223374025Y-156177959D01*
X223372585Y-156012204D01*
X223358020Y-155834058D01*
X223333825Y-155686802D01*
X223294795Y-155550720D01*
X223235726Y-155406098D01*
X223184057Y-155298049D01*
X223031709Y-155046105D01*
X222841952Y-154825075D01*
X222619773Y-154639343D01*
X222370156Y-154493291D01*
X222182123Y-154417130D01*
X222090331Y-154387868D01*
X222010591Y-154367800D01*
X221929176Y-154355169D01*
X221832359Y-154348217D01*
X221706412Y-154345188D01*
X221615000Y-154344537D01*
X221471681Y-154344503D01*
X221365875Y-154347036D01*
X221284298Y-154354067D01*
X221213666Y-154367530D01*
X221140697Y-154389355D01*
X221052105Y-154421475D01*
X221030800Y-154429510D01*
X220917481Y-154475414D01*
X220810346Y-154524111D01*
X220726744Y-154567525D01*
X220703318Y-154581910D01*
X220633657Y-154627742D01*
X220575676Y-154664784D01*
X220560895Y-154673833D01*
X220466421Y-154744328D01*
X220358132Y-154848614D01*
X220246733Y-154975993D01*
X220204071Y-155030523D01*
X220045731Y-155279548D01*
X219934986Y-155543276D01*
X219871880Y-155818538D01*
X219856452Y-156102170D01*
X219489772Y-156102170D01*
X219467306Y-156072672D01*
X219458578Y-156063125D01*
X219389207Y-155999468D01*
X219290050Y-155921824D01*
X219175898Y-155840565D01*
X219061544Y-155766064D01*
X218961779Y-155708694D01*
X218933009Y-155694564D01*
X218753559Y-155630155D01*
X218546465Y-155585459D01*
X218324489Y-155560852D01*
X218100396Y-155556712D01*
X217886951Y-155573419D01*
X217696920Y-155611348D01*
X217576400Y-155654422D01*
X217285101Y-155810235D01*
X217037069Y-155992649D01*
X216832275Y-156201691D01*
X216670695Y-156437383D01*
X216623796Y-156527314D01*
X216542740Y-156712234D01*
X216488955Y-156881261D01*
X216458940Y-157051989D01*
X216449193Y-157242015D01*
X216128888Y-157242015D01*
X216143026Y-157066299D01*
X216173676Y-156875526D01*
X216180358Y-156845000D01*
X216211847Y-156728997D01*
X216254373Y-156601371D01*
X216302580Y-156475646D01*
X216351113Y-156365347D01*
X216394616Y-156284000D01*
X216412479Y-156258799D01*
X216440191Y-156216876D01*
X216446100Y-156198330D01*
X216463890Y-156161759D01*
X216512157Y-156099263D01*
X216583248Y-156018481D01*
X216669507Y-155927053D01*
X216763279Y-155832619D01*
X216856912Y-155742818D01*
X216942750Y-155665290D01*
X217013138Y-155607674D01*
X217060422Y-155577611D01*
X217070639Y-155574999D01*
X217101056Y-155561062D01*
X217153373Y-155526519D01*
X217167602Y-155516069D01*
X217229001Y-155480382D01*
X217323957Y-155436849D01*
X217439258Y-155390289D01*
X217561698Y-155345524D01*
X217678066Y-155307375D01*
X217775154Y-155280664D01*
X217839753Y-155270212D01*
X217841213Y-155270200D01*
X217917648Y-155261447D01*
X217991139Y-155242514D01*
X218067729Y-155229623D01*
X218180964Y-155227732D01*
X218318216Y-155235475D01*
X218466855Y-155251490D01*
X218614254Y-155274410D01*
X218747785Y-155302873D01*
X218854819Y-155335514D01*
X218855948Y-155335947D01*
X219059217Y-155420012D01*
X219227039Y-155503206D01*
X219374075Y-155593025D01*
X219416649Y-155622615D01*
X219554613Y-155721153D01*
X219634247Y-155475724D01*
X219758825Y-155167691D01*
X219922122Y-154892404D01*
X220124322Y-154649671D01*
X220365607Y-154439298D01*
X220646162Y-154261092D01*
X220903800Y-154139587D01*
X221086061Y-154081383D01*
X221296323Y-154041146D01*
X221519914Y-154019627D01*
X221742165Y-154017578D01*
X221948405Y-154035749D01*
G36*
X221521418Y-155456160D02*
G01*
X221655540Y-155498993D01*
X221698627Y-155518318D01*
X221869548Y-155626113D01*
X222005999Y-155771129D01*
X222107539Y-155952869D01*
X222125656Y-155999119D01*
X222159760Y-156097356D01*
X222177073Y-156168217D01*
X222179759Y-156231460D01*
X222169985Y-156306837D01*
X222163379Y-156343176D01*
X222102803Y-156551982D01*
X222006573Y-156726766D01*
X221876287Y-156865513D01*
X221713545Y-156966209D01*
X221647653Y-156992641D01*
X221505629Y-157028731D01*
X221351236Y-157045545D01*
X221203816Y-157042232D01*
X221082710Y-157017939D01*
X221081600Y-157017553D01*
X220968024Y-156960610D01*
X220849622Y-156873005D01*
X220740923Y-156768085D01*
X220656457Y-156659197D01*
X220622920Y-156596241D01*
X220592146Y-156489417D01*
X220572619Y-156354911D01*
X220565731Y-156213678D01*
X220572876Y-156086674D01*
X220584897Y-156024509D01*
X220649242Y-155877346D01*
X220752159Y-155737853D01*
X220882520Y-155615956D01*
X221029199Y-155521583D01*
X221181069Y-155464662D01*
X221220862Y-155457098D01*
X221383266Y-155443059D01*
X221521418Y-155456160D01*
G37*
X221521418Y-155456160D02*
X221655540Y-155498993D01*
X221698627Y-155518318D01*
X221869548Y-155626113D01*
X222005999Y-155771129D01*
X222107539Y-155952869D01*
X222125656Y-155999119D01*
X222159760Y-156097356D01*
X222177073Y-156168217D01*
X222179759Y-156231460D01*
X222169985Y-156306837D01*
X222163379Y-156343176D01*
X222102803Y-156551982D01*
X222006573Y-156726766D01*
X221876287Y-156865513D01*
X221713545Y-156966209D01*
X221647653Y-156992641D01*
X221505629Y-157028731D01*
X221351236Y-157045545D01*
X221203816Y-157042232D01*
X221082710Y-157017939D01*
X221081600Y-157017553D01*
X220968024Y-156960610D01*
X220849622Y-156873005D01*
X220740923Y-156768085D01*
X220656457Y-156659197D01*
X220622920Y-156596241D01*
X220592146Y-156489417D01*
X220572619Y-156354911D01*
X220565731Y-156213678D01*
X220572876Y-156086674D01*
X220584897Y-156024509D01*
X220649242Y-155877346D01*
X220752159Y-155737853D01*
X220882520Y-155615956D01*
X221029199Y-155521583D01*
X221181069Y-155464662D01*
X221220862Y-155457098D01*
X221383266Y-155443059D01*
X221521418Y-155456160D01*
G36*
X226714248Y-159204852D02*
G01*
X226811565Y-159264707D01*
X226903538Y-159366135D01*
X227047739Y-159573820D01*
X227150250Y-159758986D01*
X227212762Y-159925549D01*
X227236966Y-160077423D01*
X227236212Y-160136306D01*
X227217544Y-160236112D01*
X227180739Y-160290263D01*
X227130623Y-160298415D01*
X227072022Y-160260227D01*
X227009761Y-160175357D01*
X226997544Y-160153224D01*
X226948538Y-160067238D01*
X226895832Y-159984140D01*
X226884550Y-159967866D01*
X226826364Y-159886151D01*
X226773418Y-159959425D01*
X226648401Y-160112086D01*
X226496685Y-160257727D01*
X226345002Y-160379384D01*
X226258731Y-160443027D01*
X226187509Y-160493253D01*
X226141051Y-160523334D01*
X226129102Y-160528913D01*
X226081952Y-160552315D01*
X226024762Y-160609962D01*
X225966247Y-160688886D01*
X225915122Y-160776119D01*
X225880099Y-160858694D01*
X225869500Y-160915226D01*
X225853779Y-160964330D01*
X225846476Y-160973770D01*
X225827802Y-161011001D01*
X225799541Y-161089942D01*
X225763820Y-161202875D01*
X225722770Y-161342079D01*
X225678520Y-161499835D01*
X225633199Y-161668423D01*
X225588936Y-161840124D01*
X225547860Y-162007218D01*
X225512100Y-162161986D01*
X225489529Y-162267900D01*
X225469781Y-162355905D01*
X225450425Y-162427116D01*
X225438687Y-162459233D01*
X225419950Y-162510280D01*
X225401541Y-162581300D01*
X225400500Y-162586233D01*
X225376292Y-162691384D01*
X225344613Y-162813248D01*
X225309913Y-162936199D01*
X225276644Y-163044613D01*
X225249254Y-163122867D01*
X225244088Y-163135338D01*
X225219674Y-163204950D01*
X225209111Y-163262351D01*
X225209100Y-163263608D01*
X225198206Y-163316758D01*
X225186768Y-163335970D01*
X225165600Y-163374155D01*
X225140246Y-163439718D01*
X225133138Y-163461700D01*
X225089222Y-163579442D01*
X225023017Y-163726104D01*
X224941312Y-163888953D01*
X224850897Y-164055255D01*
X224758560Y-164212274D01*
X224671090Y-164347278D01*
X224632090Y-164401500D01*
X224396635Y-164685854D01*
X224145695Y-164931554D01*
X223872273Y-165143571D01*
X223569374Y-165326875D01*
X223230005Y-165486436D01*
X222961200Y-165588692D01*
X222697611Y-165670502D01*
X222429537Y-165734757D01*
X222167431Y-165779900D01*
X221921750Y-165804374D01*
X221702947Y-165806621D01*
X221576900Y-165794960D01*
X221520760Y-165786801D01*
X221432636Y-165774078D01*
X221330827Y-165759434D01*
X221322900Y-165758296D01*
X221161464Y-165728352D01*
X220983958Y-165684402D01*
X220809980Y-165632025D01*
X220659124Y-165576804D01*
X220609661Y-165555176D01*
X220374848Y-165442075D01*
X220178954Y-165340228D01*
X220091000Y-165290713D01*
X220004042Y-165236443D01*
X219885739Y-165157574D01*
X219744991Y-165060501D01*
X219590701Y-164951619D01*
X219431773Y-164837322D01*
X219277108Y-164724006D01*
X219135609Y-164618067D01*
X219016180Y-164525898D01*
X218936991Y-164461752D01*
X218876993Y-164413186D01*
X218795789Y-164350029D01*
X218702242Y-164278863D01*
X218605216Y-164206270D01*
X218513574Y-164138833D01*
X218436179Y-164083133D01*
X218381895Y-164045753D01*
X218359917Y-164033200D01*
X218330585Y-164019342D01*
X218278871Y-163984994D01*
X218264597Y-163974541D01*
X218200402Y-163932061D01*
X218111079Y-163879551D01*
X218026523Y-163833921D01*
X217867046Y-163751960D01*
X217683623Y-163820216D01*
X217570675Y-163857518D01*
X217453376Y-163888792D01*
X217360500Y-163906719D01*
X217187212Y-163911067D01*
X216998324Y-163885626D01*
X216815970Y-163834623D01*
X216690743Y-163778849D01*
X216543419Y-163697996D01*
X216560559Y-163835179D01*
X216567783Y-163921413D01*
X216560962Y-163973155D01*
X216538002Y-164005285D01*
X216536433Y-164006610D01*
X216479940Y-164025120D01*
X216415653Y-163997800D01*
X216347187Y-163928321D01*
X216278162Y-163820353D01*
X216212208Y-163677600D01*
X216185006Y-163575049D01*
X216169779Y-163445463D01*
X216166520Y-163305620D01*
X216175222Y-163172297D01*
X216195878Y-163062275D01*
X216212469Y-163017494D01*
X216272578Y-162934207D01*
X216348811Y-162885277D01*
X216429402Y-162876871D01*
X216461678Y-162886889D01*
X216494757Y-162907789D01*
X216513536Y-162940119D01*
X216519335Y-162993916D01*
X216513474Y-163079218D01*
X216500542Y-163182300D01*
X216492594Y-163260039D01*
X216499172Y-163305947D01*
X216525159Y-163338067D01*
X216547217Y-163354780D01*
X216660918Y-163423044D01*
X216796078Y-163485852D01*
X216928722Y-163532776D01*
X216991064Y-163547875D01*
X217090124Y-163557132D01*
X217208289Y-163554890D01*
X217327085Y-163542849D01*
X217428040Y-163522707D01*
X217482014Y-163502735D01*
X217547676Y-163479556D01*
X217587362Y-163474400D01*
X217649717Y-163461047D01*
X217743373Y-163424534D01*
X217857566Y-163370178D01*
X217981529Y-163303294D01*
X218104496Y-163229201D01*
X218165467Y-163188905D01*
X218253333Y-163133085D01*
X218329972Y-163092302D01*
X218382894Y-163072917D01*
X218394067Y-163072461D01*
X218438520Y-163100490D01*
X218446436Y-163155833D01*
X218418664Y-163231409D01*
X218365744Y-163308585D01*
X218316198Y-163371127D01*
X218283202Y-163416761D01*
X218274900Y-163432206D01*
X218296707Y-163448996D01*
X218347850Y-163460944D01*
X218406911Y-163465352D01*
X218452469Y-163459522D01*
X218460090Y-163455536D01*
X218498588Y-163435527D01*
X218569629Y-163405769D01*
X218655310Y-163373625D01*
X218754122Y-163330646D01*
X218871788Y-163268006D01*
X218987081Y-163197257D01*
X219017816Y-163176331D01*
X219132708Y-163101050D01*
X219213843Y-163060919D01*
X219263865Y-163055648D01*
X219285416Y-163084951D01*
X219281319Y-163147650D01*
X219253011Y-163217157D01*
X219202825Y-163289746D01*
X219189614Y-163304183D01*
X219145338Y-163353527D01*
X219123491Y-163386084D01*
X219123299Y-163391466D01*
X219151030Y-163388160D01*
X219206614Y-163366134D01*
X219274537Y-163333125D01*
X219339284Y-163296869D01*
X219385343Y-163265103D01*
X219394317Y-163256310D01*
X219430959Y-163225593D01*
X219447174Y-163220400D01*
X219475740Y-163204696D01*
X219532525Y-163162819D01*
X219608024Y-163102619D01*
X219692734Y-163031949D01*
X219777152Y-162958658D01*
X219851773Y-162890598D01*
X219883403Y-162860027D01*
X219937642Y-162810128D01*
X219978563Y-162792002D01*
X220027381Y-162800168D01*
X220063946Y-162813371D01*
X220113300Y-162846193D01*
X220128907Y-162903979D01*
X220129100Y-162914971D01*
X220129100Y-162991800D01*
X220301563Y-162991800D01*
X220497118Y-162976385D01*
X220689250Y-162933383D01*
X220857136Y-162867655D01*
X220876181Y-162857647D01*
X220956747Y-162810206D01*
X221065595Y-162741327D01*
X221190001Y-162659560D01*
X221317243Y-162573454D01*
X221434595Y-162491558D01*
X221529336Y-162422421D01*
X221564200Y-162395351D01*
X221696339Y-162314118D01*
X221865224Y-162248959D01*
X222058381Y-162203360D01*
X222263342Y-162180806D01*
X222338301Y-162179000D01*
X222481516Y-162174345D01*
X222636015Y-162161502D01*
X222791859Y-162142153D01*
X222939110Y-162117982D01*
X223067828Y-162090670D01*
X223168075Y-162061901D01*
X223229912Y-162033356D01*
X223237969Y-162026690D01*
X223283293Y-162005000D01*
X223313079Y-162001200D01*
X223367026Y-161989148D01*
X223451191Y-161957027D01*
X223552224Y-161910890D01*
X223656772Y-161856789D01*
X223742250Y-161806660D01*
X223806269Y-161759028D01*
X223836176Y-161721081D01*
X223828052Y-161699258D01*
X223809405Y-161696400D01*
X223764175Y-161679034D01*
X223704166Y-161635950D01*
X223644203Y-161580665D01*
X223599112Y-161526696D01*
X223583500Y-161490436D01*
X223591624Y-161458316D01*
X223619497Y-161433184D01*
X223672367Y-161414138D01*
X223755483Y-161400272D01*
X223874094Y-161390680D01*
X224033448Y-161384459D01*
X224218500Y-161380961D01*
X224403206Y-161377674D01*
X224546019Y-161372798D01*
X224655837Y-161365576D01*
X224741559Y-161355251D01*
X224812084Y-161341064D01*
X224865095Y-161325930D01*
X224944648Y-161299433D01*
X224980716Y-161283220D01*
X224978506Y-161273098D01*
X224943225Y-161264870D01*
X224941295Y-161264537D01*
X224884220Y-161243867D01*
X224860633Y-161197899D01*
X224858014Y-161180393D01*
X224857808Y-161126142D01*
X224876742Y-161083919D01*
X224922607Y-161047036D01*
X225003196Y-161008808D01*
X225101560Y-160971442D01*
X225233995Y-160921003D01*
X225331534Y-160876463D01*
X225408259Y-160830232D01*
X225478252Y-160774719D01*
X225495985Y-160758833D01*
X225566970Y-160694120D01*
X225483285Y-160666103D01*
X225419325Y-160632491D01*
X225393097Y-160581131D01*
X225391684Y-160571599D01*
X225399031Y-160484280D01*
X225447827Y-160420364D01*
X225530672Y-160378107D01*
X225794815Y-160273509D01*
X226029869Y-160159163D01*
X226230035Y-160038462D01*
X226389516Y-159914798D01*
X226476919Y-159824594D01*
X226545336Y-159729335D01*
X226572923Y-159654225D01*
X226561331Y-159591558D01*
X226534698Y-159555043D01*
X226483081Y-159482313D01*
X226443790Y-159396087D01*
X226428300Y-159321918D01*
X226448202Y-159287871D01*
X226497779Y-159245351D01*
X226515968Y-159233361D01*
X226616284Y-159194598D01*
X226714248Y-159204852D01*
G37*
X226714248Y-159204852D02*
X226811565Y-159264707D01*
X226903538Y-159366135D01*
X227047739Y-159573820D01*
X227150250Y-159758986D01*
X227212762Y-159925549D01*
X227236966Y-160077423D01*
X227236212Y-160136306D01*
X227217544Y-160236112D01*
X227180739Y-160290263D01*
X227130623Y-160298415D01*
X227072022Y-160260227D01*
X227009761Y-160175357D01*
X226997544Y-160153224D01*
X226948538Y-160067238D01*
X226895832Y-159984140D01*
X226884550Y-159967866D01*
X226826364Y-159886151D01*
X226773418Y-159959425D01*
X226648401Y-160112086D01*
X226496685Y-160257727D01*
X226345002Y-160379384D01*
X226258731Y-160443027D01*
X226187509Y-160493253D01*
X226141051Y-160523334D01*
X226129102Y-160528913D01*
X226081952Y-160552315D01*
X226024762Y-160609962D01*
X225966247Y-160688886D01*
X225915122Y-160776119D01*
X225880099Y-160858694D01*
X225869500Y-160915226D01*
X225853779Y-160964330D01*
X225846476Y-160973770D01*
X225827802Y-161011001D01*
X225799541Y-161089942D01*
X225763820Y-161202875D01*
X225722770Y-161342079D01*
X225678520Y-161499835D01*
X225633199Y-161668423D01*
X225588936Y-161840124D01*
X225547860Y-162007218D01*
X225512100Y-162161986D01*
X225489529Y-162267900D01*
X225469781Y-162355905D01*
X225450425Y-162427116D01*
X225438687Y-162459233D01*
X225419950Y-162510280D01*
X225401541Y-162581300D01*
X225400500Y-162586233D01*
X225376292Y-162691384D01*
X225344613Y-162813248D01*
X225309913Y-162936199D01*
X225276644Y-163044613D01*
X225249254Y-163122867D01*
X225244088Y-163135338D01*
X225219674Y-163204950D01*
X225209111Y-163262351D01*
X225209100Y-163263608D01*
X225198206Y-163316758D01*
X225186768Y-163335970D01*
X225165600Y-163374155D01*
X225140246Y-163439718D01*
X225133138Y-163461700D01*
X225089222Y-163579442D01*
X225023017Y-163726104D01*
X224941312Y-163888953D01*
X224850897Y-164055255D01*
X224758560Y-164212274D01*
X224671090Y-164347278D01*
X224632090Y-164401500D01*
X224396635Y-164685854D01*
X224145695Y-164931554D01*
X223872273Y-165143571D01*
X223569374Y-165326875D01*
X223230005Y-165486436D01*
X222961200Y-165588692D01*
X222697611Y-165670502D01*
X222429537Y-165734757D01*
X222167431Y-165779900D01*
X221921750Y-165804374D01*
X221702947Y-165806621D01*
X221576900Y-165794960D01*
X221520760Y-165786801D01*
X221432636Y-165774078D01*
X221330827Y-165759434D01*
X221322900Y-165758296D01*
X221161464Y-165728352D01*
X220983958Y-165684402D01*
X220809980Y-165632025D01*
X220659124Y-165576804D01*
X220609661Y-165555176D01*
X220374848Y-165442075D01*
X220178954Y-165340228D01*
X220091000Y-165290713D01*
X220004042Y-165236443D01*
X219885739Y-165157574D01*
X219744991Y-165060501D01*
X219590701Y-164951619D01*
X219431773Y-164837322D01*
X219277108Y-164724006D01*
X219135609Y-164618067D01*
X219016180Y-164525898D01*
X218936991Y-164461752D01*
X218876993Y-164413186D01*
X218795789Y-164350029D01*
X218702242Y-164278863D01*
X218605216Y-164206270D01*
X218513574Y-164138833D01*
X218436179Y-164083133D01*
X218381895Y-164045753D01*
X218359917Y-164033200D01*
X218330585Y-164019342D01*
X218278871Y-163984994D01*
X218264597Y-163974541D01*
X218200402Y-163932061D01*
X218111079Y-163879551D01*
X218026523Y-163833921D01*
X217867046Y-163751960D01*
X217683623Y-163820216D01*
X217570675Y-163857518D01*
X217453376Y-163888792D01*
X217360500Y-163906719D01*
X217187212Y-163911067D01*
X216998324Y-163885626D01*
X216815970Y-163834623D01*
X216690743Y-163778849D01*
X216543419Y-163697996D01*
X216560559Y-163835179D01*
X216567783Y-163921413D01*
X216560962Y-163973155D01*
X216538002Y-164005285D01*
X216536433Y-164006610D01*
X216479940Y-164025120D01*
X216415653Y-163997800D01*
X216347187Y-163928321D01*
X216278162Y-163820353D01*
X216212208Y-163677600D01*
X216185006Y-163575049D01*
X216169779Y-163445463D01*
X216166520Y-163305620D01*
X216175222Y-163172297D01*
X216195878Y-163062275D01*
X216212469Y-163017494D01*
X216272578Y-162934207D01*
X216348811Y-162885277D01*
X216429402Y-162876871D01*
X216461678Y-162886889D01*
X216494757Y-162907789D01*
X216513536Y-162940119D01*
X216519335Y-162993916D01*
X216513474Y-163079218D01*
X216500542Y-163182300D01*
X216492594Y-163260039D01*
X216499172Y-163305947D01*
X216525159Y-163338067D01*
X216547217Y-163354780D01*
X216660918Y-163423044D01*
X216796078Y-163485852D01*
X216928722Y-163532776D01*
X216991064Y-163547875D01*
X217090124Y-163557132D01*
X217208289Y-163554890D01*
X217327085Y-163542849D01*
X217428040Y-163522707D01*
X217482014Y-163502735D01*
X217547676Y-163479556D01*
X217587362Y-163474400D01*
X217649717Y-163461047D01*
X217743373Y-163424534D01*
X217857566Y-163370178D01*
X217981529Y-163303294D01*
X218104496Y-163229201D01*
X218165467Y-163188905D01*
X218253333Y-163133085D01*
X218329972Y-163092302D01*
X218382894Y-163072917D01*
X218394067Y-163072461D01*
X218438520Y-163100490D01*
X218446436Y-163155833D01*
X218418664Y-163231409D01*
X218365744Y-163308585D01*
X218316198Y-163371127D01*
X218283202Y-163416761D01*
X218274900Y-163432206D01*
X218296707Y-163448996D01*
X218347850Y-163460944D01*
X218406911Y-163465352D01*
X218452469Y-163459522D01*
X218460090Y-163455536D01*
X218498588Y-163435527D01*
X218569629Y-163405769D01*
X218655310Y-163373625D01*
X218754122Y-163330646D01*
X218871788Y-163268006D01*
X218987081Y-163197257D01*
X219017816Y-163176331D01*
X219132708Y-163101050D01*
X219213843Y-163060919D01*
X219263865Y-163055648D01*
X219285416Y-163084951D01*
X219281319Y-163147650D01*
X219253011Y-163217157D01*
X219202825Y-163289746D01*
X219189614Y-163304183D01*
X219145338Y-163353527D01*
X219123491Y-163386084D01*
X219123299Y-163391466D01*
X219151030Y-163388160D01*
X219206614Y-163366134D01*
X219274537Y-163333125D01*
X219339284Y-163296869D01*
X219385343Y-163265103D01*
X219394317Y-163256310D01*
X219430959Y-163225593D01*
X219447174Y-163220400D01*
X219475740Y-163204696D01*
X219532525Y-163162819D01*
X219608024Y-163102619D01*
X219692734Y-163031949D01*
X219777152Y-162958658D01*
X219851773Y-162890598D01*
X219883403Y-162860027D01*
X219937642Y-162810128D01*
X219978563Y-162792002D01*
X220027381Y-162800168D01*
X220063946Y-162813371D01*
X220113300Y-162846193D01*
X220128907Y-162903979D01*
X220129100Y-162914971D01*
X220129100Y-162991800D01*
X220301563Y-162991800D01*
X220497118Y-162976385D01*
X220689250Y-162933383D01*
X220857136Y-162867655D01*
X220876181Y-162857647D01*
X220956747Y-162810206D01*
X221065595Y-162741327D01*
X221190001Y-162659560D01*
X221317243Y-162573454D01*
X221434595Y-162491558D01*
X221529336Y-162422421D01*
X221564200Y-162395351D01*
X221696339Y-162314118D01*
X221865224Y-162248959D01*
X222058381Y-162203360D01*
X222263342Y-162180806D01*
X222338301Y-162179000D01*
X222481516Y-162174345D01*
X222636015Y-162161502D01*
X222791859Y-162142153D01*
X222939110Y-162117982D01*
X223067828Y-162090670D01*
X223168075Y-162061901D01*
X223229912Y-162033356D01*
X223237969Y-162026690D01*
X223283293Y-162005000D01*
X223313079Y-162001200D01*
X223367026Y-161989148D01*
X223451191Y-161957027D01*
X223552224Y-161910890D01*
X223656772Y-161856789D01*
X223742250Y-161806660D01*
X223806269Y-161759028D01*
X223836176Y-161721081D01*
X223828052Y-161699258D01*
X223809405Y-161696400D01*
X223764175Y-161679034D01*
X223704166Y-161635950D01*
X223644203Y-161580665D01*
X223599112Y-161526696D01*
X223583500Y-161490436D01*
X223591624Y-161458316D01*
X223619497Y-161433184D01*
X223672367Y-161414138D01*
X223755483Y-161400272D01*
X223874094Y-161390680D01*
X224033448Y-161384459D01*
X224218500Y-161380961D01*
X224403206Y-161377674D01*
X224546019Y-161372798D01*
X224655837Y-161365576D01*
X224741559Y-161355251D01*
X224812084Y-161341064D01*
X224865095Y-161325930D01*
X224944648Y-161299433D01*
X224980716Y-161283220D01*
X224978506Y-161273098D01*
X224943225Y-161264870D01*
X224941295Y-161264537D01*
X224884220Y-161243867D01*
X224860633Y-161197899D01*
X224858014Y-161180393D01*
X224857808Y-161126142D01*
X224876742Y-161083919D01*
X224922607Y-161047036D01*
X225003196Y-161008808D01*
X225101560Y-160971442D01*
X225233995Y-160921003D01*
X225331534Y-160876463D01*
X225408259Y-160830232D01*
X225478252Y-160774719D01*
X225495985Y-160758833D01*
X225566970Y-160694120D01*
X225483285Y-160666103D01*
X225419325Y-160632491D01*
X225393097Y-160581131D01*
X225391684Y-160571599D01*
X225399031Y-160484280D01*
X225447827Y-160420364D01*
X225530672Y-160378107D01*
X225794815Y-160273509D01*
X226029869Y-160159163D01*
X226230035Y-160038462D01*
X226389516Y-159914798D01*
X226476919Y-159824594D01*
X226545336Y-159729335D01*
X226572923Y-159654225D01*
X226561331Y-159591558D01*
X226534698Y-159555043D01*
X226483081Y-159482313D01*
X226443790Y-159396087D01*
X226428300Y-159321918D01*
X226448202Y-159287871D01*
X226497779Y-159245351D01*
X226515968Y-159233361D01*
X226616284Y-159194598D01*
X226714248Y-159204852D01*
G36*
X218541316Y-156478642D02*
G01*
X218705605Y-156520134D01*
X218865923Y-156597673D01*
X218999261Y-156697441D01*
X219105916Y-156818903D01*
X219183914Y-156965591D01*
X219237504Y-157146557D01*
X219254829Y-157241845D01*
X219254190Y-157396260D01*
X219209902Y-157554287D01*
X219127619Y-157707290D01*
X219012993Y-157846629D01*
X218871675Y-157963667D01*
X218732426Y-158040191D01*
X218659062Y-158059668D01*
X218554395Y-158072810D01*
X218435813Y-158079062D01*
X218320704Y-158077872D01*
X218226457Y-158068685D01*
X218183333Y-158057659D01*
X218125507Y-158028966D01*
X218050560Y-157984528D01*
X217970413Y-157932436D01*
X217896988Y-157880780D01*
X217842205Y-157837651D01*
X217817986Y-157811139D01*
X217817700Y-157809522D01*
X217804584Y-157779606D01*
X217771455Y-157724498D01*
X217752669Y-157696061D01*
X217679430Y-157543056D01*
X217648221Y-157362434D01*
X217659229Y-157155382D01*
X217663575Y-157127742D01*
X217687823Y-157011150D01*
X217721315Y-156919285D01*
X217772830Y-156836360D01*
X217851147Y-156746591D01*
X217906600Y-156690767D01*
X218042010Y-156590586D01*
X218213562Y-156517108D01*
X218386304Y-156477939D01*
X218541316Y-156478642D01*
G37*
X218541316Y-156478642D02*
X218705605Y-156520134D01*
X218865923Y-156597673D01*
X218999261Y-156697441D01*
X219105916Y-156818903D01*
X219183914Y-156965591D01*
X219237504Y-157146557D01*
X219254829Y-157241845D01*
X219254190Y-157396260D01*
X219209902Y-157554287D01*
X219127619Y-157707290D01*
X219012993Y-157846629D01*
X218871675Y-157963667D01*
X218732426Y-158040191D01*
X218659062Y-158059668D01*
X218554395Y-158072810D01*
X218435813Y-158079062D01*
X218320704Y-158077872D01*
X218226457Y-158068685D01*
X218183333Y-158057659D01*
X218125507Y-158028966D01*
X218050560Y-157984528D01*
X217970413Y-157932436D01*
X217896988Y-157880780D01*
X217842205Y-157837651D01*
X217817986Y-157811139D01*
X217817700Y-157809522D01*
X217804584Y-157779606D01*
X217771455Y-157724498D01*
X217752669Y-157696061D01*
X217679430Y-157543056D01*
X217648221Y-157362434D01*
X217659229Y-157155382D01*
X217663575Y-157127742D01*
X217687823Y-157011150D01*
X217721315Y-156919285D01*
X217772830Y-156836360D01*
X217851147Y-156746591D01*
X217906600Y-156690767D01*
X218042010Y-156590586D01*
X218213562Y-156517108D01*
X218386304Y-156477939D01*
X218541316Y-156478642D01*
%TD*%
D11*
%TO.C,MX20*%
X96036130Y-107125770D03*
D12*
X90956130Y-107125770D03*
X101116130Y-107125770D03*
%TD*%
D11*
%TO.C,MX48*%
X334161130Y-134430770D03*
X310348630Y-134430770D03*
D13*
X334161130Y-119190770D03*
X310348630Y-119190770D03*
D12*
X327334880Y-126175770D03*
X317174880Y-126175770D03*
D11*
X322254880Y-126175770D03*
%TD*%
%TO.C,MX74*%
X188904880Y-164275770D03*
D12*
X183824880Y-164275770D03*
X193984880Y-164275770D03*
D13*
X138904980Y-171260770D03*
X238904780Y-171260770D03*
D11*
X138904980Y-156020770D03*
X238904780Y-156020770D03*
%TD*%
%TO.C,MX35*%
X323524880Y-104712770D03*
X323524880Y-128588770D03*
D13*
X338764880Y-104712770D03*
X338764880Y-128588770D03*
D12*
X336859880Y-116650770D03*
X326699880Y-116650770D03*
D11*
X331779880Y-116650770D03*
%TD*%
D12*
%TO.C,MX34*%
X74922380Y-126175770D03*
X64762380Y-126175770D03*
D11*
X69842380Y-126175770D03*
%TD*%
D14*
%TO.C,USB1*%
X81297240Y-79822760D03*
X72657240Y-79822760D03*
D15*
X74087240Y-79292760D03*
D16*
X72657240Y-75642760D03*
D15*
X79867240Y-79292760D03*
D16*
X81297240Y-75642760D03*
%TD*%
D11*
%TO.C,MX79*%
X353211130Y-164275770D03*
D12*
X348131130Y-164275770D03*
X358291130Y-164275770D03*
%TD*%
D11*
%TO.C,MX78*%
X334161130Y-164275770D03*
D12*
X329081130Y-164275770D03*
X339241130Y-164275770D03*
%TD*%
D11*
%TO.C,MX77*%
X315111130Y-164275770D03*
D12*
X310031130Y-164275770D03*
X320191130Y-164275770D03*
%TD*%
D11*
%TO.C,MX76*%
X284154880Y-164275770D03*
D12*
X279074880Y-164275770D03*
X289234880Y-164275770D03*
%TD*%
D11*
%TO.C,MX75*%
X260342380Y-164275770D03*
D12*
X255262380Y-164275770D03*
X265422380Y-164275770D03*
%TD*%
D11*
%TO.C,MX73*%
X117467380Y-164275770D03*
D12*
X112387380Y-164275770D03*
X122547380Y-164275770D03*
%TD*%
D11*
%TO.C,MX72*%
X93654880Y-164275770D03*
D12*
X88574880Y-164275770D03*
X98734880Y-164275770D03*
%TD*%
D11*
%TO.C,MX71*%
X69842380Y-164275770D03*
D12*
X64762380Y-164275770D03*
X74922380Y-164275770D03*
%TD*%
D11*
%TO.C,MX70*%
X281773630Y-164275770D03*
D12*
X276693630Y-164275770D03*
X286853630Y-164275770D03*
%TD*%
D11*
%TO.C,MX69*%
X200811130Y-164275770D03*
D12*
X195731130Y-164275770D03*
X205891130Y-164275770D03*
D13*
X143661130Y-171260770D03*
X257961130Y-171260770D03*
D11*
X143661130Y-156020770D03*
X257961130Y-156020770D03*
%TD*%
%TO.C,MX68*%
X119848630Y-164275770D03*
D12*
X114768630Y-164275770D03*
X124928630Y-164275770D03*
%TD*%
D11*
%TO.C,MX67*%
X96036130Y-164275770D03*
D12*
X90956130Y-164275770D03*
X101116130Y-164275770D03*
%TD*%
D11*
%TO.C,MX66*%
X72223630Y-164275770D03*
D12*
X67143630Y-164275770D03*
X77303630Y-164275770D03*
%TD*%
D11*
%TO.C,MX65*%
X353211130Y-145225770D03*
D12*
X348131130Y-145225770D03*
X358291130Y-145225770D03*
%TD*%
D11*
%TO.C,MX64*%
X334161130Y-145225770D03*
D12*
X329081130Y-145225770D03*
X339241130Y-145225770D03*
%TD*%
D11*
%TO.C,MX63*%
X307967380Y-145225770D03*
D12*
X302887380Y-145225770D03*
X313047380Y-145225770D03*
%TD*%
D11*
%TO.C,MX62*%
X281773630Y-145225770D03*
D12*
X276693630Y-145225770D03*
X286853630Y-145225770D03*
%TD*%
D11*
%TO.C,MX61*%
X262723630Y-145225770D03*
D12*
X257643630Y-145225770D03*
X267803630Y-145225770D03*
%TD*%
D11*
%TO.C,MX60*%
X243673630Y-145225770D03*
D12*
X238593630Y-145225770D03*
X248753630Y-145225770D03*
%TD*%
D11*
%TO.C,MX59*%
X224623630Y-145225770D03*
D12*
X219543630Y-145225770D03*
X229703630Y-145225770D03*
%TD*%
D11*
%TO.C,MX58*%
X205573630Y-145225770D03*
D12*
X200493630Y-145225770D03*
X210653630Y-145225770D03*
%TD*%
D11*
%TO.C,MX57*%
X186523630Y-145225770D03*
D12*
X181443630Y-145225770D03*
X191603630Y-145225770D03*
%TD*%
D11*
%TO.C,MX56*%
X167473630Y-145225770D03*
D12*
X162393630Y-145225770D03*
X172553630Y-145225770D03*
%TD*%
D11*
%TO.C,MX55*%
X148423630Y-145225770D03*
D12*
X143343630Y-145225770D03*
X153503630Y-145225770D03*
%TD*%
D11*
%TO.C,MX54*%
X129373630Y-145225770D03*
D12*
X124293630Y-145225770D03*
X134453630Y-145225770D03*
%TD*%
D11*
%TO.C,MX53*%
X110323630Y-145225770D03*
D12*
X105243630Y-145225770D03*
X115403630Y-145225770D03*
%TD*%
D11*
%TO.C,MX52*%
X91273630Y-145225770D03*
D12*
X86193630Y-145225770D03*
X96353630Y-145225770D03*
%TD*%
D11*
%TO.C,MX51*%
X79367380Y-145225770D03*
D12*
X74287380Y-145225770D03*
X84447380Y-145225770D03*
D13*
X67461130Y-138240770D03*
X91273630Y-138240770D03*
D11*
X67461130Y-153480770D03*
X91273630Y-153480770D03*
%TD*%
%TO.C,MX50*%
X69842380Y-145225770D03*
D12*
X64762380Y-145225770D03*
X74922380Y-145225770D03*
%TD*%
D11*
%TO.C,MX49*%
X353211130Y-126175770D03*
D12*
X348131130Y-126175770D03*
X358291130Y-126175770D03*
%TD*%
D11*
%TO.C,MX47*%
X291298630Y-126175770D03*
D12*
X286218630Y-126175770D03*
X296378630Y-126175770D03*
%TD*%
D11*
%TO.C,MX46*%
X272248630Y-126175770D03*
D12*
X267168630Y-126175770D03*
X277328630Y-126175770D03*
%TD*%
D11*
%TO.C,MX45*%
X253198630Y-126175770D03*
D12*
X248118630Y-126175770D03*
X258278630Y-126175770D03*
%TD*%
D11*
%TO.C,MX44*%
X234148630Y-126175770D03*
D12*
X229068630Y-126175770D03*
X239228630Y-126175770D03*
%TD*%
D11*
%TO.C,MX43*%
X215098630Y-126175770D03*
D12*
X210018630Y-126175770D03*
X220178630Y-126175770D03*
%TD*%
D11*
%TO.C,MX42*%
X196048630Y-126175770D03*
D12*
X190968630Y-126175770D03*
X201128630Y-126175770D03*
%TD*%
D11*
%TO.C,MX41*%
X176998630Y-126175770D03*
D12*
X171918630Y-126175770D03*
X182078630Y-126175770D03*
%TD*%
D11*
%TO.C,MX40*%
X157948630Y-126175770D03*
D12*
X152868630Y-126175770D03*
X163028630Y-126175770D03*
%TD*%
D11*
%TO.C,MX39*%
X138898630Y-126175770D03*
D12*
X133818630Y-126175770D03*
X143978630Y-126175770D03*
%TD*%
D11*
%TO.C,MX38*%
X119848630Y-126175770D03*
D12*
X114768630Y-126175770D03*
X124928630Y-126175770D03*
%TD*%
D11*
%TO.C,MX37*%
X100798630Y-126175770D03*
D12*
X95718630Y-126175770D03*
X105878630Y-126175770D03*
%TD*%
%TO.C,MX36*%
X79684880Y-126175770D03*
X69524880Y-126175770D03*
D11*
X74604880Y-126175770D03*
%TD*%
%TO.C,MX33*%
X353211130Y-107125770D03*
D12*
X348131130Y-107125770D03*
X358291130Y-107125770D03*
%TD*%
D11*
%TO.C,MX32*%
X329398630Y-107125770D03*
D12*
X324318630Y-107125770D03*
X334478630Y-107125770D03*
%TD*%
D11*
%TO.C,MX31*%
X305586130Y-107125770D03*
D12*
X300506130Y-107125770D03*
X310666130Y-107125770D03*
%TD*%
D11*
%TO.C,MX30*%
X286536130Y-107125770D03*
D12*
X281456130Y-107125770D03*
X291616130Y-107125770D03*
%TD*%
D11*
%TO.C,MX29*%
X267486130Y-107125770D03*
D12*
X262406130Y-107125770D03*
X272566130Y-107125770D03*
%TD*%
D11*
%TO.C,MX28*%
X248436130Y-107125770D03*
D12*
X243356130Y-107125770D03*
X253516130Y-107125770D03*
%TD*%
D11*
%TO.C,MX27*%
X229386130Y-107125770D03*
D12*
X224306130Y-107125770D03*
X234466130Y-107125770D03*
%TD*%
D11*
%TO.C,MX26*%
X210336130Y-107125770D03*
D12*
X205256130Y-107125770D03*
X215416130Y-107125770D03*
%TD*%
D11*
%TO.C,MX25*%
X191286130Y-107125770D03*
D12*
X186206130Y-107125770D03*
X196366130Y-107125770D03*
%TD*%
D11*
%TO.C,MX24*%
X172236130Y-107125770D03*
D12*
X167156130Y-107125770D03*
X177316130Y-107125770D03*
%TD*%
D11*
%TO.C,MX23*%
X153186130Y-107125770D03*
D12*
X148106130Y-107125770D03*
X158266130Y-107125770D03*
%TD*%
D11*
%TO.C,MX22*%
X134136130Y-107125770D03*
D12*
X129056130Y-107125770D03*
X139216130Y-107125770D03*
%TD*%
D11*
%TO.C,MX21*%
X115086130Y-107125770D03*
D12*
X110006130Y-107125770D03*
X120166130Y-107125770D03*
%TD*%
D11*
%TO.C,MX19*%
X72223630Y-107125770D03*
D12*
X67143630Y-107125770D03*
X77303630Y-107125770D03*
%TD*%
D11*
%TO.C,MX18*%
X310348630Y-126175770D03*
D12*
X305268630Y-126175770D03*
X315428630Y-126175770D03*
%TD*%
D11*
%TO.C,MX17*%
X353211130Y-88075770D03*
D12*
X348131130Y-88075770D03*
X358291130Y-88075770D03*
%TD*%
D11*
%TO.C,MX16*%
X334161130Y-88075770D03*
D12*
X329081130Y-88075770D03*
X339241130Y-88075770D03*
%TD*%
D11*
%TO.C,MX15*%
X315111130Y-88075770D03*
D12*
X310031130Y-88075770D03*
X320191130Y-88075770D03*
%TD*%
D11*
%TO.C,MX14*%
X296061130Y-88075770D03*
D12*
X290981130Y-88075770D03*
X301141130Y-88075770D03*
%TD*%
D11*
%TO.C,MX13*%
X277011130Y-88075770D03*
D12*
X271931130Y-88075770D03*
X282091130Y-88075770D03*
%TD*%
D11*
%TO.C,MX12*%
X257961130Y-88075770D03*
D12*
X252881130Y-88075770D03*
X263041130Y-88075770D03*
%TD*%
D11*
%TO.C,MX11*%
X238911130Y-88075770D03*
D12*
X233831130Y-88075770D03*
X243991130Y-88075770D03*
%TD*%
D11*
%TO.C,MX10*%
X219861130Y-88075770D03*
D12*
X214781130Y-88075770D03*
X224941130Y-88075770D03*
%TD*%
D11*
%TO.C,MX9*%
X200811130Y-88075770D03*
D12*
X195731130Y-88075770D03*
X205891130Y-88075770D03*
%TD*%
D11*
%TO.C,MX8*%
X181761130Y-88075770D03*
D12*
X176681130Y-88075770D03*
X186841130Y-88075770D03*
%TD*%
D11*
%TO.C,MX7*%
X162711130Y-88075770D03*
D12*
X157631130Y-88075770D03*
X167791130Y-88075770D03*
%TD*%
D11*
%TO.C,MX6*%
X143661130Y-88075770D03*
D12*
X138581130Y-88075770D03*
X148741130Y-88075770D03*
%TD*%
D11*
%TO.C,MX5*%
X124611130Y-88075770D03*
D12*
X119531130Y-88075770D03*
X129691130Y-88075770D03*
%TD*%
D11*
%TO.C,MX4*%
X105561130Y-88075770D03*
D12*
X100481130Y-88075770D03*
X110641130Y-88075770D03*
%TD*%
D11*
%TO.C,MX3*%
X86511130Y-88075770D03*
D12*
X81431130Y-88075770D03*
X91591130Y-88075770D03*
%TD*%
D11*
%TO.C,MX2*%
X67461130Y-88075770D03*
D12*
X62381130Y-88075770D03*
X72541130Y-88075770D03*
%TD*%
D11*
%TO.C,MX1*%
X324636130Y-88075770D03*
D12*
X319556130Y-88075770D03*
X329716130Y-88075770D03*
D13*
X312729880Y-81090770D03*
X336542380Y-81090770D03*
D11*
X312729880Y-96330770D03*
X336542380Y-96330770D03*
%TD*%
M02*
